<svg width="200" height="200" viewBox="0 0 200 200" fill="none" xmlns="http://www.w3.org/2000/svg">
<path d="M200 80.8199C200.124 125.052 163.87 161.681 119.216 161.804L119.299 190.801C119.31 195.748 115.299 199.77 110.337 199.782L31.55 200C26.5878 200.012 22.5531 196.013 22.5413 191.066L22.0332 9.22236C22.0214 4.27566 26.0325 0.253527 30.9947 0.241749L117.904 0.000318971C162.842 -0.123348 199.87 35.7284 200 80.8199Z" fill="#343434"/>
<path d="M187.322 12.155H187.316C186.43 12.155 185.591 12.3376 184.824 12.6615L4.00385 84.1707C1.77086 85.054 0.22903 87.1211 0.0222708 89.512C-0.178581 91.9029 0.991082 94.1996 3.04686 95.4421L45.5979 121.253L38.6803 168.341C38.3081 170.867 39.5014 173.376 41.7049 174.683C42.7092 175.278 43.8316 175.579 44.954 175.579C46.289 175.579 47.6241 175.161 48.7406 174.33L86.672 146.169L135.113 175.549C136.117 176.162 137.257 176.468 138.409 176.468C139.153 176.468 139.904 176.338 140.624 176.067C142.444 175.39 143.856 173.924 144.446 172.081L193.265 20.6528C193.519 19.9697 193.655 19.2394 193.655 18.468C193.661 14.9817 190.825 12.155 187.322 12.155ZM187.316 18.4739L138.421 170.149L86.3235 138.549L86.3117 138.567L44.9658 169.26L52.4859 118.032L6.34911 90.0478L187.316 18.4739Z" fill="white"/>
<path d="M6.34326 90.0478L187.317 18.4739L138.415 170.155L6.34326 90.0478Z" fill="white"/>
<path d="M187.317 18.4739L86.3059 138.567L44.96 169.26L52.4801 118.032L187.317 18.4739Z" fill="#DCDCDC"/>
</svg>
