<svg width="707" height="551" viewBox="0 0 707 551" fill="none" xmlns="http://www.w3.org/2000/svg">
<path d="M169.17 112.65C97.0923 150.47 13.0163 130.133 35.7418 245.499C52.362 329.97 118.348 346.916 191.443 351.834C268.142 357.006 312.985 345.898 370.52 301.111C441.678 245.739 514.391 283.926 587.444 243.167C646.194 210.379 665.443 112.226 615.709 59.9492C539.873 -19.5337 504.965 83.4096 441.636 98.673C379.098 113.739 367.255 32.1782 289.722 6.73918C187.782 -26.8121 243.084 73.8276 169.17 112.65Z" fill="#6B78E0"/>
<path opacity="0.9" d="M169.17 112.65C97.0923 150.47 13.0163 130.133 35.7418 245.499C52.362 329.97 118.348 346.916 191.443 351.834C268.142 357.006 312.985 345.898 370.52 301.111C441.678 245.739 514.391 283.926 587.444 243.167C646.194 210.379 665.443 112.226 615.709 59.9492C539.873 -19.5337 504.965 83.4096 441.636 98.673C379.098 113.739 367.255 32.1782 289.722 6.73918C187.782 -26.8121 243.084 73.8276 169.17 112.65Z" fill="white"/>
<path d="M353.32 550.23C504.657 550.23 627.341 543.067 627.341 534.232C627.341 525.396 504.657 518.233 353.32 518.233C201.982 518.233 79.2991 525.396 79.2991 534.232C79.2991 543.067 201.982 550.23 353.32 550.23Z" fill="#F5F5F5"/>
<path d="M606.848 82.7595H99.8058C96.2059 82.7707 92.7564 84.2047 90.2095 86.749C87.6626 89.2932 86.225 92.7412 86.2101 96.3411V434.765C86.2213 438.366 87.6577 441.816 90.2054 444.361C92.7531 446.906 96.2047 448.339 99.8058 448.347H606.848C610.447 448.336 613.895 446.901 616.439 444.356C618.984 441.812 620.419 438.364 620.43 434.765V96.3411C620.415 92.7437 618.979 89.2978 616.435 86.7539C613.892 84.2101 610.446 82.7744 606.848 82.7595Z" fill="#6B78E0"/>
<path opacity="0.3" d="M606.848 82.7595H99.8058C96.2059 82.7707 92.7564 84.2047 90.2095 86.749C87.6626 89.2932 86.225 92.7412 86.2101 96.3411V434.765C86.2213 438.366 87.6577 441.816 90.2054 444.361C92.7531 446.906 96.2047 448.339 99.8058 448.347H606.848C610.447 448.336 613.895 446.901 616.439 444.356C618.984 441.812 620.419 438.364 620.43 434.765V96.3411C620.415 92.7437 618.979 89.2978 616.435 86.7539C613.892 84.2101 610.446 82.7744 606.848 82.7595Z" fill="white"/>
<path d="M187.175 105.428H115.408C114.097 105.428 112.838 104.907 111.911 103.98C110.983 103.052 110.462 101.794 110.462 100.482C110.462 99.1701 110.983 97.912 111.911 96.9843C112.838 96.0567 114.097 95.5355 115.408 95.5355H187.175C188.487 95.5355 189.745 96.0567 190.672 96.9843C191.6 97.912 192.121 99.1701 192.121 100.482C192.121 101.794 191.6 103.052 190.672 103.98C189.745 104.907 188.487 105.428 187.175 105.428V105.428ZM115.408 96.9488C114.471 96.9488 113.573 97.321 112.91 97.9836C112.247 98.6463 111.875 99.5449 111.875 100.482C111.875 101.419 112.247 102.318 112.91 102.98C113.573 103.643 114.471 104.015 115.408 104.015H187.175C188.112 104.015 189.01 103.643 189.673 102.98C190.336 102.318 190.708 101.419 190.708 100.482C190.708 99.5449 190.336 98.6463 189.673 97.9836C189.01 97.321 188.112 96.9488 187.175 96.9488H115.408Z" fill="#FAFAFA"/>
<path d="M210.466 105.428H205.675C204.363 105.428 203.105 104.907 202.177 103.98C201.249 103.052 200.728 101.794 200.728 100.482C200.728 99.1701 201.249 97.912 202.177 96.9843C203.105 96.0567 204.363 95.5355 205.675 95.5355H210.466C211.777 95.5355 213.036 96.0567 213.963 96.9843C214.891 97.912 215.412 99.1701 215.412 100.482C215.412 101.794 214.891 103.052 213.963 103.98C213.036 104.907 211.777 105.428 210.466 105.428V105.428ZM205.675 96.9488C204.738 96.9488 203.839 97.321 203.176 97.9836C202.514 98.6463 202.141 99.5449 202.141 100.482C202.141 101.419 202.514 102.318 203.176 102.98C203.839 103.643 204.738 104.015 205.675 104.015H210.466C211.403 104.015 212.301 103.643 212.964 102.98C213.627 102.318 213.999 101.419 213.999 100.482C213.999 99.5449 213.627 98.6463 212.964 97.9836C212.301 97.321 211.403 96.9488 210.466 96.9488H205.675Z" fill="#FAFAFA"/>
<path d="M230.492 105.428H225.701C224.389 105.428 223.131 104.907 222.203 103.98C221.275 103.052 220.754 101.794 220.754 100.482C220.754 99.1701 221.275 97.912 222.203 96.9843C223.131 96.0567 224.389 95.5355 225.701 95.5355H230.492C231.804 95.5355 233.062 96.0567 233.989 96.9843C234.917 97.912 235.438 99.1701 235.438 100.482C235.438 101.794 234.917 103.052 233.989 103.98C233.062 104.907 231.804 105.428 230.492 105.428V105.428ZM225.701 96.9488C224.764 96.9488 223.865 97.321 223.202 97.9836C222.54 98.6463 222.168 99.5449 222.168 100.482C222.168 101.419 222.54 102.318 223.202 102.98C223.865 103.643 224.764 104.015 225.701 104.015H230.492C231.429 104.015 232.328 103.643 232.99 102.98C233.653 102.318 234.025 101.419 234.025 100.482C234.025 99.5449 233.653 98.6463 232.99 97.9836C232.328 97.321 231.429 96.9488 230.492 96.9488H225.701Z" fill="#FAFAFA"/>
<path d="M86.2101 117.894V434.765C86.2213 438.366 87.6577 441.816 90.2054 444.361C92.7531 446.906 96.2047 448.339 99.8058 448.347H606.848C610.447 448.335 613.895 446.901 616.439 444.356C618.984 441.812 620.419 438.364 620.43 434.765V117.894H86.2101Z" fill="#6B78E0"/>
<path opacity="0.6" d="M86.2101 117.894V434.765C86.2213 438.366 87.6577 441.816 90.2054 444.361C92.7531 446.906 96.2047 448.339 99.8058 448.347H606.848C610.447 448.335 613.895 446.901 616.439 444.356C618.984 441.812 620.419 438.364 620.43 434.765V117.894H86.2101Z" fill="white"/>
<path d="M88.7257 117.894V422.568C88.7238 423.581 88.9217 424.584 89.3079 425.52C89.6942 426.456 90.2612 427.307 90.9767 428.024C91.6921 428.741 92.5418 429.309 93.4772 429.697C94.4126 430.085 95.4154 430.285 96.4281 430.285H610.212C611.224 430.285 612.227 430.085 613.163 429.697C614.098 429.309 614.948 428.741 615.663 428.024C616.379 427.307 616.946 426.456 617.332 425.52C617.718 424.584 617.916 423.581 617.914 422.568V117.894H88.7257Z" fill="#FAFAFA"/>
<path d="M113.062 135.828V192.359H476.275V135.828H113.062Z" fill="#6B78E0"/>
<path opacity="0.9" d="M113.062 135.828V192.359H476.275V135.828H113.062Z" fill="white"/>
<path d="M474.862 208.753V358.844H114.476V208.753H474.862ZM476.275 207.34H113.062V360.257H476.275V207.34Z" fill="#6B78E0"/>
<path opacity="0.9" d="M474.862 208.753V358.844H114.476V208.753H474.862ZM476.275 207.34H113.062V360.257H476.275V207.34Z" fill="white"/>
<path d="M517.006 521.088H506.35L503.509 496.398H514.179L517.006 521.088Z" fill="#FF8B7B"/>
<path d="M581.678 521.088H571.021L562.711 496.398H573.368L581.678 521.088Z" fill="#FF8B7B"/>
<path d="M569.552 519.844H582.554C582.766 519.846 582.971 519.92 583.135 520.053C583.299 520.187 583.413 520.372 583.458 520.579L585.564 530.048C585.615 530.28 585.614 530.519 585.559 530.75C585.504 530.98 585.398 531.195 585.249 531.379C585.099 531.562 584.91 531.71 584.695 531.81C584.481 531.91 584.246 531.96 584.01 531.956C579.77 531.886 576.774 531.631 571.502 531.631C568.266 531.631 561.609 531.97 557.115 531.97C552.621 531.97 552.055 527.547 553.878 527.151C562.104 525.342 565.185 522.911 567.827 520.509C568.3 520.081 568.915 519.845 569.552 519.844V519.844Z" fill="#263238"/>
<path d="M506.42 519.844H518.066C518.279 519.845 518.486 519.919 518.653 520.052C518.82 520.185 518.937 520.371 518.984 520.579L521.09 530.048C521.141 530.278 521.14 530.517 521.086 530.746C521.032 530.976 520.927 531.19 520.779 531.373C520.631 531.556 520.444 531.704 520.231 531.805C520.018 531.906 519.785 531.958 519.55 531.956C515.31 531.886 509.275 531.631 504.004 531.631C497.828 531.631 492.5 531.97 485.264 531.97C480.882 531.97 479.611 527.547 481.504 527.151C489.843 525.314 496.655 525.13 503.862 520.678C504.621 520.168 505.507 519.879 506.42 519.844V519.844Z" fill="#263238"/>
<path d="M523.125 256.536C522.065 264.79 520.907 273.086 519.677 281.339L515.988 306.439C515.416 309.491 514.192 312.384 512.399 314.919C510.776 317.198 508.812 319.215 506.576 320.897C502.635 323.77 498.253 325.985 493.602 327.455C489.331 328.855 484.948 329.886 480.501 330.536C478.31 330.875 476.134 331.101 473.943 331.285C471.753 331.468 469.633 331.582 467.301 331.582L466.58 323.611C470.382 322.734 474.41 321.717 478.183 320.459C481.922 319.296 485.576 317.879 489.122 316.219C492.35 314.758 495.346 312.83 498.011 310.495C499.054 309.549 499.946 308.448 500.654 307.231C501.189 306.277 501.521 305.223 501.629 304.136L502.039 298.186C502.181 296.066 502.378 293.946 502.562 291.854C502.93 287.643 503.349 283.441 503.82 279.248C504.739 270.867 505.827 262.543 507.127 254.19L523.125 256.536Z" fill="#FF8B7B"/>
<path d="M526.645 251.237C530.234 260.776 521.627 292.759 521.627 292.759L497.941 280.915C497.941 280.915 499.057 264.974 504.47 252.65C509.883 240.326 522.701 240.722 526.645 251.237Z" fill="#6B78E0"/>
<path opacity="0.3" d="M526.645 251.237C530.234 260.776 521.627 292.759 521.627 292.759L497.941 280.915C497.941 280.915 499.057 264.974 504.47 252.65C509.883 240.326 522.701 240.722 526.645 251.237Z" fill="black"/>
<path d="M472.247 322.635L460.616 323.413L466.057 335.892C468.241 335.831 470.348 335.072 472.07 333.726C473.792 332.381 475.037 330.52 475.625 328.416L472.247 322.635Z" fill="#FF8B7B"/>
<path d="M450.115 328.317L456.574 337.051L466.043 335.892L460.616 323.413L450.115 328.317Z" fill="#FF8B7B"/>
<path d="M503.523 496.398L505.163 510.729L515.762 510.093L514.179 496.398H503.523Z" fill="#EA7063"/>
<path d="M573.382 496.398H562.711L568.28 512.934L578.201 510.715L573.382 496.398Z" fill="#EA7063"/>
<path d="M513.982 243.887C513.982 243.887 501.403 276.082 513.346 336.047H570.371C570.767 327.285 565.269 284.59 573.707 243.336C567.406 242.12 561.033 241.317 554.627 240.934C546.55 240.46 538.453 240.46 530.376 240.934C524.842 241.488 519.361 242.476 513.982 243.887V243.887Z" fill="#6B78E0"/>
<path opacity="0.3" d="M513.982 243.887C513.982 243.887 501.403 276.082 513.346 336.047H570.371C570.767 327.285 565.269 284.59 573.707 243.336C567.406 242.12 561.033 241.317 554.627 240.934C546.55 240.46 538.453 240.46 530.376 240.934C524.842 241.488 519.361 242.476 513.982 243.887V243.887Z" fill="black"/>
<path d="M534.813 274.019C534.05 281.17 530.121 286.625 526.023 286.187C521.924 285.749 519.225 279.601 519.974 272.436C520.723 265.27 524.68 259.829 528.764 260.253C532.849 260.677 535.633 266.853 534.813 274.019Z" fill="#6B78E0"/>
<path opacity="0.1" d="M534.813 274.019C534.05 281.17 530.121 286.625 526.023 286.187C521.924 285.749 519.225 279.601 519.974 272.436C520.723 265.27 524.68 259.829 528.764 260.253C532.849 260.677 535.633 266.853 534.813 274.019Z" fill="white"/>
<path d="M562.09 263.052C563.955 253.639 567.573 255.264 571.021 259.9C569.548 272.38 568.868 284.941 568.986 297.507C566.64 293.522 558.98 278.824 562.09 263.052Z" fill="#6B78E0"/>
<path opacity="0.4" d="M562.09 263.052C563.955 253.639 567.573 255.264 571.021 259.9C569.548 272.38 568.868 284.941 568.986 297.507C566.64 293.522 558.98 278.824 562.09 263.052Z" fill="black"/>
<path d="M552.225 213.629C550.698 221.431 549.172 235.719 554.627 240.934C554.627 240.934 552.493 248.834 537.993 248.834C522.065 248.834 530.376 240.934 530.376 240.934C539.081 238.856 538.855 232.454 537.343 226.335L552.225 213.629Z" fill="#FF8B7B"/>
<path d="M546.148 218.816L537.343 226.335C537.718 227.723 537.969 229.142 538.092 230.574C541.413 230.094 545.978 226.448 546.331 222.971C546.531 221.587 546.468 220.177 546.148 218.816Z" fill="#EA7063"/>
<path d="M529.98 184.431C524.115 188.996 524.157 207.213 533.047 207.595C541.936 207.976 541.131 175.81 529.98 184.431Z" fill="#263238"/>
<path d="M554.486 204.415C551.391 214.534 550.091 220.611 543.632 224.639C533.937 230.702 522.433 222.957 522.433 212.117C522.433 202.351 527.507 187.455 538.544 185.774C540.972 185.4 543.455 185.653 545.758 186.508C548.06 187.362 550.107 188.791 551.703 190.657C553.3 192.524 554.393 194.767 554.88 197.175C555.367 199.582 555.232 202.074 554.486 204.415V204.415Z" fill="#FF8B7B"/>
<path d="M551.349 214.308C545.399 215.24 542.148 184.629 556.337 191.398C576.505 201.051 560.987 212.809 551.349 214.308Z" fill="#263238"/>
<path d="M551.914 194.211C544.579 193.575 533.965 193.886 531.662 184.827C528.453 172.192 543.561 170.326 547.292 179.993C556.281 177.039 581.042 192.472 564.549 200.302L551.914 194.211Z" fill="#263238"/>
<path d="M556.408 216.851C554.494 218.697 551.93 219.713 549.271 219.678C545.752 219.607 545.031 216.216 546.812 213.417C548.466 210.887 552.281 207.891 555.405 209.319C558.528 210.746 558.712 214.491 556.408 216.851Z" fill="#FF8B7B"/>
<path d="M513.346 336.033C513.346 336.033 471.767 393.653 472.94 426.158C474.141 459.978 500.979 506.715 500.979 506.715L518.32 502.744C518.32 502.744 501.064 462.027 501.87 428.815C502.746 392.607 550.84 364.03 550.84 336.104L513.346 336.033Z" fill="#263238"/>
<path d="M533.584 336.033C533.584 336.033 512.385 395.391 519.041 425.932C526.305 459.356 562.853 508.75 562.853 508.75L580.307 503.945C580.307 503.945 556.677 461.448 552.536 428.349C548.027 392.437 570.428 362.744 570.428 336.033H533.584Z" fill="#263238"/>
<path d="M560.196 511.181L585.296 506.517L584.038 499.776L555.899 504.539L560.196 511.181Z" fill="#6B78E0"/>
<path opacity="0.4" d="M560.196 511.181L585.296 506.517L584.038 499.776L555.899 504.539L560.196 511.181Z" fill="white"/>
<path d="M497.361 508.171L522.758 505.669L522.08 498.744L493.644 501.189L497.361 508.171Z" fill="#6B78E0"/>
<path opacity="0.4" d="M497.361 508.171L522.758 505.669L522.08 498.744L493.644 501.189L497.361 508.171Z" fill="white"/>
<path d="M538.219 203.553C538.021 204.386 537.414 204.966 536.806 204.824C536.198 204.683 535.972 203.906 536.184 203.072C536.396 202.238 536.99 201.659 537.527 201.8C538.064 201.941 538.459 202.719 538.219 203.553Z" fill="#263238"/>
<path d="M528.764 201.277C528.567 202.111 527.959 202.69 527.351 202.563C526.743 202.436 526.531 201.645 526.729 200.811C526.927 199.977 527.535 199.398 528.143 199.525C528.75 199.652 528.962 200.443 528.764 201.277Z" fill="#263238"/>
<path d="M531.662 202.422C530.071 204.735 528.168 206.818 526.009 208.612C526.482 209.158 527.068 209.593 527.727 209.889C528.387 210.184 529.102 210.332 529.824 210.322L531.662 202.422Z" fill="#FF5652"/>
<path d="M533.541 213.445C532.904 213.442 532.268 213.366 531.647 213.219C531.584 213.2 531.53 213.157 531.496 213.099C531.462 213.042 531.45 212.974 531.464 212.908C531.472 212.876 531.487 212.845 531.507 212.818C531.527 212.792 531.552 212.769 531.581 212.752C531.61 212.735 531.642 212.724 531.675 212.719C531.708 212.714 531.742 212.716 531.775 212.725C532.81 212.998 533.895 213.023 534.941 212.797C535.987 212.571 536.966 212.101 537.795 211.424C537.843 211.379 537.906 211.353 537.972 211.353C538.038 211.353 538.101 211.379 538.149 211.424C538.173 211.447 538.192 211.474 538.206 211.505C538.219 211.535 538.226 211.568 538.226 211.601C538.226 211.634 538.219 211.667 538.206 211.698C538.192 211.728 538.173 211.755 538.149 211.778C536.861 212.865 535.227 213.457 533.541 213.445V213.445Z" fill="#263238"/>
<path d="M541.908 201.192C541.812 201.192 541.718 201.164 541.638 201.111C541.557 201.059 541.494 200.984 541.456 200.896C541.218 200.308 540.844 199.785 540.365 199.37C539.886 198.955 539.315 198.659 538.7 198.507C538.567 198.485 538.448 198.41 538.37 198.3C538.292 198.19 538.26 198.054 538.283 197.921C538.305 197.788 538.38 197.669 538.49 197.591C538.6 197.513 538.736 197.481 538.869 197.504C539.65 197.683 540.376 198.047 540.986 198.566C541.596 199.086 542.072 199.744 542.374 200.486C542.402 200.546 542.418 200.611 542.42 200.677C542.423 200.744 542.412 200.81 542.388 200.872C542.364 200.934 542.328 200.99 542.282 201.038C542.236 201.086 542.181 201.124 542.12 201.15C542.055 201.184 541.981 201.199 541.908 201.192V201.192Z" fill="#263238"/>
<path d="M525.528 197.051C525.409 197.055 525.294 197.015 525.203 196.938C525.151 196.897 525.108 196.846 525.076 196.788C525.044 196.73 525.025 196.666 525.018 196.6C525.011 196.534 525.018 196.468 525.038 196.404C525.057 196.341 525.09 196.282 525.132 196.232C525.631 195.593 526.277 195.084 527.016 194.749C527.754 194.415 528.563 194.264 529.372 194.31C529.505 194.327 529.625 194.397 529.707 194.502C529.789 194.608 529.826 194.742 529.81 194.875C529.793 195.005 529.725 195.123 529.623 195.205C529.52 195.286 529.39 195.325 529.259 195.313C528.625 195.297 527.995 195.429 527.421 195.698C526.847 195.968 526.344 196.369 525.952 196.868C525.902 196.932 525.838 196.982 525.764 197.014C525.689 197.046 525.608 197.059 525.528 197.051V197.051Z" fill="#263238"/>
<path d="M386.508 401.459L348.252 406.014L348.419 407.417L386.675 402.862L386.508 401.459Z" fill="#6B78E0"/>
<path d="M415.912 397.922L400.155 399.815L400.323 401.218L416.081 399.325L415.912 397.922Z" fill="#6B78E0"/>
<path d="M634.191 307.525L294.892 347.984L302.043 407.948L641.342 367.489L634.191 307.525Z" fill="#6B78E0"/>
<path d="M584.095 329.934L428.226 348.521L431.511 376.068L587.38 357.482L584.095 329.934Z" fill="#6B78E0"/>
<path opacity="0.2" d="M584.095 329.934L428.226 348.521L431.511 376.068L587.38 357.482L584.095 329.934Z" fill="white"/>
<path d="M346.111 387.278C353.691 381.209 354.916 370.145 348.848 362.565C342.78 354.985 331.716 353.76 324.136 359.828C316.556 365.897 315.33 376.961 321.399 384.541C327.467 392.121 338.531 393.346 346.111 387.278Z" fill="#6B78E0"/>
<path opacity="0.2" d="M346.111 387.278C353.691 381.209 354.916 370.145 348.848 362.565C342.78 354.985 331.716 353.76 324.136 359.828C316.556 365.897 315.33 376.961 321.399 384.541C327.467 392.121 338.531 393.346 346.111 387.278Z" fill="white"/>
<path d="M398.784 378.425C404.701 370.727 403.258 359.689 395.56 353.771C387.862 347.853 376.824 349.297 370.906 356.995C364.989 364.693 366.432 375.731 374.13 381.649C381.828 387.566 392.866 386.123 398.784 378.425Z" fill="#6B78E0"/>
<path opacity="0.2" d="M398.784 378.425C404.701 370.727 403.258 359.689 395.56 353.771C387.862 347.853 376.824 349.297 370.906 356.995C364.989 364.693 366.432 375.731 374.13 381.649C381.828 387.566 392.866 386.123 398.784 378.425Z" fill="white"/>
<path d="M577.777 251.632C578.71 253.611 579.473 255.363 580.208 257.285C580.943 259.208 581.621 261.002 582.356 262.939C583.769 266.684 584.942 270.485 586.002 274.372C587.101 278.276 588.002 282.234 588.702 286.229L589.21 289.268L589.578 292.363C589.719 293.395 589.776 294.455 589.846 295.501L589.959 297.083V297.479V298.129C589.959 298.638 589.959 299.076 589.959 299.542C589.682 302.322 588.876 305.022 587.585 307.499C586.589 309.493 585.455 311.415 584.193 313.251C581.857 316.609 579.303 319.81 576.547 322.833C571.227 328.678 565.463 334.103 559.305 339.058L553.652 333.405C558.26 327.511 562.867 321.42 567.036 315.371C569.083 312.431 570.97 309.384 572.689 306.241C573.477 304.833 574.162 303.368 574.738 301.86C575.143 300.894 575.382 299.867 575.445 298.822C575.445 298.822 575.445 298.751 575.445 298.822C575.445 298.892 575.445 298.907 575.445 298.822V298.497L575.247 297.225C575.12 296.363 575.007 295.529 574.809 294.653L574.3 292.08L573.693 289.48C572.83 286.017 571.855 282.541 570.739 279.078C569.622 275.616 568.407 272.153 567.121 268.705C566.485 266.981 565.835 265.27 565.156 263.56L563.079 258.303L577.777 251.632Z" fill="#FF8B7B"/>
<path d="M575.94 244.043C585.451 247.703 592.277 282.498 592.277 282.498L569.665 291.416C569.665 291.416 562.075 273.934 559.517 261.002C556.832 247.392 565.142 239.93 575.94 244.043Z" fill="#6B78E0"/>
<path opacity="0.3" d="M575.94 244.043C585.451 247.703 592.277 282.498 592.277 282.498L569.665 291.416C569.665 291.416 562.075 273.934 559.517 261.002C556.832 247.392 565.142 239.93 575.94 244.043Z" fill="black"/>
<path d="M566.075 521.71C565.347 521.764 564.621 521.575 564.012 521.173C563.823 521.008 563.676 520.8 563.585 520.566C563.494 520.332 563.461 520.08 563.489 519.83C563.487 519.683 563.528 519.539 563.605 519.414C563.683 519.289 563.794 519.188 563.927 519.124C565.114 518.516 568.548 520.622 568.93 520.876C568.974 520.9 569.01 520.938 569.03 520.984C569.051 521.03 569.055 521.082 569.043 521.131C569.036 521.178 569.014 521.223 568.981 521.258C568.949 521.293 568.906 521.318 568.859 521.328C567.949 521.562 567.015 521.69 566.075 521.71ZM564.492 519.505C564.375 519.496 564.257 519.52 564.153 519.576C564.082 519.576 564.012 519.675 563.997 519.873C563.973 520.04 563.992 520.21 564.051 520.369C564.11 520.527 564.209 520.667 564.337 520.777C565.527 521.328 566.883 521.398 568.124 520.975C567.019 520.258 565.786 519.759 564.492 519.505V519.505Z" fill="#6B78E0"/>
<path d="M568.803 521.343C568.761 521.355 568.717 521.355 568.675 521.343C567.573 520.749 565.439 518.417 565.665 517.23C565.701 517.043 565.801 516.874 565.949 516.753C566.096 516.632 566.28 516.566 566.471 516.566C566.662 516.544 566.857 516.561 567.041 516.617C567.226 516.673 567.397 516.766 567.545 516.891C568.788 517.894 569.043 520.975 569.057 521.131C569.058 521.177 569.048 521.222 569.029 521.264C569.009 521.306 568.98 521.342 568.944 521.371C568.895 521.375 568.846 521.365 568.803 521.343V521.343ZM566.725 517.018H566.598C566.273 517.018 566.245 517.216 566.23 517.272C566.103 517.979 567.46 519.746 568.562 520.579C568.485 519.363 568.047 518.197 567.305 517.23C567.14 517.097 566.936 517.022 566.725 517.018Z" fill="#6B78E0"/>
<path d="M501.997 521.71C501.082 521.793 500.165 521.564 499.396 521.06C499.225 520.908 499.093 520.717 499.012 520.503C498.93 520.289 498.902 520.058 498.93 519.83C498.935 519.692 498.976 519.557 499.048 519.438C499.119 519.32 499.22 519.221 499.34 519.152C500.64 518.431 504.922 520.565 505.417 520.862C505.461 520.887 505.497 520.925 505.519 520.97C505.542 521.015 505.551 521.066 505.544 521.117C505.539 521.169 505.517 521.217 505.481 521.256C505.445 521.294 505.398 521.32 505.346 521.328C504.244 521.561 503.123 521.689 501.997 521.71V521.71ZM500.061 519.505C499.899 519.495 499.738 519.529 499.594 519.604C499.545 519.63 499.502 519.668 499.473 519.715C499.443 519.763 499.426 519.817 499.425 519.873C499.41 520.022 499.431 520.173 499.485 520.313C499.539 520.452 499.625 520.578 499.736 520.678C500.386 521.258 502.152 521.371 504.498 520.975C503.114 520.235 501.613 519.738 500.061 519.505V519.505Z" fill="#6B78E0"/>
<path d="M505.29 521.343H505.191C503.905 520.763 501.361 518.516 501.545 517.258C501.545 516.976 501.799 516.622 502.492 516.552C502.744 516.519 503 516.54 503.243 516.613C503.487 516.686 503.712 516.81 503.905 516.976C505.318 518.092 505.544 520.961 505.558 521.088C505.566 521.131 505.56 521.176 505.542 521.216C505.525 521.256 505.496 521.29 505.459 521.314C505.407 521.34 505.348 521.35 505.29 521.343ZM502.689 517.018H502.548C502.082 517.018 502.053 517.244 502.053 517.301C501.926 518.036 503.665 519.844 504.979 520.636C504.857 519.419 504.363 518.27 503.566 517.343C503.324 517.13 503.012 517.014 502.689 517.018Z" fill="#6B78E0"/>
<path d="M556.125 331.793L545.667 334.62L554.331 345.121C554.331 345.121 562.711 340.782 560.902 336.076L556.125 331.793Z" fill="#FF8B7B"/>
<path d="M538.092 343.34L545.667 351.565L554.331 345.107L545.667 334.606L538.092 343.34Z" fill="#FF8B7B"/>
<path d="M200.163 218.731C197.803 221.134 195.273 223.805 192.941 226.462C190.609 229.119 188.277 231.846 186.087 234.645C183.896 237.443 181.847 240.298 179.826 243.124L178.412 245.315L176.999 247.534C176.533 248.283 176.123 249.032 175.713 249.795L174.597 251.844C174.137 253.017 173.879 254.26 173.833 255.519C173.72 257.137 173.72 258.762 173.833 260.38C174.08 263.875 174.528 267.353 175.176 270.796C175.784 274.315 176.589 277.863 177.395 281.368C178.2 284.873 179.133 288.434 180.052 291.925L174.879 293.861C171.73 287.003 169.103 279.916 167.021 272.662C165.946 268.953 165.124 265.176 164.562 261.356C164.269 259.31 164.123 257.246 164.124 255.18C164.085 252.741 164.497 250.317 165.34 248.028C165.65 247.251 165.834 246.94 166.046 246.474L166.682 245.145C167.106 244.255 167.544 243.379 168.011 242.531L169.424 239.959L170.837 237.457C172.813 234.164 174.965 230.98 177.282 227.917C179.571 224.865 181.946 221.869 184.447 219.014C186.949 216.159 189.478 213.361 192.376 210.647L200.163 218.731Z" fill="#B55B52"/>
<path d="M200.756 201.899C193.195 202.238 186.002 214.802 186.002 214.802L194.948 233.062C194.948 233.062 209.547 223.932 209.731 212.838C209.844 205.63 208.204 201.56 200.756 201.899Z" fill="#6B78E0"/>
<path opacity="0.5" d="M200.756 201.899C193.195 202.238 186.002 214.802 186.002 214.802L194.948 233.062C194.948 233.062 209.547 223.932 209.731 212.838C209.844 205.63 208.204 201.56 200.756 201.899Z" fill="black"/>
<path d="M178.624 289.805L187.839 292.547L181.705 298.751C181.705 298.751 175.077 296.702 174.144 292.193L178.624 289.805Z" fill="#B55B52"/>
<path d="M193.407 299.627L191.867 305.563L181.705 298.751L187.839 292.547L193.407 299.627Z" fill="#B55B52"/>
<path d="M404.631 238.188L181.142 243.533L183.157 327.797L406.646 322.452L404.631 238.188Z" fill="#6B78E0"/>
<path opacity="0.6" d="M404.631 238.188L181.142 243.533L183.157 327.797L406.646 322.452L404.631 238.188Z" fill="white"/>
<path d="M393.399 245.17L310.081 247.162L310.832 278.571L394.15 276.578L393.399 245.17Z" fill="#6B78E0"/>
<path opacity="0.7" d="M393.399 245.17L310.081 247.162L310.832 278.571L394.15 276.578L393.399 245.17Z" fill="white"/>
<path d="M348.725 284.272L265.408 286.264L266.159 317.673L349.476 315.68L348.725 284.272Z" fill="#6B78E0"/>
<path opacity="0.7" d="M348.725 284.272L265.408 286.264L266.159 317.673L349.476 315.68L348.725 284.272Z" fill="white"/>
<path d="M252.977 174.057C252.836 174.919 253.175 175.711 253.74 175.81C254.306 175.909 254.885 175.315 255.04 174.396C255.196 173.478 254.828 172.743 254.263 172.63C253.698 172.517 253.048 173.181 252.977 174.057Z" fill="#263238"/>
<path d="M253.938 172.686L256.115 172.489C256.115 172.489 254.786 173.902 253.938 172.686Z" fill="#263238"/>
<path d="M253.5 175.032C253.953 177.161 254.69 179.219 255.691 181.152C255.189 181.382 254.645 181.501 254.094 181.501C253.542 181.501 252.998 181.382 252.497 181.152L253.5 175.032Z" fill="#A02724"/>
<path d="M255.026 168.517C254.941 168.515 254.858 168.491 254.786 168.447C254.214 168.115 253.572 167.922 252.912 167.883C252.252 167.843 251.592 167.959 250.984 168.22C250.924 168.252 250.858 168.271 250.791 168.277C250.723 168.282 250.655 168.274 250.59 168.253C250.526 168.232 250.466 168.199 250.415 168.154C250.364 168.11 250.322 168.055 250.292 167.994C250.258 167.936 250.236 167.87 250.229 167.803C250.221 167.735 250.227 167.667 250.247 167.602C250.267 167.537 250.3 167.477 250.344 167.425C250.388 167.374 250.443 167.332 250.504 167.302C251.26 166.963 252.086 166.807 252.914 166.849C253.742 166.891 254.548 167.128 255.267 167.542C255.326 167.573 255.379 167.616 255.422 167.668C255.465 167.72 255.498 167.78 255.517 167.844C255.537 167.908 255.544 167.976 255.537 168.043C255.53 168.11 255.511 168.175 255.479 168.235C255.438 168.32 255.374 168.392 255.294 168.442C255.214 168.492 255.121 168.518 255.026 168.517V168.517Z" fill="#263238"/>
<path d="M225.291 181.18C225.503 187.78 224.825 199.68 219.638 203.044C219.638 203.044 220.316 209.841 232.202 212.131C245.261 214.661 239.508 206.902 239.508 206.902C232.654 203.821 233.714 198.606 235.777 193.9L225.291 181.18Z" fill="#B55B52"/>
<path d="M260.877 219.692C261.697 222.985 262.729 226.589 263.859 229.981C264.99 233.373 266.262 236.765 267.689 240.029C269.083 243.243 270.708 246.351 272.551 249.329C274.235 252.156 276.283 254.75 278.642 257.045C279.734 258.068 280.938 258.964 282.232 259.716C282.834 260.075 283.462 260.387 284.112 260.649L284.705 260.875C284.862 260.921 285.023 260.949 285.186 260.96C286.319 260.985 287.442 260.743 288.464 260.253C289.898 259.61 291.266 258.829 292.549 257.921C298.298 253.605 303.516 248.624 308.095 243.082L312.702 246.149C311.727 247.929 310.724 249.555 309.664 251.208C308.604 252.862 307.473 254.445 306.272 256.013C303.864 259.26 301.132 262.253 298.117 264.945C296.46 266.404 294.65 267.678 292.718 268.747C290.402 270.061 287.804 270.797 285.143 270.895C284.362 270.898 283.581 270.832 282.811 270.697C282.09 270.561 281.382 270.367 280.691 270.118C279.573 269.731 278.487 269.258 277.441 268.705C275.414 267.647 273.517 266.357 271.788 264.861C265.075 259.024 260.976 251.816 257.655 244.608C255.986 241.012 254.527 237.322 253.288 233.556C251.999 229.79 250.923 225.954 250.066 222.066L260.877 219.692Z" fill="#B55B52"/>
<path d="M307.473 243.633L310.681 237.754L319.585 240.114C319.585 240.114 314.243 248.24 309.692 248.254L307.473 243.633Z" fill="#B55B52"/>
<path d="M317.931 235.634L324.701 240.114H319.585L310.667 237.754L317.931 235.634Z" fill="#B55B52"/>
<path d="M196.87 520.325L207.78 521.116L211.017 496.073L200.106 495.268L196.87 520.325Z" fill="#B55B52"/>
<path d="M111.027 466.451L118.56 474.549L139.01 459.907L131.463 451.809L111.027 466.451Z" fill="#B55B52"/>
<path d="M121.867 473.291L115.564 462.55C115.464 462.364 115.3 462.221 115.102 462.148C114.904 462.075 114.686 462.077 114.49 462.154L105.53 465.772C105.305 465.875 105.105 466.025 104.943 466.212C104.781 466.398 104.66 466.617 104.589 466.854C104.518 467.09 104.499 467.34 104.532 467.584C104.565 467.829 104.65 468.064 104.781 468.274C107.028 471.977 108.3 473.658 111.07 478.379C112.766 481.205 114.97 485.7 117.316 489.685C119.662 493.671 123.648 491.65 122.969 489.77C120.143 481.361 121.556 478.916 122.178 475.185C122.29 474.537 122.181 473.869 121.867 473.291Z" fill="#263238"/>
<path d="M208.459 519.576H196.206C195.993 519.57 195.786 519.641 195.622 519.776C195.458 519.911 195.349 520.101 195.315 520.311L193.619 530.02C193.587 530.262 193.607 530.507 193.677 530.741C193.748 530.974 193.867 531.189 194.028 531.373C194.189 531.556 194.387 531.703 194.609 531.804C194.831 531.904 195.071 531.956 195.315 531.956C199.555 531.885 201.661 531.631 207.06 531.631C210.381 531.631 217.235 531.984 221.814 531.984C226.393 531.984 226.747 527.448 224.853 527.038C216.373 525.201 213.052 522.657 210.225 520.24C209.73 519.823 209.106 519.588 208.459 519.576V519.576Z" fill="#263238"/>
<path d="M211.017 496.073L209.222 510.008L198.439 508.199L200.106 495.281L211.017 496.073Z" fill="#9E4541"/>
<path d="M131.463 451.809L139.01 459.907L130.545 465.97L122.729 458.056L131.463 451.809Z" fill="#9E4541"/>
<path d="M197.69 268.351L241.501 276.831C262.121 215.904 257.217 213.997 257.217 213.997C254.015 212.259 250.711 210.716 247.324 209.375L246.73 209.163C243.904 208.131 243.338 207.99 239.593 206.888C233.149 205.376 227.142 204.061 219.723 203.058L218.309 202.86C216.967 202.69 215.638 202.549 214.352 202.422C213.476 202.323 212.614 202.266 211.78 202.21L208.953 202.054C204.177 201.828 200.756 201.899 200.756 201.899C203.173 239.93 201.35 250.798 197.69 268.351Z" fill="#6B78E0"/>
<path opacity="0.5" d="M197.69 268.351L241.501 276.831C262.121 215.904 257.217 213.997 257.217 213.997C254.015 212.259 250.711 210.716 247.324 209.375L246.73 209.163C243.904 208.131 243.338 207.99 239.593 206.888C233.149 205.376 227.142 204.061 219.723 203.058L218.309 202.86C216.967 202.69 215.638 202.549 214.352 202.422C213.476 202.323 212.614 202.266 211.78 202.21L208.953 202.054C204.177 201.828 200.756 201.899 200.756 201.899C203.173 239.93 201.35 250.798 197.69 268.351Z" fill="black"/>
<path d="M248.327 232.511C247.072 238.878 247.515 245.463 249.613 251.604C253.246 239.704 255.267 231.564 256.425 225.995C253.076 225.557 249.5 226.645 248.327 232.511Z" fill="#6B78E0"/>
<path opacity="0.6" d="M248.327 232.511C247.072 238.878 247.515 245.463 249.613 251.604C253.246 239.704 255.267 231.564 256.425 225.995C253.076 225.557 249.5 226.645 248.327 232.511Z" fill="black"/>
<path d="M256.807 213.785C264.114 218.547 268.763 229.161 269.993 235.224L253.034 249.032C253.034 249.032 243.805 228.426 246.829 223.169C250.009 217.685 254.051 211.99 256.807 213.785Z" fill="#6B78E0"/>
<path opacity="0.5" d="M256.807 213.785C264.114 218.547 268.763 229.161 269.993 235.224L253.034 249.032C253.034 249.032 243.805 228.426 246.829 223.169C250.009 217.685 254.051 211.99 256.807 213.785Z" fill="black"/>
<path d="M224.217 166.044C223.129 176.785 222.422 181.307 226.916 187.794C233.672 197.56 247.154 196.952 251.451 186.848C255.323 177.76 256.468 161.719 246.716 155.473C244.642 154.062 242.235 153.216 239.734 153.018C237.233 152.821 234.724 153.278 232.453 154.344C230.182 155.411 228.229 157.051 226.784 159.103C225.34 161.154 224.455 163.547 224.217 166.044Z" fill="#B55B52"/>
<path d="M224.372 144.124C217.772 149.014 221.998 150.187 219.186 155.119C216.175 160.405 213.009 154.384 207.017 160.193C203.131 163.967 209.844 167.966 204.94 174.609C201.18 179.767 197.11 175.301 198.693 185.915C199.781 193.137 195.358 192.232 192.376 196.316C188.136 202.167 191.937 206.365 202.848 208.57C213.759 210.774 205.985 221.741 216.246 222.066C227.439 222.434 224.839 207.849 230.294 211.396C235.749 214.944 245.685 211.707 245.077 202.987C244.54 194.988 235.65 195.271 242.844 189.801C248.497 185.561 250.207 185.561 246.222 176.46C242.844 168.715 255.252 169.902 255.026 163.189C254.602 151.077 246.222 154.71 243.579 148.505C241.869 144.435 232.824 137.849 224.372 144.124Z" fill="#263238"/>
<path d="M245.091 171.641C245.147 173.648 245.823 175.588 247.027 177.195C248.695 179.47 250.659 178.877 251.14 176.785C251.578 174.905 251.239 171.457 249.105 169.874C246.971 168.291 245.105 169.393 245.091 171.641Z" fill="#B55B52"/>
<path d="M229.898 274.598C229.898 274.598 208.586 345.983 198.17 387.095C187.175 430.483 134.742 465.829 134.742 465.829L123.563 454.749C123.563 454.749 158.612 425.169 169.254 384.678C190.863 302.51 180.462 285.099 197.69 268.394L229.898 274.598Z" fill="#6B78E0"/>
<path opacity="0.8" d="M229.898 274.598C229.898 274.598 208.586 345.983 198.17 387.095C187.175 430.483 134.742 465.829 134.742 465.829L123.563 454.749C123.563 454.749 158.612 425.169 169.254 384.678C190.863 302.51 180.462 285.099 197.69 268.394L229.898 274.598Z" fill="white"/>
<path d="M135.717 467.454L121.74 453.562L125.542 449.35L142.543 463.822L135.717 467.454Z" fill="#6B78E0"/>
<path d="M219.892 289.805C205.901 300.588 204.968 341.686 205.293 360.257C212.359 334.295 220.839 305.422 225.729 288.717C224.386 287.586 222.464 287.812 219.892 289.805Z" fill="#6B78E0"/>
<path opacity="0.6" d="M219.892 289.805C205.901 300.588 204.968 341.686 205.293 360.257C212.359 334.295 220.839 305.422 225.729 288.717C224.386 287.586 222.464 287.812 219.892 289.805Z" fill="white"/>
<path d="M124.128 479.114C123.997 479.135 123.864 479.135 123.733 479.114C122.404 478.704 121.457 476.287 121.005 474.874C120.991 474.826 120.992 474.775 121.007 474.727C121.022 474.679 121.051 474.637 121.09 474.605C121.131 474.575 121.18 474.559 121.231 474.559C121.282 474.559 121.331 474.575 121.372 474.605C121.782 474.803 125.315 476.655 125.457 478.04C125.47 478.194 125.443 478.349 125.378 478.49C125.314 478.631 125.215 478.754 125.089 478.845C124.809 479.041 124.47 479.135 124.128 479.114V479.114ZM121.712 475.255C122.362 477.121 123.125 478.336 123.874 478.562C124.033 478.603 124.199 478.602 124.357 478.56C124.516 478.518 124.661 478.436 124.778 478.322C124.835 478.287 124.879 478.236 124.907 478.176C124.935 478.116 124.944 478.049 124.934 477.983C124.863 477.248 123.097 476.033 121.712 475.255Z" fill="#6B78E0"/>
<path d="M240.795 276.831C240.795 276.831 243.522 363.211 237.417 395.744C231.071 429.578 211.738 506.56 211.738 506.56L196.008 504.524C196.008 504.524 205.901 426.794 210.141 393.144C214.734 356.483 208.727 270.627 208.727 270.627L240.795 276.831Z" fill="#6B78E0"/>
<path opacity="0.8" d="M240.795 276.831C240.795 276.831 243.522 363.211 237.417 395.744C231.071 429.578 211.738 506.56 211.738 506.56L196.008 504.524C196.008 504.524 205.901 426.794 210.141 393.144C214.734 356.483 208.727 270.627 208.727 270.627L240.795 276.831Z" fill="white"/>
<path d="M215.087 507.45L192.658 504.567L192.927 499.239L217.334 500.299L215.087 507.45Z" fill="#6B78E0"/>
<path d="M124.482 475.708C123.318 475.7 122.171 475.439 121.118 474.945C121.082 474.918 121.052 474.884 121.03 474.845C121.008 474.806 120.995 474.763 120.991 474.718C120.994 474.672 121.009 474.627 121.033 474.588C121.058 474.548 121.092 474.515 121.132 474.492C121.245 474.422 123.959 472.881 125.372 473.376C125.567 473.437 125.746 473.539 125.897 473.676C126.048 473.812 126.168 473.98 126.248 474.167C126.353 474.348 126.392 474.559 126.358 474.765C126.325 474.971 126.221 475.16 126.065 475.298C125.598 475.608 125.04 475.752 124.482 475.708ZM121.825 474.704C123.054 475.199 125.188 475.411 125.754 474.902C125.853 474.832 125.937 474.69 125.754 474.379C125.708 474.257 125.634 474.148 125.538 474.059C125.443 473.971 125.328 473.906 125.202 473.87C124.018 473.797 122.839 474.088 121.825 474.704V474.704Z" fill="#6B78E0"/>
<path d="M212.515 521.484C211.365 521.459 210.22 521.327 209.095 521.088C209.042 521.078 208.994 521.052 208.956 521.014C208.919 520.977 208.893 520.929 208.883 520.876C208.874 520.822 208.883 520.767 208.909 520.718C208.934 520.67 208.975 520.631 209.024 520.608C209.519 520.353 213.942 518.12 215.257 518.869C215.378 518.938 215.481 519.036 215.555 519.154C215.629 519.273 215.672 519.408 215.681 519.548C215.708 519.783 215.676 520.022 215.587 520.242C215.498 520.461 215.355 520.655 215.172 520.805C214.39 521.33 213.452 521.569 212.515 521.484V521.484ZM209.957 520.721C212.359 521.116 214.197 521.017 214.833 520.424C214.951 520.322 215.043 520.193 215.1 520.048C215.157 519.902 215.176 519.745 215.158 519.59C215.159 519.533 215.145 519.478 215.117 519.428C215.09 519.378 215.05 519.337 215.002 519.307C214.281 518.912 211.78 519.859 209.957 520.721Z" fill="#6B78E0"/>
<path d="M209.165 521.088C209.119 521.101 209.07 521.101 209.024 521.088C208.986 521.061 208.956 521.025 208.936 520.983C208.916 520.941 208.907 520.894 208.911 520.848C208.911 520.65 209.49 515.916 212.091 516.198C212.798 516.269 213.009 516.636 213.052 516.919C213.25 518.148 210.607 520.523 209.278 521.159L209.165 521.088ZM211.893 516.665C210.31 516.665 209.688 519.265 209.505 520.367C210.918 519.562 212.656 517.696 212.543 516.961C212.543 516.961 212.543 516.721 212.034 516.679L211.893 516.665Z" fill="#6B78E0"/>
<path d="M197.463 265.68L194.849 269.185C194.637 269.468 194.948 269.835 195.457 269.934L241.346 278.824C241.741 278.909 242.109 278.824 242.165 278.527L243.211 274.711C243.211 274.443 242.971 274.16 242.547 274.075L198.227 265.482C198.093 265.444 197.952 265.443 197.818 265.477C197.684 265.512 197.561 265.582 197.463 265.68V265.68Z" fill="#6B78E0"/>
<path d="M202.594 271.757L201.406 271.531C201.18 271.531 201.011 271.319 201.053 271.178L202.466 266.231C202.466 266.09 202.735 266.005 202.961 266.048L204.148 266.274C204.388 266.274 204.544 266.486 204.502 266.627L203.088 271.574C203.06 271.715 202.834 271.8 202.594 271.757Z" fill="#6B78E0"/>
<path opacity="0.8" d="M202.594 271.757L201.406 271.531C201.18 271.531 201.011 271.319 201.053 271.178L202.466 266.231C202.466 266.09 202.735 266.005 202.961 266.048L204.148 266.274C204.388 266.274 204.544 266.486 204.502 266.627L203.088 271.574C203.06 271.715 202.834 271.8 202.594 271.757Z" fill="white"/>
<path d="M232.569 277.637L231.382 277.396C231.142 277.396 230.986 277.198 231.029 277.057L232.442 272.096C232.442 271.955 232.711 271.87 232.951 271.927L234.138 272.153C234.378 272.153 234.534 272.351 234.491 272.506L233.078 277.453C233.036 277.594 232.81 277.679 232.569 277.637Z" fill="#6B78E0"/>
<path opacity="0.8" d="M232.569 277.637L231.382 277.396C231.142 277.396 230.986 277.198 231.029 277.057L232.442 272.096C232.442 271.955 232.711 271.87 232.951 271.927L234.138 272.153C234.378 272.153 234.534 272.351 234.491 272.506L233.078 277.453C233.036 277.594 232.81 277.679 232.569 277.637Z" fill="white"/>
</svg>
