<svg xmlns="http://www.w3.org/2000/svg" width="808" height="796" fill="none" viewBox="0 0 808 796"><path fill="#F5F5F5" d="M118.186 727.529C-39.3953 636.546 -39.3953 489.022 118.186 398.11C275.767 307.197 531.267 307.127 688.901 398.11C846.534 489.092 846.482 636.616 688.901 727.529C531.32 818.442 275.784 818.529 118.186 727.529Z"/><path fill="#E0E0E0" d="M244.306 731.921C312.69 731.921 368.126 699.919 368.126 660.442C368.126 620.966 312.69 588.964 244.306 588.964C175.923 588.964 120.487 620.966 120.487 660.442C120.487 699.919 175.923 731.921 244.306 731.921Z"/><path fill="#E0E0E0" d="M530.49 627.035C616.349 580.727 667.27 508.551 644.226 465.825C621.182 423.098 532.899 426.002 447.04 472.309C361.18 518.617 310.259 590.793 333.303 633.52C356.347 676.246 444.631 673.342 530.49 627.035Z"/><path fill="#6B78E0" d="M615.923 525.537C633.091 505.075 659.985 491.741 690.225 483.863C720.1 476.107 725.451 457.719 705.651 451.775C683.219 445.013 655.227 457.422 637.17 474.695C605.727 504.796 601.77 527.786 601.77 527.786L615.923 525.537Z"/><path fill="#000" d="M615.923 525.537C633.091 505.075 659.985 491.741 690.225 483.863C720.1 476.107 725.451 457.719 705.651 451.775C683.219 445.013 655.227 457.422 637.17 474.695C605.727 504.796 601.77 527.786 601.77 527.786L615.923 525.537Z" opacity=".15"/><path fill="#fff" d="M607.086 524.3C606.96 524.326 606.829 524.326 606.703 524.3C606.6 524.25 606.507 524.18 606.431 524.094C606.355 524.008 606.297 523.908 606.26 523.799C606.223 523.691 606.207 523.576 606.214 523.461C606.222 523.347 606.251 523.235 606.302 523.132C631.784 470.843 688.221 457.98 701.886 458.956C702.114 458.974 702.326 459.081 702.476 459.254C702.626 459.427 702.702 459.652 702.688 459.88C702.665 460.11 702.555 460.322 702.379 460.471C702.204 460.621 701.977 460.696 701.746 460.682C688.36 459.671 632.952 472.412 607.871 523.899C607.785 524.027 607.668 524.131 607.53 524.201C607.393 524.271 607.24 524.305 607.086 524.3V524.3Z"/><path fill="#6B78E0" d="M601.77 530.975C601.771 531.816 601.995 532.641 602.419 533.367C602.843 534.094 603.451 534.694 604.183 535.109C604.914 535.523 605.742 535.736 606.583 535.727C607.424 535.717 608.247 535.485 608.969 535.054C624.934 525.764 648.22 520.622 685.903 531.359C705.947 537.058 715.812 533.241 720.03 525.084C724.736 516.021 714.801 507.254 703.472 503.123C664.9 489.022 630.093 498.643 601.77 526.775V530.975Z"/><path fill="#fff" d="M603.984 531.725C603.86 531.727 603.737 531.703 603.623 531.655C603.509 531.607 603.406 531.536 603.321 531.446C603.161 531.28 603.071 531.058 603.071 530.827C603.071 530.596 603.161 530.374 603.321 530.208C636.629 500.439 688.221 506.243 707.742 517.851C707.94 517.967 708.084 518.157 708.143 518.379C708.201 518.601 708.17 518.837 708.056 519.036C707.936 519.235 707.743 519.379 707.519 519.438C707.294 519.497 707.055 519.465 706.853 519.35C687.681 507.968 637.135 502.304 604.489 531.551C604.341 531.656 604.165 531.717 603.984 531.725V531.725Z"/><path fill="#6B78E0" d="M229.108 600.38C214.467 578.035 189.333 561.617 160.226 550.235C131.502 539.01 128.347 520.134 148.705 516.544C171.782 512.482 198.118 528.117 214.014 547.394C241.692 580.998 242.895 604.337 242.895 604.337L229.108 600.38Z"/><path fill="#000" d="M229.108 600.38C214.467 578.035 189.333 561.617 160.226 550.235C131.502 539.01 128.347 520.134 148.705 516.544C171.782 512.482 198.118 528.117 214.014 547.394C241.692 580.998 242.895 604.337 242.895 604.337L229.108 600.38Z" opacity=".15"/><path fill="#fff" d="M237.962 600.241C238.089 600.265 238.219 600.265 238.345 600.241C238.563 600.162 238.741 600.001 238.842 599.792C238.943 599.584 238.959 599.345 238.886 599.125C219.713 544.204 165.263 524.77 151.529 524.178C151.3 524.168 151.077 524.249 150.908 524.402C150.738 524.555 150.636 524.769 150.622 524.997C150.617 525.229 150.701 525.454 150.857 525.625C151.012 525.797 151.228 525.903 151.459 525.921C164.88 526.478 218.389 545.668 237.23 599.753C237.298 599.892 237.401 600.01 237.53 600.096C237.659 600.181 237.808 600.231 237.962 600.241Z"/><path fill="#6B78E0" d="M243.017 603.273C242.88 604.512 242.426 605.694 241.7 606.707C240.973 607.719 239.997 608.527 238.867 609.052C237.738 609.578 236.491 609.803 235.249 609.707C234.006 609.611 232.81 609.196 231.774 608.502C216.994 598.602 194.981 592.171 158.919 598.044C138.352 601.339 129.01 596.302 125.803 587.778C122.212 578.227 133.123 570.715 144.853 567.944C184.819 558.497 218.249 572.162 243.051 603.413L243.017 603.273Z"/><path fill="#fff" d="M240.263 607.962C240.384 607.979 240.508 607.969 240.626 607.933C240.743 607.897 240.852 607.835 240.943 607.753C241.103 607.587 241.193 607.365 241.193 607.134C241.193 606.903 241.103 606.681 240.943 606.515C211.312 573.033 159.459 572.702 138.7 581.922C138.488 582.017 138.322 582.192 138.238 582.409C138.155 582.627 138.161 582.868 138.256 583.081C138.351 583.294 138.526 583.46 138.743 583.543C138.961 583.627 139.202 583.62 139.415 583.526C159.755 574.48 210.65 574.811 239.635 607.665C239.711 607.759 239.807 607.834 239.915 607.885C240.024 607.936 240.143 607.963 240.263 607.962V607.962Z"/><path fill="#37474F" d="M631.557 202.149L631.279 202.009L564.837 163.769L564.436 163.577C533.394 147.89 491.981 152.614 447.431 181.407C357.947 239.274 289.763 372.471 295.131 478.913C297.798 531.952 318.26 568.327 349.163 584.327L349.424 584.467L415.883 622.725L416.197 622.899C447.239 638.586 488.687 633.932 533.272 605.104C622.755 547.237 690.94 414.04 685.572 307.598C682.94 254.525 662.478 218.149 631.557 202.149Z"/><path fill="#263238" d="M413.6 621.487L349.512 584.432L349.198 584.24C318.295 568.205 297.85 531.83 295.166 478.861C292.778 431.383 305.031 378.623 327.236 329.629L327.672 328.548L393.696 367.869C371.455 416.864 359.237 469.623 361.625 517.102C364.152 569.024 383.796 604.964 413.6 621.487Z"/><path fill="#455A64" d="M533.307 605.069C622.79 547.202 690.975 414.005 685.607 307.563C680.238 201.12 603.339 161.764 513.855 219.63C424.372 277.497 356.17 410.694 361.538 517.119C366.906 623.544 443.823 662.935 533.307 605.069Z"/><path fill="#37474F" d="M609.091 193.887L496.931 424.951L472.791 398.807C465.593 391.313 455.743 386.94 445.357 386.629C434.971 386.318 424.877 390.092 417.243 397.142C409.609 404.191 405.044 413.954 404.53 424.332C404.015 434.71 407.591 444.876 414.489 452.647L478.09 521.546C485.083 529.144 494.776 533.699 505.088 534.235C505.82 534.235 506.552 534.235 507.284 534.235C509.209 534.233 511.131 534.093 513.036 533.816C519.438 532.884 525.515 530.399 530.734 526.577C535.954 522.754 540.159 517.712 542.98 511.89L671.611 246.96C658.416 217.539 636.455 199.308 609.091 193.887Z"/><path fill="#6B78E0" d="M700.178 117.789C699.481 117.388 698.749 117.005 698.016 116.656C689.796 112.673 680.331 112.113 671.698 115.1C663.065 118.086 655.969 124.375 651.967 132.587L509.254 426.555L501.132 417.84C498.787 415.279 496.059 413.097 493.044 411.373C488.791 408.933 470.7 398.458 467.771 396.767C460.634 392.638 452.253 391.205 444.149 392.729C436.046 394.252 428.757 398.631 423.607 405.07C418.456 411.509 415.785 419.582 416.079 427.822C416.373 436.062 419.612 443.924 425.208 449.98L488.809 518.862C491.193 521.449 493.962 523.654 497.018 525.398C501.167 527.751 519.189 538.209 522.152 539.917C526.25 542.29 530.794 543.793 535.499 544.332C540.204 544.871 544.97 544.434 549.499 543.049C554.028 541.663 558.222 539.359 561.821 536.28C565.42 533.202 568.345 529.414 570.414 525.154L739.255 177.381C743.051 169.543 743.743 160.559 741.192 152.232C738.642 143.905 733.037 136.85 725.503 132.482L700.178 117.789Z"/><path fill="#000" d="M700.178 117.789C699.481 117.388 698.749 117.005 698.016 116.656C689.796 112.673 680.331 112.113 671.698 115.1C663.065 118.086 655.969 124.375 651.967 132.587L509.254 426.555L501.132 417.84C498.787 415.279 496.059 413.097 493.044 411.373C488.791 408.933 470.7 398.458 467.771 396.767C460.634 392.638 452.253 391.205 444.149 392.729C436.046 394.252 428.757 398.631 423.607 405.07C418.456 411.509 415.785 419.582 416.079 427.822C416.373 436.062 419.612 443.924 425.208 449.98L488.809 518.862C491.193 521.449 493.962 523.654 497.018 525.398C501.167 527.751 519.189 538.209 522.152 539.917C526.25 542.29 530.794 543.793 535.499 544.332C540.204 544.871 544.97 544.434 549.499 543.049C554.028 541.663 558.222 539.359 561.821 536.28C565.42 533.202 568.345 529.414 570.414 525.154L739.255 177.381C743.051 169.543 743.743 160.559 741.192 152.232C738.642 143.905 733.037 136.85 725.503 132.482L700.178 117.789Z" opacity=".15"/><path fill="#000" d="M522.065 539.847C519.136 538.104 501.149 527.646 496.949 525.328C493.893 523.583 491.125 521.379 488.739 518.792L425.139 449.91C422.334 446.85 420.108 443.307 418.568 439.453L443.858 454.041C445.391 457.907 447.632 461.454 450.464 464.499L514.047 533.381C516.387 535.919 519.088 538.098 522.065 539.847V539.847Z" opacity=".15"/><path fill="#000" d="M685.258 136.596C681.935 139.578 679.224 143.177 677.275 147.193L530.483 449.562L509.254 426.555L651.967 132.587C653.912 128.564 656.631 124.963 659.968 121.99L685.258 136.596Z" opacity=".15"/><path fill="#6B78E0" d="M723.324 131.262C715.102 127.288 705.64 126.733 697.01 129.719C688.38 132.705 681.284 138.988 677.275 147.193L530.483 449.562L501.149 417.77C494.871 411.393 486.358 407.71 477.412 407.5C468.467 407.29 459.79 410.571 453.221 416.646C446.651 422.722 442.704 431.116 442.216 440.051C441.727 448.986 444.735 457.761 450.603 464.516L514.186 533.416C517.993 537.533 522.747 540.66 528.035 542.524C533.324 544.388 538.988 544.934 544.535 544.113C550.082 543.292 555.345 541.13 559.867 537.814C564.389 534.498 568.033 530.128 570.484 525.084L739.325 177.311C743.303 169.082 743.853 159.61 740.853 150.976C737.853 142.342 731.548 135.252 723.324 131.262V131.262Z"/><path fill="#9E6767" d="M241.849 165.25C228.55 165.25 219.452 168.736 210.005 182.157C201.29 194.497 177.516 235.631 177.516 235.631C177.516 235.631 160.087 199.865 158.344 192.737C156.601 185.608 156.705 182.436 158.344 179.333C160.742 175.666 162.247 171.487 162.736 167.132C163.416 158.557 165.507 151.219 163.59 150.975C158.274 150.679 158.065 157.511 155.276 161.538C154.922 161.926 154.481 162.226 153.989 162.412C153.498 162.599 152.969 162.667 152.446 162.611C151.923 162.555 151.421 162.376 150.98 162.09C150.539 161.804 150.171 161.417 149.908 160.962C148.74 158.575 149.367 154.653 148.81 151.829C148.961 150.258 149.211 148.698 149.559 147.158C151.572 147.52 153.629 147.579 155.659 147.332C157.96 150.94 159.529 152.457 162.736 150.993C163.154 150.33 161.359 145.764 159.25 142.278C158.933 141.745 158.42 141.357 157.821 141.197C153.954 140.218 149.919 140.105 146.003 140.866C145.707 140.896 145.421 140.986 145.16 141.13C144.899 141.274 144.671 141.468 144.487 141.703C143.016 143.859 141.843 146.204 141.001 148.675C140.775 149.424 140.077 149.407 139.903 148.762C138.16 140.343 138.16 128.386 138.16 122.792C138.16 118.382 131.729 117.685 131.502 123.994C131.12 132.46 131.265 140.941 131.938 149.389C131.938 150.156 131.171 150.522 130.857 149.685C129.742 146.705 127.005 137.694 125.855 122.147C125.541 117.964 118.778 117.284 118.883 123.158C119.148 133.571 120.503 143.929 122.927 154.06C123.136 154.792 122.456 155.437 121.951 154.601C118.778 148.486 116.243 142.062 114.386 135.428C112.939 130.373 106.194 131.663 107.414 137.955C109.523 149.232 112.87 163.49 117.872 173.686C123.206 184.579 127.807 190.035 130.456 198.593C133.106 207.151 144.069 255.623 155.799 274.516C164.984 289.331 175.494 287.954 186.806 280.146C198.118 272.338 238.537 216.023 238.537 216.023L241.849 165.25Z"/><path fill="#874C4C" d="M177.516 235.613C177.516 235.613 183.181 245.217 184.052 252.904C185.492 245.44 184.06 237.709 180.043 231.256L177.516 235.613Z"/><path fill="#455A64" d="M244.672 165.25C237.91 164.553 229.491 164.326 220.114 170.235C210.737 176.144 207.46 184.37 202.911 191.569C198.362 198.767 182.64 224.267 182.64 224.267C182.64 224.267 188.41 248.476 211.347 253.461L245.701 206.855L244.672 165.25Z"/><path fill="#263238" d="M275.471 590.933C277.214 590.707 279.532 596.65 279.567 598.585C279.601 600.52 277.649 604.685 275.087 608.589C271.662 613.237 268.823 618.289 266.634 623.631C264.664 629 262.852 632.52 257.361 639.544C251.261 647.37 236.934 660.46 215.182 654.778C209.866 653.384 207.216 651.71 205.282 649.776C204.433 648.918 203.841 647.84 203.573 646.663C203.305 645.486 203.371 644.258 203.765 643.118L275.471 590.933Z"/><path fill="#37474F" d="M232.733 584.136V584.327C232.484 585.955 232.531 587.614 232.873 589.225C233.47 594.025 233.045 598.897 231.624 603.52C230.203 608.144 227.819 612.414 224.628 616.049C221.598 619.212 218.178 621.977 214.449 624.276C203.434 631.248 202.249 636.006 203.8 643.117C207.495 651.397 232.472 656.434 246.834 644.111C253.031 639.3 257.768 632.861 260.516 625.514C262.6 620.25 265.022 615.127 267.767 610.175C270.538 604.947 275.802 599.055 275.959 593.67C276.046 590.707 273.118 585.199 270.276 580.667C267.662 576.502 264.96 572.545 262.607 572.998L263.27 575.351C261.3 577.39 258.459 578.157 256.751 580.58C254.625 583.526 254.694 587.552 253.387 590.864C253.345 591.034 253.265 591.193 253.153 591.328C253.041 591.464 252.901 591.573 252.742 591.648C252.558 591.679 252.369 591.65 252.203 591.565C252.037 591.48 251.902 591.344 251.819 591.177C251.676 590.835 251.611 590.467 251.627 590.097L251.47 585.025C251.548 584.05 251.29 583.078 250.738 582.271C249.378 580.737 246.032 580.911 244.167 580.841C241.657 580.861 239.149 581.012 236.655 581.295C235.79 581.209 234.924 581.438 234.215 581.94C233.502 582.498 232.984 583.266 232.733 584.136V584.136Z"/><path fill="#9E6767" d="M195.817 482.8C201.621 501.885 228.759 567.961 230.38 571.935L235.783 585.042C239.341 586.212 243.154 586.375 246.799 585.513C247.374 591.84 248.333 601.757 248.699 606.759C248.838 612.563 249.344 619.744 248.089 625.479C247.025 630.359 245.788 635.483 244.864 640.381C244.463 642.542 244.062 644.721 243.731 646.9C243.169 649.182 243.358 651.584 244.271 653.75C244.828 654.695 245.561 655.524 246.433 656.19C250.304 659.231 255.197 660.666 260.098 660.199C262.689 660.074 265.196 659.242 267.348 657.793C271.566 654.778 273.048 649.532 275.192 645.07C277.527 640.242 276.778 639.701 276.935 634.525C277.074 630.899 278.085 621.697 279.532 612.075C280.978 602.454 287.218 568.641 290.216 534.949C291.438 519.985 291.438 504.946 290.216 489.981C314.025 425.3 324.622 386.833 327.742 365.359C330.897 343.537 329.38 335.729 328.979 323.197L213.195 325.986C203.922 385.839 188.026 457.213 195.817 482.8Z"/><path fill="#6B78E0" d="M194.005 435.043C196.392 413.047 212.846 328.496 212.846 328.496H329.485C329.485 328.496 330.234 344.723 330.025 352.183C329.816 359.642 327.411 373.255 323.245 390.528C319.079 407.8 303.637 456.551 300.587 463.732C297.536 470.913 291.872 491.741 291.872 491.741C294.73 530.853 287.288 565.957 281.71 612.616C281.71 612.616 280.089 618.908 263.566 617.67C247.496 616.45 244.254 610.524 244.254 610.524L243.191 570.279C243.191 570.279 234.476 572.963 229.247 571.743C229.247 571.743 194.719 486.495 193.046 481.371C191.373 476.246 191.617 457.039 194.005 435.043Z"/><path fill="#000" d="M194.005 435.043C196.392 413.047 212.846 328.496 212.846 328.496H329.485C329.485 328.496 330.234 344.723 330.025 352.183C329.816 359.642 327.411 373.255 323.245 390.528C319.079 407.8 303.637 456.551 300.587 463.732C297.536 470.913 291.872 491.741 291.872 491.741C294.73 530.853 287.288 565.957 281.71 612.616C281.71 612.616 280.089 618.908 263.566 617.67C247.496 616.45 244.254 610.524 244.254 610.524L243.191 570.279C243.191 570.279 234.476 572.963 229.247 571.743C229.247 571.743 194.719 486.495 193.046 481.371C191.373 476.246 191.617 457.039 194.005 435.043Z" opacity=".45"/><path fill="#000" d="M243.487 383.608C226.964 368.723 223.286 356.871 223.286 356.871C231.594 366.23 241.43 374.11 252.376 380.174C252.376 380.174 236.69 463 237.84 480.029C238.99 497.057 243.191 570.279 243.191 570.279C243.191 570.976 232.071 492.839 231.74 486.617C230.99 470.146 243.487 383.608 243.487 383.608Z" opacity=".2"/><path fill="#263238" d="M279.793 654.081C281.414 654.551 281.205 659.397 280.473 661.209C278.659 664.372 276.09 667.037 272.996 668.966C268.461 672.054 264.678 676.122 261.928 680.87C257.452 687.715 251.533 693.498 244.585 697.812C235.331 703.062 224.424 704.589 214.083 702.082C203.138 698.979 202.127 696.295 202.214 692.164L279.793 654.081Z"/><path fill="#455A64" d="M245.98 628.738C243.104 642.682 238.101 652.93 226.511 661.54C217.273 668.408 210.58 671.894 203.207 678.011C200.087 680.626 199.826 686.186 202.214 692.182C207.199 696.173 214.275 698.474 223.774 698.456C234.406 698.456 238.485 696.557 244.585 692.391C247.582 690.343 250.372 688.008 252.917 685.419C258.024 680.295 261.631 673.968 265.257 669.907C268.882 665.846 276.917 661.697 279.2 656.8C280.455 654.115 279.933 647.893 279.096 642.595C278.329 637.732 279.81 629.191 277.475 628.651L277.144 632.137C276.952 632.921 276.464 633.322 274.826 633.88C273.353 634.199 271.834 634.24 270.346 634.002C269.818 633.81 269.242 633.79 268.701 633.943C268.16 634.096 267.681 634.416 267.331 634.856C265.762 636.703 265.344 639.318 263.322 640.852C263.191 640.966 263.036 641.05 262.869 641.096C262.791 641.139 262.703 641.161 262.614 641.157C262.525 641.154 262.438 641.127 262.363 641.078C262.309 640.994 262.274 640.899 262.259 640.8C262.244 640.701 262.25 640.6 262.276 640.503L262.851 635.274C262.921 634.754 262.921 634.226 262.851 633.705C262.742 633.22 262.53 632.763 262.229 632.366C261.929 631.969 261.547 631.642 261.109 631.405C259.641 630.55 258.063 629.899 256.42 629.47C254.71 629.006 252.959 628.708 251.191 628.581C249.457 628.359 247.698 628.412 245.98 628.738Z"/><path fill="#6B78E0" d="M318.957 170.252C318.957 170.252 323.751 176.841 327.672 190.418C332.446 212.717 334.899 235.451 334.993 258.255C334.993 289.053 330.844 338.954 330.844 338.954C295.096 356.871 237.439 346.274 212.062 328.792C213.09 323.249 213.961 294.107 215.966 274.882C217.308 241.906 218.423 224.633 218.65 209.957C219.121 180.64 233.709 165.494 244.794 165.268L272.786 165.703L318.957 170.252Z"/><path fill="#874C4C" d="M327.777 329.908C322.461 334.282 312.09 342.683 310.121 346.919C307.924 351.764 306.635 359.12 305.153 361.873C303.672 364.627 305.903 366.022 308.97 365.028C312.038 364.035 313.868 361.438 316.238 355.093C318.609 348.749 325.197 343.782 325.197 343.782L327.777 329.908Z"/><path fill="#9E6767" d="M308.36 386.955C309.633 389.412 312.596 389.43 315.332 389.639C318.668 390.021 322.048 389.64 325.215 388.523C329.02 387.424 332.359 385.103 334.714 381.918C337.398 378.048 338.095 373.203 339.629 368.758C342.836 359.433 352.387 352.706 353.956 342.823C354.601 338.744 354.601 333.934 355.699 331.407C356.379 329.908 372.083 302.874 377.695 291.162C383.063 279.902 387.09 274.603 382.209 261.078C377.329 247.553 360.719 199.952 348.954 183.412C342.296 174.035 331.716 171.351 318.888 170.252C309.127 195.665 320.474 221.931 320.474 221.931L346.374 271.745C346.374 271.745 336.335 306.046 330.06 325.114C328.317 330.343 324.831 333.69 320.84 339.564C319.097 342.108 315.158 346.535 313.763 349.307C312.02 352.793 312.02 355.093 311.149 360.026C309.789 367.887 307.68 385.787 308.36 386.955Z"/><path fill="#455A64" d="M317.58 170.113C324.326 170.374 334.017 171.525 339.803 174.453C345.59 177.381 349.616 180.989 356.274 194.34C362.932 207.691 372.675 233.626 372.675 233.626C372.675 233.626 369.451 253.2 338.496 258.272L317.58 219.7C317.58 219.7 308.256 195.665 317.58 170.113Z"/><path fill="#37474F" d="M237.16 107.82C238.075 109.473 238.867 111.192 239.531 112.961C240.562 115.273 241.879 117.445 243.452 119.428C247.461 124.047 253.091 127.428 258.233 130.705C261.335 132.692 264.891 134.557 268.69 134.016C272.49 133.476 276.725 134.295 280.647 134.644L294.364 135.881L293.597 150.295C293.597 150.295 295.34 146.478 297.624 141.912C299.611 137.99 307.942 118.103 307.977 118.016C312.108 108.168 317.005 95.0262 312.073 84.673C310.951 82.1236 309.078 79.9771 306.704 78.5204C307.182 76.9287 307.336 75.2575 307.158 73.6052C306.883 71.2596 306.086 69.0053 304.825 67.0085C303.565 65.0116 301.872 63.3229 299.872 62.0669C295.968 59.4287 291.568 57.6139 286.939 56.7334C280.8 55.3213 274.519 54.6252 268.22 54.6593C262.048 54.8476 255.903 55.5531 249.849 56.7683C246.472 57.392 243.051 57.7475 239.618 57.8315C238.139 57.9284 236.654 57.8582 235.191 57.6223C233.372 57.0788 231.586 56.4329 229.84 55.6876C229.688 55.6239 229.525 55.591 229.361 55.591C229.196 55.591 229.033 55.6239 228.881 55.6876C228.743 55.7796 228.626 55.9004 228.539 56.0418C228.451 56.1832 228.396 56.3419 228.376 56.5068C227.922 58.6828 227.941 60.9307 228.432 63.0987C228.922 65.2667 229.871 67.3042 231.217 69.0736C230.433 68.9665 229.669 68.7433 228.951 68.4112C228.136 68.0338 227.349 67.5969 226.598 67.104C225.319 66.2464 224.198 65.173 223.286 63.9318C223.161 63.7373 222.969 63.5949 222.746 63.5309C222.397 63.5309 222.118 63.775 221.909 64.0538C220.969 65.4528 220.328 67.0316 220.028 68.6905C219.728 70.3495 219.775 72.0526 220.166 73.6924C220.935 76.9838 222.49 80.0399 224.698 82.5989C223.621 84.3393 222.999 86.3226 222.889 88.3663C222.78 90.4101 223.186 92.4486 224.071 94.2942C224.846 95.9311 225.888 97.4273 227.156 98.7213C228.724 100.325 230.642 101.632 232.228 103.131C234.046 104.499 235.702 106.072 237.16 107.82Z"/><path fill="#9E6767" d="M278.939 83.8015C278.888 86.4044 279.223 89.0005 279.932 91.5054C280.76 93.7058 282.091 95.6817 283.819 97.2746C285.775 98.9335 287.582 100.759 289.222 102.73C290.993 105.798 292.031 109.234 292.255 112.77C292.265 113.811 292.508 114.837 292.967 115.772C293.425 116.707 294.087 117.527 294.905 118.173C298.634 120.491 300.865 116.011 302.852 113.815C305.415 111.445 313.031 108.586 316.552 116.639C320.195 125.005 313.467 136.09 307.349 137.798C296.804 140.744 294.504 133.563 294.504 133.563L292.482 171.211C286.538 182.488 272.56 186.078 263.374 184.283C255.444 182.732 251.086 177.172 258.546 169.119L258.947 157.651C258.947 157.651 249.431 158.784 244.847 157.912C237.195 156.483 233.413 149.982 231.339 141.598C228.045 128.125 226.528 113.955 230.624 83.6098C232.489 82.5815 240.036 88.4552 251.54 89.2396C260.995 89.906 270.455 88.0283 278.939 83.8015V83.8015Z"/><path fill="#874C4C" d="M258.878 157.616C258.878 157.616 276.133 154.723 282.233 151.725C285.813 150.001 288.79 147.237 290.774 143.794C289.755 147.271 288.048 150.507 285.754 153.311C281.187 158.766 258.721 162.183 258.721 162.183L258.878 157.616Z"/><path fill="#263238" d="M267.854 97.2747L275.889 99.7323C276.196 98.6346 276.066 97.4607 275.527 96.4566C274.988 95.4525 274.08 94.6963 272.996 94.3465C272.466 94.1912 271.91 94.1443 271.361 94.2083C270.813 94.2724 270.283 94.4463 269.803 94.7195C269.323 94.9928 268.904 95.3598 268.569 95.7988C268.234 96.2378 267.991 96.7397 267.854 97.2747V97.2747Z"/><path fill="#874C4C" d="M265.065 135.341L253.23 139.35C253.461 140.141 253.848 140.877 254.368 141.516C254.889 142.155 255.532 142.682 256.26 143.068C256.989 143.453 257.787 143.688 258.608 143.759C259.429 143.83 260.255 143.735 261.039 143.481C262.631 142.906 263.94 141.738 264.69 140.221C265.441 138.704 265.575 136.955 265.065 135.341V135.341Z"/><path fill="#F28F8F" d="M264.106 138.234C262.562 138.235 261.061 138.75 259.84 139.696C258.619 140.642 257.747 141.967 257.361 143.463C258.556 143.856 259.844 143.856 261.039 143.463C262.141 143.073 263.117 142.39 263.86 141.487C264.603 140.584 265.086 139.496 265.257 138.339C264.877 138.27 264.492 138.235 264.106 138.234V138.234Z"/><path fill="#263238" d="M231.984 98.5471L240.158 97.4839C240.096 96.9546 239.929 96.4432 239.666 95.9797C239.403 95.5162 239.05 95.11 238.628 94.7851C238.205 94.4602 237.722 94.2232 237.207 94.088C236.691 93.9528 236.154 93.9222 235.626 93.9979C234.549 94.1377 233.567 94.6897 232.888 95.538C232.209 96.3863 231.884 97.4649 231.984 98.5471V98.5471Z"/><path fill="#263238" d="M282.233 102.033L309.197 111.218C307.686 111.236 306.199 111.6 304.851 112.283C303.504 112.966 302.331 113.949 301.423 115.157L282.338 107.907L282.233 102.033Z"/><path fill="#263238" d="M236.01 112.56C235.979 112.994 236.036 113.43 236.176 113.841C236.316 114.253 236.537 114.632 236.826 114.957C237.115 115.282 237.467 115.546 237.859 115.733C238.252 115.92 238.678 116.026 239.112 116.046C239.545 116.051 239.974 115.97 240.376 115.809C240.777 115.648 241.143 115.409 241.452 115.106C241.761 114.804 242.008 114.443 242.177 114.045C242.347 113.647 242.437 113.22 242.441 112.787C242.472 112.353 242.416 111.918 242.275 111.506C242.135 111.094 241.914 110.715 241.625 110.39C241.336 110.065 240.985 109.802 240.592 109.615C240.199 109.428 239.773 109.321 239.339 109.301C238.906 109.296 238.477 109.377 238.076 109.538C237.674 109.7 237.308 109.939 236.999 110.241C236.69 110.544 236.444 110.904 236.274 111.302C236.104 111.7 236.014 112.128 236.01 112.56V112.56Z"/><path fill="#263238" d="M266.808 112.56C266.812 113.193 267.001 113.81 267.353 114.336C267.705 114.861 268.204 115.272 268.788 115.516C269.371 115.76 270.013 115.827 270.635 115.709C271.256 115.591 271.829 115.293 272.282 114.851C272.735 114.41 273.048 113.845 273.183 113.227C273.318 112.609 273.267 111.965 273.039 111.376C272.81 110.786 272.413 110.277 271.897 109.911C271.381 109.545 270.769 109.339 270.137 109.319C269.266 109.309 268.427 109.645 267.804 110.253C267.18 110.86 266.822 111.69 266.808 112.56V112.56Z"/><path fill="#263238" d="M221.84 107.785C220.9 106.716 220.294 105.395 220.097 103.985C220.054 103.328 220.227 102.675 220.589 102.125C220.95 101.574 221.481 101.157 222.101 100.935L223.844 100.761C229.526 100.238 236.969 100.185 241.465 101.649C247.13 103.497 248.925 105.554 252.254 105.554C255.583 105.554 257.657 103.689 263.618 102.068C268.377 100.778 276.325 101.092 282.425 101.841L284.325 102.085C284.988 102.313 285.558 102.751 285.949 103.333C286.339 103.916 286.528 104.61 286.486 105.31C286.28 106.675 285.674 107.949 284.743 108.97C284.455 109.423 284.254 109.925 284.15 110.451C283.558 113.014 283.244 117.929 282.041 120.63C281.479 121.969 280.682 123.197 279.688 124.256C279.321 124.646 278.919 125.002 278.486 125.319C278.265 125.492 278.032 125.649 277.789 125.789C277.128 126.193 276.427 126.526 275.697 126.783L275.331 126.888C275.148 126.95 274.962 127.002 274.773 127.044L274.198 127.184C273.584 127.32 272.961 127.407 272.333 127.445C272.066 127.463 271.798 127.463 271.531 127.445H270.538C262.747 127.341 259.575 123.524 257.518 119.619C255.461 115.715 255.775 110.19 252.289 110.19H251.941H251.627C249.012 110.783 249.431 115.802 247.827 119.393C247.229 120.815 246.398 122.129 245.37 123.28C245.186 123.496 244.988 123.699 244.777 123.89C244.685 123.996 244.579 124.09 244.463 124.169L244.132 124.43L243.836 124.674L243.505 124.901L243.243 125.057L243.069 125.179C242.109 125.724 241.076 126.129 240.001 126.382H239.722C238.485 126.638 237.221 126.743 235.958 126.696C233.586 126.795 231.244 126.144 229.264 124.836C227.283 123.528 225.765 121.63 224.925 119.41C223.687 116.656 223.147 111.741 222.519 109.144C222.396 108.647 222.163 108.182 221.84 107.785Z"/><path fill="#874C4C" d="M253.23 110.277L252.62 132.692L240.123 129.066L251.784 110.085C252.274 110.039 252.769 110.104 253.23 110.277V110.277Z"/><path fill="#6B78E0" d="M427.979 113.118C463.644 113.118 492.556 87.7958 492.556 56.5591C492.556 25.3223 463.644 0 427.979 0C392.315 0 363.403 25.3223 363.403 56.5591C363.403 87.7958 392.315 113.118 427.979 113.118Z"/><path fill="#6B78E0" d="M376.44 89.2744C376.074 96.8563 369.66 110.417 358.069 115.419C357.915 115.485 357.784 115.598 357.697 115.742C357.61 115.885 357.57 116.053 357.584 116.221C357.597 116.389 357.663 116.548 357.772 116.676C357.881 116.804 358.028 116.895 358.191 116.935C364.817 118.404 371.728 117.906 378.075 115.503C384.422 113.101 389.929 108.898 393.922 103.41L376.44 89.2744Z"/><path fill="#FAFAFA" d="M384.196 52.0797C384.342 49.6009 384.932 47.1685 385.939 44.8987C386.888 42.6779 388.303 40.6867 390.088 39.0598C391.973 37.3345 394.175 35.9909 396.571 35.1032C402.319 33.151 408.55 33.151 414.297 35.1032C416.717 35.9868 418.942 37.3304 420.851 39.0598C422.628 40.7201 424.03 42.7404 424.964 44.9858C425.971 47.2556 426.561 49.688 426.707 52.1668C426.794 54.1189 426.829 56.1582 426.829 58.2846C426.829 60.411 426.829 62.4154 426.707 64.263C426.561 66.7418 425.971 69.1742 424.964 71.444C424.005 73.6689 422.592 75.6694 420.816 77.3177C418.92 79.0637 416.691 80.4094 414.262 81.2743C408.507 83.1795 402.292 83.1795 396.536 81.2743C394.118 80.4108 391.9 79.0647 390.018 77.3177C388.236 75.6746 386.822 73.6728 385.87 71.444C384.863 69.1742 384.272 66.7418 384.127 64.263C384.039 62.4154 383.987 60.411 383.987 58.2846C383.987 56.1582 384.109 54.0318 384.196 52.0797ZM414.001 63.8447C414.001 63.0255 414.088 62.1017 414.14 61.1256C414.193 60.1496 414.14 59.1038 414.14 58.058C414.14 57.0122 414.14 56.0013 414.14 55.0253C414.14 54.0492 414.036 53.2823 414.001 52.4108C413.926 51.3401 413.685 50.2876 413.286 49.2909C412.911 48.3596 412.354 47.5123 411.648 46.7985C410.903 46.0682 410.012 45.5039 409.034 45.1427C406.655 44.33 404.074 44.33 401.696 45.1427C400.714 45.5078 399.818 46.0715 399.064 46.7985C398.363 47.513 397.812 48.3604 397.443 49.2909C397.044 50.2876 396.803 51.3401 396.728 52.4108C396.621 53.2783 396.563 54.1512 396.554 55.0253C396.554 56.0013 396.554 57.0122 396.554 58.058C396.554 59.1038 396.554 60.1147 396.554 61.1256C396.563 62.0345 396.621 62.9421 396.728 63.8447C396.834 65.9397 397.659 67.9342 399.064 69.4918C399.899 70.2819 400.89 70.8885 401.974 71.2727C403.058 71.6569 404.209 71.8102 405.356 71.7228C406.497 71.8141 407.645 71.6624 408.724 71.2779C409.802 70.8933 410.787 70.2846 411.613 69.4918C413.006 67.9216 413.845 65.9377 414.001 63.8447V63.8447Z"/><path fill="#FAFAFA" d="M475.005 79.6882C475.149 79.9101 475.217 80.1735 475.196 80.4376C475.199 80.6324 475.161 80.8257 475.087 81.0056C475.012 81.1854 474.901 81.348 474.761 81.4834C474.626 81.6258 474.464 81.7394 474.284 81.8173C474.104 81.8952 473.911 81.9358 473.715 81.9366H462.804C462.251 81.9569 461.705 81.8112 461.235 81.5183C460.782 81.1876 460.372 80.8011 460.015 80.3679L447.117 64.1584V80.0716C447.11 80.5416 446.927 80.9918 446.604 81.3336C446.282 81.6755 445.843 81.8844 445.374 81.9192H436.45C436.208 81.9208 435.969 81.872 435.747 81.776C435.525 81.68 435.325 81.5388 435.161 81.3614C434.986 81.1954 434.848 80.9951 434.755 80.7731C434.662 80.5511 434.616 80.3123 434.62 80.0716V36.1664C434.616 35.9258 434.662 35.687 434.755 35.465C434.848 35.243 434.986 35.0427 435.161 34.8767C435.325 34.6993 435.525 34.5581 435.747 34.462C435.969 34.366 436.208 34.3173 436.45 34.3189H445.374C445.843 34.3537 446.282 34.5625 446.604 34.9044C446.927 35.2463 447.11 35.6965 447.117 36.1664V50.511L459.091 35.8179C459.366 35.4896 459.657 35.1754 459.963 34.8767C460.482 34.4554 461.145 34.255 461.81 34.3189H472.408C472.606 34.3173 472.804 34.3567 472.986 34.4347C473.169 34.5127 473.334 34.6275 473.471 34.7721C473.611 34.9075 473.722 35.0701 473.797 35.2499C473.872 35.4298 473.909 35.623 473.907 35.8179C473.925 36.0842 473.851 36.3488 473.697 36.5673L456.965 57.1865L475.005 79.6882Z"/><path fill="#E0E0E0" d="M594.607 110.033L584.829 112.979L577.77 89.3964L587.513 86.4683L594.607 110.033Z"/><path fill="#E0E0E0" d="M625.126 89.1001C625.207 90.0567 624.983 91.0144 624.485 91.8351C623.986 92.6558 623.241 93.2972 622.355 93.6667C622.989 94.3875 623.459 95.2381 623.731 96.1591C624.289 97.9021 622.808 100.429 619.862 101.388L597.5 108.116L590.929 86.2068C590.929 86.2068 594.711 76.5334 594.903 75.0693C595.095 73.6052 592.864 68.2369 592.55 67.226C592.236 66.215 595.862 64.8904 598.72 66.0407C599.385 66.3363 599.979 66.7701 600.463 67.3131C601.491 68.408 602.354 69.6469 603.025 70.9907C603.974 72.906 604.441 75.0241 604.385 77.1608L617.927 73.03C618.862 72.6918 619.886 72.6918 620.821 73.03C621.433 73.2718 621.972 73.6676 622.385 74.1791C622.799 74.6906 623.074 75.3003 623.183 75.9492C623.291 76.5981 623.231 77.2641 623.006 77.8826C622.782 78.501 622.401 79.0509 621.901 79.479C622.707 79.4205 623.51 79.6344 624.18 80.0864C624.85 80.5383 625.349 81.2021 625.596 81.9714C625.803 82.8657 625.694 83.8041 625.287 84.627C624.88 85.4499 624.201 86.1066 623.365 86.4857C624.269 87.0956 624.901 88.0332 625.126 89.1001V89.1001Z"/><path fill="#E0E0E0" d="M734.706 354.553L722.174 351.538L729.477 321.315L742.009 324.33L734.706 354.553Z"/><path fill="#E0E0E0" d="M781.365 351.154C780.845 352.249 779.991 353.151 778.926 353.73C777.861 354.309 776.641 354.536 775.439 354.379C775.664 355.568 775.635 356.792 775.352 357.969C774.794 360.322 771.604 362.048 767.839 361.124L739.15 354.152L745.913 326.073C745.913 326.073 756.214 317.933 757.347 316.452C758.48 314.97 759.456 307.737 759.77 306.395C760.083 305.053 764.876 305.959 767.264 309.044C767.844 309.794 768.249 310.663 768.449 311.589C768.873 313.434 769.026 315.33 768.903 317.219C768.713 319.917 767.876 322.53 766.462 324.835L783.788 329.019C785.017 329.279 786.115 329.964 786.89 330.953C787.319 331.518 787.624 332.167 787.783 332.858C787.942 333.549 787.953 334.267 787.814 334.962C787.581 335.878 787.098 336.711 786.417 337.367C785.736 338.023 784.886 338.476 783.962 338.675C784.879 339.124 785.618 339.868 786.06 340.788C786.503 341.708 786.623 342.75 786.402 343.747C786.049 344.848 785.328 345.795 784.361 346.43C783.393 347.064 782.237 347.348 781.086 347.232C781.685 348.454 781.786 349.86 781.365 351.154V351.154Z"/><path fill="#E0E0E0" d="M101.697 336.478L115.38 340.592L125.28 307.58L111.615 303.467L101.697 336.478Z"/><path fill="#E0E0E0" d="M58.9426 307.144C58.8285 308.485 59.1435 309.827 59.8422 310.977C60.5409 312.127 61.587 313.025 62.8294 313.541C61.951 314.554 61.2975 315.742 60.9121 317.027C60.1278 319.589 62.2194 323.023 66.3153 324.243L97.6886 333.672L106.857 302.944C106.857 302.944 101.541 289.384 101.279 287.257C101.018 285.131 104.155 277.706 104.573 276.277C104.922 275.126 99.937 273.017 95.8585 274.638C94.8888 275.018 94.0185 275.614 93.3138 276.381C91.8655 277.937 90.6555 279.699 89.7233 281.61C88.3877 284.317 87.7298 287.307 87.806 290.325L68.982 284.643C67.6546 284.206 66.2153 284.256 64.921 284.782C64.0631 285.12 63.3074 285.674 62.7276 286.391C62.1478 287.107 61.7636 287.962 61.6127 288.872C61.4617 289.781 61.549 290.714 61.8661 291.58C62.1832 292.445 62.7193 293.214 63.422 293.811C62.2844 293.713 61.1473 294.005 60.1973 294.638C59.2472 295.272 58.5406 296.209 58.1931 297.297C57.9034 298.552 58.0556 299.868 58.624 301.024C59.1924 302.18 60.1422 303.104 61.313 303.641C60.1188 304.477 59.2749 305.725 58.9426 307.144Z"/></svg>