<svg xmlns="http://www.w3.org/2000/svg" width="781" height="762" fill="none" viewBox="0 0 781 762"><path fill="#F5F5F5" d="M40.3256 306.703L43.2389 309.297C67.8421 331.189 102.414 338.497 133.013 326.979C136.953 325.51 140.775 323.742 144.447 321.691C157.718 314.088 168.907 303.325 177.018 290.357C185.129 277.39 189.912 262.62 190.942 247.36C192.02 229.358 188.012 210.312 195.505 193.927C205.273 172.691 230.347 164.457 252.761 158.377C275.175 152.298 300.216 143.979 309.882 122.711C315.945 109.39 314.328 93.5607 309.276 79.7351C295.939 43.1251 259.834 17.7642 221.809 11.3145C183.785 4.86483 144.497 15.2214 110.666 33.5264C63.2279 59.1735 23.6878 101.846 7.94248 153.915C-7.80284 205.984 2.94103 267.096 40.3256 306.703Z"/><path fill="#F5F5F5" d="M565.276 70.9447L564.906 73.2854C563.255 82.9008 564.266 92.7844 567.828 101.867C571.39 110.949 577.367 118.885 585.114 124.816C587.15 126.352 589.301 127.731 591.546 128.941C599.743 133.231 608.871 135.431 618.122 135.346C627.373 135.261 636.459 132.893 644.575 128.453C654.107 123.132 662.543 114.88 673.304 113.398C687.315 111.462 699.676 121.565 710.066 130.996C720.456 140.426 732.85 150.53 746.844 148.526C755.618 147.28 763.145 141.302 768.568 134.229C782.882 115.52 784.06 88.8623 774.984 67.3578C765.907 45.8532 747.838 29.2154 727.478 17.8989C698.968 2.05259 664.328 -4.21186 632.686 4.73013C601.044 13.6721 573.309 38.9994 565.276 70.9447Z"/><path fill="#F5F5F5" d="M485.851 86.5685C493.23 55.782 474.256 24.842 443.469 17.4622C412.683 10.0824 381.743 29.0573 374.363 59.8438C366.983 90.6303 385.958 121.57 416.744 128.95C447.531 136.33 478.471 117.355 485.851 86.5685Z"/><path fill="#6B78E0" d="M268.86 328.107L234.524 231.16C232.216 227.387 231.391 220.534 233.715 216.93C234.84 215.125 236.553 213.763 238.565 213.074L293.463 194.769C295.129 194.186 296.928 194.1 298.641 194.521C300.354 194.943 301.908 195.854 303.112 197.143L313.823 208.274L385.695 184.378C394.974 180.387 403.445 185.911 405.061 193.085L431.921 276.257C434.194 286.361 428.082 296.633 419.746 299.412L292.806 341.747C284.083 344.593 274.165 339.373 268.86 328.107Z"/><g opacity=".3"><path fill="#000" d="M268.86 328.107L234.524 231.16C232.216 227.387 231.391 220.534 233.715 216.93C234.84 215.125 236.553 213.763 238.565 213.074L293.463 194.769C295.129 194.186 296.928 194.1 298.641 194.521C300.354 194.943 301.908 195.854 303.112 197.143L313.823 208.274L385.695 184.378C394.974 180.387 403.445 185.911 405.061 193.085L431.921 276.257C434.194 286.361 428.082 296.633 419.746 299.412L292.806 341.747C284.083 344.593 274.165 339.373 268.86 328.107Z" opacity=".3"/></g><path fill="#6B78E0" d="M266.94 327.147L239.003 245.507C237.571 238.771 240.266 232.574 245.301 230.89L389.265 182.88C395.361 180.859 402.384 186.248 404.286 194.28L430.607 269.639C436.905 288.533 428.738 297.526 420.133 300.405L293.985 342.505C281.018 346.799 271.723 343.617 266.94 327.147Z"/><path fill="#FAFAFA" d="M371.381 279.995C371.381 279.995 372.055 279.743 373.217 279.069C374.892 278.035 376.231 276.538 377.073 274.758C378.004 272.736 378.241 270.462 377.747 268.292C377.528 267.5 377.242 266.608 376.939 265.782L372.931 253.995L370.607 247.124C370.203 245.945 369.798 244.716 369.377 243.47C369.015 242.216 368.512 241.007 367.879 239.866C366.802 238.082 365.247 236.635 363.389 235.692C361.531 234.748 359.446 234.345 357.371 234.528C355.904 234.719 354.467 235.093 353.093 235.639L315.473 248.269C313.944 248.955 312.597 249.991 311.542 251.292C310.486 252.594 309.75 254.125 309.394 255.763C309.04 257.364 309.074 259.027 309.495 260.613C309.933 262.179 310.522 263.795 311.027 265.361C313.138 271.682 315.153 277.75 317.073 283.565C317.578 284.98 317.982 286.496 318.538 287.792C319.403 289.671 320.83 291.236 322.621 292.27C324.413 293.304 326.481 293.758 328.541 293.568C329.837 293.398 331.109 293.076 332.33 292.608L336.001 291.396L342.888 289.139L363.686 282.403L369.361 280.602L370.843 280.147L371.348 280.029L370.859 280.248L369.411 280.77L363.803 282.74L343.09 289.796L336.22 292.12L332.565 293.349C331.297 293.847 329.975 294.192 328.625 294.377C326.4 294.594 324.163 294.114 322.223 293.004C320.283 291.894 318.736 290.208 317.797 288.18C317.157 286.731 316.786 285.334 316.264 283.869L310.219 265.715C309.697 264.031 309.124 262.6 308.653 260.899C308.198 259.181 308.164 257.379 308.552 255.645C308.929 253.865 309.722 252.201 310.867 250.787C312.011 249.373 313.474 248.251 315.136 247.511C328.608 242.914 341.255 238.771 352.874 234.898C354.31 234.341 355.809 233.962 357.337 233.77C359.553 233.574 361.778 234.01 363.757 235.026C365.736 236.042 367.386 237.598 368.519 239.512C369.18 240.705 369.7 241.971 370.068 243.284C370.489 244.53 370.893 245.743 371.28 246.939C372.072 249.33 372.83 251.637 373.537 253.826C374.985 258.204 376.282 262.246 377.427 265.614C377.713 266.49 377.999 267.298 378.202 268.174C378.378 268.992 378.457 269.829 378.437 270.666C378.401 272.403 377.916 274.102 377.031 275.598C376.146 277.093 374.891 278.335 373.385 279.204C372.758 279.56 372.083 279.827 371.381 279.995V279.995Z"/><path fill="#FAFAFA" d="M378.808 271.576C378.522 271.469 378.25 271.328 377.999 271.155L375.894 269.892L367.929 264.84L362.423 261.185L359.375 259.198L357.792 258.171C357.283 257.87 356.698 257.723 356.108 257.75C355.513 257.769 354.937 257.961 354.45 258.302C353.962 258.643 353.585 259.118 353.363 259.67L351.965 263.644L349.001 272.064C348.53 273.361 348.092 274.624 347.654 275.819L347.486 276.308L347.031 276.089L339.655 272.519L337.971 271.677C337.454 271.369 336.882 271.163 336.287 271.07C335.739 271.012 335.186 271.09 334.675 271.295C334.164 271.501 333.712 271.828 333.357 272.249C333.015 272.697 332.737 273.19 332.532 273.714L331.791 275.264L330.343 278.244L327.766 283.566L323.994 291.194L322.933 293.249C322.812 293.49 322.672 293.721 322.512 293.939C322.56 293.668 322.651 293.407 322.781 293.164C323.017 292.592 323.32 291.901 323.691 291.059C324.566 289.106 325.762 286.496 327.21 283.313C327.968 281.629 328.793 279.861 329.686 277.941C330.14 276.964 330.595 275.971 331.083 274.944C331.319 274.422 331.572 273.899 331.808 273.361C332.042 272.765 332.348 272.2 332.717 271.677C333.151 271.14 333.714 270.721 334.352 270.459C334.991 270.197 335.685 270.101 336.371 270.178C337.055 270.273 337.713 270.502 338.308 270.851L339.992 271.677L347.401 275.213L346.761 275.466C347.199 274.27 347.637 273.007 348.092 271.71L351.089 263.29L352.521 259.299C352.803 258.589 353.29 257.977 353.919 257.543C354.548 257.108 355.292 256.87 356.057 256.857C356.794 256.841 357.52 257.04 358.145 257.43L359.829 258.474L362.844 260.512L368.249 264.149L376.063 269.487L378.151 270.986C378.393 271.155 378.613 271.353 378.808 271.576V271.576Z"/><path fill="#FAFAFA" d="M339.402 260.108C339.402 260.108 339.84 259.872 340.548 259.367C341.537 258.658 342.27 257.647 342.636 256.487C342.898 255.649 342.95 254.759 342.789 253.896C342.627 253.033 342.257 252.223 341.71 251.536C341.034 250.713 340.127 250.113 339.106 249.812C338.085 249.512 336.997 249.526 335.984 249.852C334.975 250.19 334.093 250.827 333.456 251.678C332.818 252.529 332.455 253.555 332.414 254.618C332.382 255.495 332.568 256.367 332.956 257.155C333.344 257.942 333.922 258.621 334.637 259.131C335.616 259.837 336.797 260.209 338.005 260.192C338.463 260.134 338.924 260.1 339.386 260.091C339.386 260.091 338.965 260.411 338.038 260.545C336.711 260.715 335.368 260.404 334.249 259.67C333.412 259.121 332.727 258.371 332.256 257.488C331.785 256.605 331.544 255.618 331.555 254.618C331.573 253.368 331.979 252.155 332.717 251.146C333.455 250.137 334.488 249.383 335.674 248.987C336.86 248.591 338.139 248.574 339.335 248.937C340.531 249.3 341.584 250.026 342.349 251.014C342.964 251.808 343.368 252.745 343.524 253.737C343.68 254.729 343.583 255.744 343.242 256.689C342.784 257.944 341.895 258.994 340.733 259.653C339.924 260.108 339.419 260.158 339.402 260.108Z"/><path fill="#6B78E0" d="M140.86 678.192L77.8282 411.97C75.1843 400.822 78.7375 388.815 87.4438 381.894C91.7282 378.402 97.073 376.472 102.6 376.421L277.061 370.931C281.648 370.838 286.163 372.085 290.051 374.52C293.94 376.955 297.034 380.471 298.953 384.639L316.332 420.71L537.726 420.929C553.994 420.929 571.069 443.494 569.133 462.439L588.078 684.153C585.333 710.895 561.723 731.019 538.77 731.019H188.972C164.992 731.086 144.699 710.154 140.86 678.192Z"/><g opacity=".3"><path fill="#000" d="M140.86 678.192L77.8282 411.97C75.1843 400.822 78.7375 388.815 87.4438 381.894C91.7282 378.402 97.073 376.472 102.6 376.421L277.061 370.931C281.648 370.838 286.163 372.085 290.051 374.52C293.94 376.955 297.034 380.471 298.953 384.639L316.332 420.71L537.726 420.929C553.994 420.929 571.069 443.494 569.133 462.439L588.078 684.153C585.333 710.895 561.723 731.019 538.77 731.019H188.972C164.992 731.086 144.699 710.154 140.86 678.192Z" opacity=".3"/></g><path fill="#E0E0E0" d="M143.874 685.938L127.203 391.004L540.117 384.757L554.6 680.348L143.874 685.938Z"/><path fill="#EBEBEB" d="M141.988 403.095C141.946 403.63 141.748 404.141 141.42 404.565C141.092 404.99 140.647 405.31 140.14 405.485C139.634 405.661 139.086 405.686 138.566 405.556C138.045 405.426 137.574 405.147 137.209 404.753C136.845 404.36 136.603 403.868 136.513 403.34C136.423 402.811 136.489 402.267 136.702 401.775C136.916 401.283 137.269 400.864 137.717 400.569C138.166 400.274 138.69 400.116 139.226 400.115C139.604 400.128 139.975 400.215 140.319 400.372C140.662 400.529 140.971 400.753 141.228 401.03C141.485 401.307 141.684 401.632 141.814 401.987C141.945 402.341 142.004 402.718 141.988 403.095V403.095Z"/><path fill="#EBEBEB" d="M152.698 403.095C152.656 403.63 152.458 404.141 152.13 404.565C151.802 404.99 151.358 405.31 150.851 405.485C150.344 405.661 149.797 405.686 149.276 405.556C148.756 405.426 148.284 405.147 147.92 404.753C147.555 404.36 147.313 403.868 147.223 403.34C147.133 402.811 147.199 402.267 147.413 401.775C147.627 401.283 147.979 400.864 148.427 400.569C148.876 400.274 149.4 400.116 149.937 400.115C150.314 400.128 150.685 400.215 151.029 400.372C151.372 400.529 151.681 400.753 151.938 401.03C152.195 401.307 152.394 401.632 152.525 401.987C152.655 402.341 152.714 402.718 152.698 403.095Z"/><path fill="#EBEBEB" d="M163.425 403.095C163.383 403.63 163.186 404.141 162.857 404.565C162.529 404.99 162.085 405.31 161.578 405.485C161.071 405.661 160.524 405.686 160.003 405.556C159.483 405.426 159.011 405.147 158.647 404.753C158.282 404.36 158.04 403.868 157.95 403.34C157.86 402.811 157.926 402.267 158.14 401.775C158.354 401.283 158.706 400.864 159.155 400.569C159.603 400.274 160.127 400.116 160.664 400.115C161.425 400.145 162.142 400.476 162.66 401.035C163.178 401.593 163.453 402.334 163.425 403.095V403.095Z"/><path fill="#EBEBEB" d="M289.994 403.095L314.901 551.118L118.934 580.554L94.0282 432.531L289.994 403.095Z"/><path fill="#263238" d="M290.011 403.095L289.068 403.264L286.323 403.701L275.68 405.385L235.584 411.532L94.1292 433.02L94.5502 432.464C101.993 476.517 110.498 527.02 119.524 580.47L118.867 580.015L314.85 550.663L314.446 551.185C307.053 506.593 300.974 469.647 296.629 443.797C294.507 430.864 292.84 420.727 291.695 413.772C291.139 410.32 290.718 407.676 290.415 405.857C290.112 404.038 290.011 403.095 290.011 403.095C290.011 403.095 290.196 403.971 290.516 405.739C290.836 407.507 291.291 410.151 291.88 413.553C293.076 420.474 294.81 430.578 297.033 443.444C301.462 469.343 307.777 506.374 315.389 551.051L315.473 551.489H315.001L119.019 581.093L118.463 581.177L118.362 580.638C109.386 527.189 100.916 476.686 93.5229 432.616V432.144H94.0282L235.904 411.094L275.933 405.2L286.492 403.685L289.186 403.297L290.011 403.095Z"/><path fill="#455A64" d="M124.121 570.215L306.329 542.85L284.555 413.469L102.347 440.833L124.121 570.215Z"/><g opacity=".3"><path fill="#000" d="M124.121 570.215L174.237 480.239L222.112 524.629L244.324 493.711L306.329 542.85L124.121 570.215Z" opacity=".3"/></g><g opacity=".3"><path fill="#000" d="M228.731 461.951C228.991 463.778 228.883 465.639 228.413 467.424C227.944 469.209 227.123 470.883 225.999 472.346C224.874 473.81 223.468 475.034 221.864 475.947C220.26 476.86 218.489 477.443 216.657 477.662C212.947 478.297 209.137 477.462 206.034 475.333C202.93 473.205 200.779 469.951 200.036 466.262C199.773 464.435 199.879 462.575 200.346 460.79C200.813 459.005 201.633 457.331 202.756 455.867C203.879 454.403 205.284 453.179 206.887 452.266C208.491 451.353 210.261 450.769 212.093 450.55C215.805 449.906 219.622 450.737 222.73 452.867C225.838 454.997 227.991 458.256 228.731 461.951V461.951Z" opacity=".3"/></g><path fill="#EBEBEB" d="M155.78 699.932L150.206 412.963L572.517 412.071L570.783 695.655L155.78 699.932Z"/><path fill="#E0E0E0" d="M174.691 424.196C174.649 424.73 174.451 425.241 174.123 425.666C173.795 426.09 173.35 426.41 172.844 426.586C172.337 426.762 171.79 426.786 171.269 426.656C170.748 426.526 170.277 426.247 169.912 425.854C169.548 425.46 169.306 424.969 169.216 424.44C169.126 423.911 169.192 423.367 169.406 422.875C169.62 422.383 169.972 421.964 170.42 421.669C170.869 421.374 171.393 421.217 171.93 421.215C172.69 421.246 173.408 421.576 173.926 422.135C174.443 422.694 174.719 423.435 174.691 424.196V424.196Z"/><path fill="#E0E0E0" d="M184.576 424.196C184.534 424.731 184.336 425.243 184.007 425.667C183.678 426.092 183.232 426.412 182.725 426.587C182.217 426.762 181.669 426.786 181.148 426.655C180.627 426.523 180.156 426.243 179.792 425.847C179.428 425.452 179.187 424.96 179.099 424.43C179.011 423.9 179.079 423.355 179.296 422.864C179.512 422.372 179.867 421.954 180.318 421.661C180.768 421.368 181.294 421.213 181.831 421.215C182.207 421.23 182.577 421.319 182.918 421.477C183.26 421.635 183.567 421.859 183.822 422.136C184.077 422.413 184.275 422.737 184.404 423.091C184.534 423.444 184.592 423.82 184.576 424.196Z"/><path fill="#E0E0E0" d="M164.183 424.196C164.141 424.73 163.943 425.241 163.615 425.666C163.287 426.09 162.842 426.41 162.335 426.586C161.829 426.762 161.281 426.786 160.761 426.656C160.24 426.526 159.769 426.247 159.404 425.854C159.04 425.46 158.798 424.969 158.708 424.44C158.618 423.911 158.684 423.367 158.898 422.875C159.111 422.383 159.464 421.964 159.912 421.669C160.361 421.374 160.885 421.217 161.422 421.215C162.182 421.246 162.9 421.576 163.418 422.135C163.935 422.694 164.211 423.435 164.183 424.196V424.196Z"/><path fill="#FAFAFA" d="M165.598 706.938V434.081L586.174 433.188L563.592 712.798L165.598 706.938Z"/><path fill="#6B78E0" d="M145.188 676.727L170.347 471.701C172.3 455.669 183.718 443.78 197.173 443.78H581.342C597.592 443.78 610.205 460.907 608.285 480.357L588.078 682.924C582.184 725.024 566.001 731.086 543.048 731.086H184.054C160.041 731.086 136.768 725.057 145.188 676.727Z"/><g opacity=".7"><path fill="#fff" d="M401.273 552.095L412.32 574.509C412.767 575.402 413.424 576.174 414.232 576.76C415.041 577.346 415.979 577.729 416.967 577.877L441.688 581.43C442.825 581.597 443.892 582.08 444.768 582.823C445.645 583.567 446.295 584.541 446.646 585.635C446.996 586.729 447.033 587.9 446.752 589.014C446.471 590.128 445.884 591.141 445.056 591.938L427.172 609.367C426.46 610.067 425.927 610.929 425.619 611.878C425.311 612.828 425.237 613.839 425.404 614.823L429.631 639.443C429.826 640.577 429.7 641.743 429.267 642.808C428.834 643.874 428.111 644.797 427.181 645.473C426.25 646.15 425.149 646.552 424.002 646.635C422.855 646.718 421.707 646.479 420.689 645.944L398.578 634.324C397.695 633.859 396.713 633.617 395.715 633.617C394.718 633.617 393.735 633.859 392.853 634.324L370.843 645.977C369.826 646.515 368.678 646.756 367.531 646.674C366.384 646.591 365.282 646.189 364.353 645.511C363.423 644.834 362.702 643.91 362.271 642.843C361.841 641.776 361.718 640.61 361.918 639.477L366.128 614.857C366.299 613.872 366.227 612.861 365.919 611.91C365.611 610.959 365.076 610.098 364.359 609.401L346.475 591.972C345.654 591.172 345.072 590.159 344.795 589.047C344.518 587.934 344.556 586.767 344.906 585.675C345.256 584.583 345.903 583.611 346.776 582.867C347.648 582.123 348.71 581.637 349.843 581.464L374.564 577.877C375.551 577.732 376.488 577.35 377.295 576.763C378.101 576.177 378.754 575.403 379.195 574.509L390.259 552.095C390.772 551.074 391.559 550.216 392.531 549.617C393.504 549.017 394.624 548.7 395.766 548.7C396.908 548.7 398.028 549.017 399 549.617C399.973 550.216 400.759 551.074 401.273 552.095Z" opacity=".7"/></g><path fill="#263238" d="M45.5292 731.086C45.5292 730.85 203.437 730.648 398.157 730.648C592.877 730.648 750.835 730.85 750.835 731.086C750.835 731.322 592.961 731.524 398.157 731.524C203.353 731.524 45.5292 731.305 45.5292 731.086Z"/><path fill="#EB996E" d="M664.581 671.658C664.8 673.342 668.758 718.17 668.758 718.17H689.319L692.923 671.843L664.581 671.658Z"/><path fill="#6B78E0" d="M666.434 715.088V716.688C666.434 716.688 638.749 726.91 638.294 732.097L692.687 733.377L692.367 715.274C688.286 717.11 683.856 718.045 679.38 718.013C674.905 717.981 670.488 716.983 666.434 715.088V715.088Z"/><g opacity=".6"><path fill="#fff" d="M686.659 720.915C687.178 721.089 687.615 721.447 687.888 721.922C688.162 722.397 688.251 722.955 688.14 723.491C687.99 724.019 687.642 724.468 687.168 724.745C686.694 725.021 686.131 725.103 685.598 724.973C685.047 724.791 684.584 724.411 684.298 723.907C684.012 723.403 683.923 722.811 684.048 722.245C684.263 721.712 684.676 721.284 685.201 721.051C685.727 720.818 686.322 720.8 686.861 720.999" opacity=".6"/></g><g opacity=".6"><path fill="#fff" d="M692.62 733.376L692.535 729.015L640.45 729.385C640.45 729.385 637.991 730.379 638.227 732.097L692.62 733.376Z" opacity=".6"/></g><path fill="#263238" d="M666.181 716.84C666.181 717.109 667.511 717.261 668.791 718.153C670.071 719.046 670.745 720.157 670.997 720.056C671.25 719.955 670.879 718.372 669.313 717.379C667.747 716.385 666.131 716.604 666.181 716.84Z"/><path fill="#263238" d="M660.489 719.063C660.489 719.315 661.567 719.804 662.443 720.949C663.318 722.094 663.537 723.289 663.807 723.273C664.076 723.256 664.278 721.774 663.167 720.376C662.055 718.978 660.489 718.81 660.489 719.063Z"/><path fill="#263238" d="M657.02 725.815C657.256 725.815 657.66 724.569 657.02 723.087C656.38 721.605 655.134 721.016 655.016 721.235C654.898 721.454 655.656 722.245 656.161 723.458C656.666 724.67 656.751 725.782 657.02 725.815Z"/><path fill="#FFBE9D" d="M682.684 680.23C682.886 681.914 686.844 726.741 686.844 726.741H707.422L711.026 680.432L682.684 680.23Z"/><path fill="#6B78E0" d="M707.472 720.056C707.472 720.056 693.024 730.312 686.035 721.437L684.2 725.731L675.999 756.363C675.715 757.323 675.794 758.353 676.219 759.26C676.644 760.166 677.386 760.885 678.306 761.28C679.007 761.565 679.775 761.642 680.519 761.501C681.262 761.361 681.95 761.009 682.499 760.489C688.443 754.831 710.201 733.932 709.982 731.103L709.897 723.576C709.89 722.814 709.655 722.072 709.223 721.445C708.791 720.818 708.181 720.335 707.472 720.056V720.056Z"/><g opacity=".6"><path fill="#fff" d="M679.013 761.499L709.999 728.476V730.16C710.04 730.835 709.93 731.51 709.677 732.136C709.423 732.763 709.033 733.325 708.534 733.781C706.025 737.148 699.087 744.726 682.634 760.522C682.162 760.972 681.586 761.3 680.958 761.476C680.33 761.652 679.668 761.672 679.03 761.533L679.013 761.499Z" opacity=".6"/></g><g opacity=".6"><path fill="#fff" d="M705.452 723.593C704.972 723.939 704.637 724.451 704.513 725.029C704.388 725.608 704.483 726.212 704.778 726.725C705.111 727.216 705.619 727.561 706.198 727.689C706.778 727.818 707.384 727.72 707.893 727.415C708.412 727.045 708.772 726.491 708.9 725.867C709.028 725.242 708.915 724.592 708.584 724.047C708.182 723.558 707.605 723.245 706.975 723.176C706.346 723.107 705.714 723.287 705.216 723.677" opacity=".6"/></g><path fill="#263238" d="M687.938 744.592C687.022 743.373 685.878 742.344 684.57 741.561C683.153 740.984 681.638 740.687 680.108 740.685C680.108 740.584 680.562 740.281 681.472 740.163C682.67 740.026 683.881 740.243 684.958 740.786C686.031 741.322 686.93 742.151 687.551 743.177C687.989 743.986 688.039 744.558 687.938 744.592Z"/><path fill="#263238" d="M685.16 749.829C684.068 749.207 682.944 748.645 681.792 748.145C680.546 747.903 679.286 747.74 678.02 747.657C678.614 747.282 679.291 747.057 679.992 747.001C680.694 746.945 681.398 747.06 682.044 747.337C684.267 747.943 685.362 749.661 685.16 749.829Z"/><path fill="#263238" d="M693.108 738.041C691.502 736.927 689.813 735.936 688.056 735.077C686.175 734.493 684.257 734.037 682.314 733.713C684.339 733.186 686.485 733.389 688.376 734.286C690.348 734.939 692.024 736.27 693.108 738.041V738.041Z"/><path fill="#263238" d="M693.799 728.628C693.697 728.863 691.559 727.954 688.747 727.836C685.934 727.718 683.695 728.392 683.695 728.156C685.264 727.312 687.032 726.91 688.812 726.993C690.591 727.076 692.315 727.641 693.799 728.628V728.628Z"/><path fill="#263238" d="M687.18 727.752C687.149 727.24 687.236 726.727 687.433 726.253C687.805 724.956 688.435 723.747 689.285 722.7C689.836 721.87 690.648 721.247 691.593 720.932C691.908 720.872 692.235 720.903 692.533 721.023C692.831 721.142 693.089 721.344 693.277 721.605C693.594 722.161 693.696 722.815 693.563 723.441C693.231 724.703 692.473 725.812 691.417 726.579C690.361 727.346 689.073 727.725 687.77 727.651C686.482 727.542 685.255 727.053 684.245 726.247C683.235 725.441 682.487 724.353 682.095 723.121C682 722.81 681.973 722.481 682.016 722.159C682.06 721.836 682.173 721.527 682.347 721.252C682.544 721.007 682.81 720.827 683.111 720.737C683.412 720.647 683.733 720.65 684.031 720.747C684.935 721.12 685.72 721.731 686.305 722.515C687.188 723.533 687.878 724.702 688.342 725.967C688.55 726.411 688.67 726.892 688.696 727.382C687.964 725.767 687.006 724.264 685.85 722.919C685.318 722.259 684.629 721.744 683.846 721.42C683.678 721.357 683.495 721.349 683.322 721.398C683.149 721.446 682.997 721.548 682.886 721.69C682.694 722.077 682.658 722.523 682.785 722.936C683.165 723.998 683.845 724.927 684.741 725.611C685.638 726.295 686.713 726.705 687.837 726.792C688.938 726.86 690.029 726.552 690.931 725.918C691.834 725.285 692.494 724.364 692.805 723.306C692.906 722.87 692.853 722.411 692.653 722.01C692.559 721.856 692.419 721.736 692.253 721.667C692.087 721.597 691.903 721.582 691.727 721.622C690.934 721.895 690.246 722.406 689.757 723.087C688.629 724.478 687.757 726.057 687.18 727.752V727.752Z"/><path fill="#263238" d="M736.471 430.359L635.431 450.887L635.145 470.438C635.097 473.646 635.277 476.854 635.684 480.037L647.809 575.654L665.457 708.437L682.432 707.494L682.617 712.714L711.009 711.097C711.009 711.097 728.64 629.491 727.226 611.338C724.346 574.138 730.442 555.463 735.056 536.417C740.058 515.839 758.363 467.053 736.471 430.359Z"/><path fill="#455A64" d="M671.89 472.695C671.871 472.862 671.871 473.032 671.89 473.2C671.89 473.57 671.89 474.059 671.89 474.682C671.89 476.046 672.008 477.965 672.092 480.424C672.294 485.476 672.597 492.616 672.968 501.491C673.793 519.324 674.921 543.877 676.15 571.006C677.38 598.135 678.676 622.705 679.518 640.538C679.99 649.396 680.377 656.586 680.63 661.605L680.984 667.33C680.984 667.953 680.984 668.442 681.085 668.812C681.066 668.98 681.066 669.15 681.085 669.317C681.096 669.149 681.096 668.98 681.085 668.812C681.085 668.442 681.085 667.953 681.085 667.33C681.085 665.966 680.967 664.047 680.882 661.588C680.68 656.536 680.377 649.379 680.007 640.521C679.182 622.688 678.07 598.135 676.824 570.989C675.578 543.843 674.298 519.307 673.456 501.491C672.985 492.616 672.614 485.426 672.345 480.407C672.193 477.966 672.075 476.046 672.008 474.682C672.008 474.059 671.924 473.57 671.89 473.2C671.901 473.032 671.901 472.863 671.89 472.695V472.695Z"/><path fill="#455A64" d="M681.169 667.953C681.07 668.537 681.031 669.13 681.051 669.722C681.051 671.001 681.051 672.618 681.051 674.521C681.051 678.579 681.051 684.17 681.287 690.35C681.522 696.531 681.725 702.138 681.994 706.18C682.129 708.201 682.247 709.834 682.364 710.963C682.383 711.531 682.462 712.095 682.6 712.647C682.669 712.087 682.669 711.522 682.6 710.963C682.6 709.683 682.6 708.066 682.466 706.163C682.348 701.953 682.179 696.446 681.994 690.35C681.809 684.254 681.657 678.748 681.522 674.521C681.438 672.618 681.371 671.018 681.32 669.738C681.337 669.14 681.287 668.541 681.169 667.953V667.953Z"/><path fill="#FFBE9D" d="M582.285 291.901C582.285 291.901 629.857 287.641 634.185 286.748C638.513 285.856 651.833 286.412 651.833 286.412L636.273 329.892L571.962 322.449C560.847 318.812 551.754 298.048 551.754 298.048L530.653 257.952L553.067 255.982L582.285 291.901Z"/><path fill="#6B78E0" d="M701.781 288.247C702.606 288.533 727.31 297.458 734.501 302.174C739.553 305.542 740.058 313.961 737.582 319.552L725.289 347.203L718.419 381.405L740.664 434.923L742.904 443.747L635.398 451.342L630.666 440.193L636.273 389.674V326.019L651.834 286.411L678.457 286.748L701.781 288.247Z"/><g opacity=".3"><path fill="#000" d="M643.279 413.031C644.456 411.889 645.944 411.122 647.556 410.825C666.962 405.17 686.742 400.888 706.749 398.01C711.396 397.353 716.246 396.797 720.692 398.296C725.138 399.795 730.206 404.055 729.785 408.72L730.425 410.286C722.181 415.104 712.693 417.366 703.162 416.786C697.487 416.534 691.273 415.405 686.507 418.47C683.291 420.558 681.455 424.213 678.676 426.89C676.852 428.632 674.665 429.948 672.271 430.743C669.878 431.538 667.338 431.792 664.834 431.487C662.336 431.152 659.94 430.284 657.808 428.942C655.675 427.599 653.856 425.814 652.473 423.707C650.958 421.367 649.628 418.386 646.899 417.864C645.754 417.645 644.458 417.864 643.531 417.274C643.231 417.016 642.986 416.699 642.81 416.344C642.635 415.989 642.532 415.602 642.508 415.206C642.485 414.81 642.541 414.414 642.673 414.04C642.806 413.667 643.012 413.323 643.279 413.031V413.031Z" opacity=".3"/></g><path fill="#6B78E0" d="M733.524 301.517C736.905 303.3 739.734 305.973 741.708 309.246C745.733 315.241 759.121 354.714 759.121 354.714L724.969 368.877L716.549 350.74L733.524 301.517Z"/><path fill="#263238" d="M725.188 330.515C724.996 330.932 724.865 331.374 724.801 331.829C724.615 332.688 724.363 333.934 724.093 335.483C723.554 338.565 722.931 342.859 722.409 347.625C721.887 352.39 721.786 356.735 721.77 359.884C721.77 361.45 721.77 362.713 721.77 363.589C721.748 364.048 721.794 364.507 721.904 364.953C722.129 363.278 722.253 361.591 722.275 359.901C722.443 356.769 722.713 352.458 723.15 347.709C723.588 342.96 724.127 338.666 724.531 335.55C724.847 333.886 725.067 332.205 725.188 330.515V330.515Z"/><path fill="#263238" d="M669.684 353.098C669.614 353.561 669.614 354.032 669.684 354.495C669.809 355.764 670.039 357.02 670.374 358.251C671.483 362.344 673.597 366.096 676.523 369.166C679.449 372.236 683.095 374.527 687.13 375.831C688.338 376.229 689.577 376.522 690.835 376.707C691.299 376.77 691.769 376.77 692.233 376.707C692.233 376.572 690.279 376.337 687.298 375.242C683.416 373.836 679.912 371.549 677.063 368.56C674.214 365.57 672.097 361.961 670.88 358.015C669.953 355.068 669.819 353.081 669.684 353.098Z"/><path fill="#6B78E0" d="M639.49 286.294C633.461 286.294 609.464 289.308 609.464 289.308L606.888 328.208L636.273 331.778L656.481 286.31C656.481 286.31 645.535 286.243 639.49 286.294Z"/><path fill="#263238" d="M625.277 228.381C625.359 227.998 625.572 227.656 625.879 227.413C626.187 227.17 626.569 227.042 626.961 227.051C626.739 226.838 626.579 226.569 626.498 226.272C626.418 225.975 626.421 225.662 626.506 225.367C626.687 224.966 627.017 224.652 627.426 224.492C627.835 224.331 628.291 224.337 628.695 224.508C628.421 224.077 628.26 223.584 628.229 223.075C628.197 222.566 628.295 222.056 628.514 221.595C628.733 221.134 629.065 220.736 629.479 220.438C629.894 220.141 630.378 219.953 630.885 219.894C630.559 219.4 630.381 218.823 630.372 218.231C630.364 217.639 630.525 217.057 630.837 216.554C631.148 216.051 631.598 215.648 632.131 215.392C632.665 215.137 633.261 215.039 633.848 215.111C633.462 214.77 633.214 214.3 633.149 213.788C633.084 213.277 633.207 212.76 633.496 212.333C633.785 211.906 634.219 211.599 634.718 211.468C635.216 211.338 635.745 211.394 636.206 211.625C636.064 211.167 636.055 210.678 636.179 210.214C636.303 209.751 636.556 209.332 636.908 209.006C637.26 208.681 637.698 208.461 638.169 208.373C638.641 208.285 639.128 208.333 639.574 208.51C639.491 208.046 639.529 207.57 639.682 207.124C639.836 206.679 640.101 206.281 640.452 205.967C640.803 205.653 641.228 205.435 641.688 205.331C642.147 205.228 642.625 205.244 643.077 205.378C642.951 204.923 642.992 204.439 643.193 204.013C643.394 203.586 643.741 203.246 644.171 203.054C644.607 202.882 645.09 202.873 645.532 203.027C645.974 203.182 646.345 203.49 646.579 203.896C646.39 203.346 646.405 202.746 646.622 202.206C646.838 201.666 647.241 201.222 647.758 200.954C648.274 200.687 648.87 200.614 649.436 200.749C650.001 200.884 650.5 201.218 650.84 201.69C650.712 201.175 650.765 200.632 650.988 200.151C651.212 199.67 651.593 199.28 652.069 199.046C652.558 198.837 653.105 198.806 653.615 198.956C654.125 199.107 654.567 199.43 654.865 199.871C654.834 199.158 655.022 198.453 655.404 197.851C655.787 197.249 656.345 196.778 657.003 196.503C657.671 196.253 658.4 196.22 659.087 196.411C659.774 196.602 660.383 197.005 660.826 197.564C660.869 196.931 661.153 196.339 661.62 195.91C662.087 195.481 662.701 195.247 663.335 195.257C664.604 195.324 665.831 195.732 666.888 196.436C667.137 195.944 667.54 195.549 668.037 195.311C668.534 195.074 669.095 195.007 669.633 195.122C670.705 195.383 671.705 195.878 672.563 196.57C672.708 195.941 673.016 195.36 673.456 194.886L675.426 195.728C674.764 195.306 674.276 194.659 674.051 193.907C673.827 193.154 673.882 192.345 674.205 191.63C674.528 190.914 675.098 190.338 675.811 190.008C676.524 189.679 677.332 189.617 678.087 189.835C676.908 188.302 678.272 186.18 679.569 184.783L680.714 183.536C681.035 183.135 681.429 182.797 681.876 182.543C682.356 182.333 682.897 182.307 683.394 182.472C683.892 182.637 684.311 182.98 684.57 183.435C684.493 182.917 684.599 182.389 684.87 181.94C685.14 181.491 685.558 181.151 686.052 180.977C686.553 180.829 687.089 180.861 687.569 181.067C688.049 181.273 688.441 181.64 688.679 182.105C689.004 181.633 689.439 181.246 689.947 180.98C690.454 180.713 691.019 180.573 691.592 180.573C692.166 180.573 692.731 180.713 693.238 180.98C693.746 181.246 694.181 181.633 694.506 182.105C694.506 181.044 696.072 180.791 696.998 181.297C697.924 181.802 698.682 182.711 699.777 182.745C700.415 182.684 701.046 182.566 701.663 182.391C702.448 182.29 703.241 182.502 703.871 182.981C704.501 183.46 704.918 184.168 705.031 184.951C706.037 184.591 707.137 184.591 708.144 184.95C709.151 185.309 710.002 186.006 710.554 186.921C713.183 187.037 715.709 187.974 717.778 189.599C718.823 190.256 719.985 191.653 719.092 192.529C719.609 192.46 720.135 192.505 720.633 192.66C721.131 192.814 721.589 193.075 721.977 193.424C722.364 193.773 722.671 194.202 722.877 194.681C723.082 195.161 723.182 195.679 723.167 196.2C723.698 196.108 724.243 196.158 724.748 196.345C725.253 196.533 725.7 196.85 726.042 197.266C726.384 197.682 726.61 198.181 726.697 198.713C726.783 199.244 726.728 199.789 726.535 200.292C726.911 200.224 727.298 200.262 727.652 200.402C728.007 200.543 728.315 200.78 728.541 201.088C728.768 201.395 728.903 201.759 728.933 202.139C728.962 202.52 728.884 202.901 728.708 203.239C729.108 203.169 729.519 203.204 729.901 203.343C730.283 203.481 730.622 203.717 730.885 204.027C731.147 204.337 731.323 204.71 731.396 205.11C731.47 205.509 731.437 205.921 731.301 206.304C732.53 205.95 733.49 207.685 732.985 208.847C732.307 209.94 731.243 210.74 730.004 211.086C730.929 210.905 731.887 211.086 732.682 211.592C733.406 212.181 733.49 213.545 732.682 213.932C733.202 213.936 733.716 214.052 734.187 214.271C734.659 214.491 735.078 214.81 735.415 215.207C735.752 215.603 736 216.067 736.141 216.568C736.283 217.069 736.315 217.594 736.235 218.109C736.629 218.101 737.016 218.207 737.35 218.415C737.685 218.623 737.952 218.923 738.119 219.279C738.286 219.635 738.347 220.033 738.294 220.423C738.24 220.812 738.075 221.179 737.818 221.477C738.247 221.719 738.607 222.067 738.864 222.487C739.121 222.908 739.266 223.387 739.286 223.879C739.307 224.371 739.201 224.861 738.979 225.301C738.758 225.741 738.428 226.117 738.02 226.394C738.6 226.806 739.09 227.33 739.461 227.936C739.832 228.542 740.077 229.217 740.181 229.921C740.285 230.624 740.246 231.341 740.065 232.028C739.885 232.716 739.567 233.36 739.132 233.921C739.46 234.141 739.722 234.447 739.888 234.806C740.053 235.165 740.116 235.563 740.069 235.956C740.021 236.348 739.866 236.72 739.621 237.03C739.375 237.339 739.048 237.575 738.677 237.71C738.983 238.278 739.149 238.91 739.162 239.555C739.175 240.2 739.034 240.839 738.751 241.418C738.468 241.997 738.051 242.501 737.534 242.887C737.017 243.273 736.416 243.531 735.78 243.638C736.333 243.575 736.89 243.71 737.353 244.019C737.815 244.327 738.154 244.789 738.309 245.323C738.465 245.857 738.426 246.428 738.201 246.937C737.975 247.445 737.577 247.857 737.077 248.101V248.353C736.993 248.858 736.673 249.313 736.555 249.801V249.919C736.698 250.313 736.767 250.73 736.757 251.149V251.418C736.935 251.915 737.065 252.428 737.144 252.95C737.346 255.342 734.719 257.11 733.002 259.03C732.059 260.082 731.338 261.314 730.88 262.65C730.392 264.2 729.6 266.321 727.832 266.018C728.086 266.385 728.238 266.813 728.273 267.257C728.308 267.702 728.225 268.148 728.031 268.55C727.838 268.952 727.542 269.296 727.172 269.546C726.803 269.797 726.374 269.945 725.929 269.976C726.855 270.228 726.72 271.525 725.929 272.114C725.088 272.591 724.202 272.986 723.285 273.293C722.325 273.798 721.601 274.607 720.759 275.179C720.339 275.51 719.831 275.711 719.298 275.756C718.765 275.801 718.231 275.688 717.762 275.432L717.61 275.735C718.132 276.122 717.947 277.015 717.425 277.419C716.855 277.75 716.194 277.891 715.539 277.823H713.35C710.48 278.94 707.381 279.333 704.323 278.968C703.704 279.568 702.91 279.955 702.056 280.073C701.203 280.191 700.333 280.034 699.575 279.625C698.676 280.179 697.661 280.518 696.61 280.618C695.559 280.717 694.499 280.573 693.512 280.197C692.607 279.846 691.815 279.253 691.222 278.485C690.628 277.716 690.256 276.801 690.144 275.836L687.551 275.398L678.036 278.53C676.132 279.4 673.988 279.596 671.957 279.086C671.254 279.661 670.389 280 669.483 280.058C668.576 280.115 667.675 279.887 666.905 279.406C665.933 280.099 664.785 280.503 663.593 280.572C662.401 280.64 661.214 280.37 660.169 279.793C659.749 280.429 659.163 280.938 658.474 281.264C657.785 281.591 657.021 281.723 656.262 281.646C655.573 281.504 654.876 281.402 654.174 281.343C652.81 281.343 651.261 282.319 650.2 281.578C649.577 281.141 649.526 280.299 649.004 279.743C648.23 279.201 647.333 278.86 646.394 278.749C645.468 278.497 643.801 274.034 644.138 273.226C641.932 273.344 640.349 269.555 639.372 266.321C638.559 265.769 637.973 264.943 637.719 263.993C637.466 263.044 637.562 262.036 637.991 261.152C636.756 260.592 635.696 259.708 634.924 258.592C634.153 257.477 633.7 256.173 633.613 254.82C632.703 254.82 632.03 253.978 631.794 253.136C631.685 252.229 631.459 251.34 631.12 250.492C630.682 249.768 629.891 249.263 629.622 248.454C629.485 247.901 629.485 247.323 629.622 246.77C630.026 244.682 630.413 242.577 630.817 240.489C630.475 240.402 630.159 240.231 629.9 239.991C629.64 239.751 629.445 239.45 629.331 239.116C629.217 238.781 629.189 238.423 629.249 238.075C629.308 237.727 629.454 237.399 629.672 237.121L627.449 235.706C627.516 235.415 627.648 235.143 627.834 234.91C628.021 234.677 628.258 234.488 628.527 234.359L626.557 233.248C626.858 232.969 627.079 232.613 627.194 232.219C627.31 231.824 627.317 231.406 627.213 231.008L631.036 229.998L627.011 231.042C626.519 230.784 626.101 230.404 625.797 229.938C625.493 229.472 625.314 228.936 625.277 228.381V228.381Z"/><path fill="#FFBE9D" d="M702.589 217.351L676.319 211.659C666.619 210.379 655.841 219.86 654.982 229.61C654.023 240.455 653.298 253.725 654.359 261.842C656.532 278.193 668.96 280.585 668.96 280.585L668.774 287.321C668.641 291.953 670.33 296.454 673.479 299.854C676.628 303.255 680.985 305.285 685.614 305.508V305.508C687.937 305.621 690.259 305.275 692.448 304.49C694.636 303.704 696.649 302.495 698.369 300.93C700.09 299.366 701.485 297.478 702.475 295.374C703.465 293.27 704.03 290.991 704.138 288.668L707.506 223.716C707.574 222.245 707.117 220.797 706.216 219.631C705.316 218.465 704.03 217.657 702.589 217.351V217.351Z"/><path fill="#263238" d="M657.357 240.843C657.352 241.377 657.551 241.893 657.914 242.284C658.278 242.676 658.777 242.913 659.31 242.948C659.576 242.975 659.845 242.95 660.101 242.872C660.357 242.794 660.595 242.666 660.8 242.495C661.006 242.324 661.175 242.113 661.298 241.876C661.421 241.638 661.495 241.379 661.516 241.112C661.531 240.568 661.333 240.039 660.966 239.637C660.598 239.235 660.09 238.991 659.546 238.957C659.277 238.929 659.005 238.956 658.747 239.037C658.489 239.118 658.25 239.251 658.045 239.428C657.84 239.604 657.673 239.821 657.555 240.064C657.437 240.307 657.369 240.572 657.357 240.843V240.843Z"/><path fill="#263238" d="M657.121 237.104C657.306 237.458 659.125 236.464 661.331 236.902C663.537 237.34 664.901 238.856 665.204 238.586C665.507 238.317 665.204 237.879 664.615 237.172C663.813 236.288 662.741 235.696 661.567 235.488C660.416 235.28 659.228 235.47 658.199 236.026C657.306 236.464 656.97 236.953 657.121 237.104Z"/><path fill="#263238" d="M679.35 242.24C679.331 242.783 679.525 243.312 679.889 243.714C680.254 244.117 680.761 244.361 681.303 244.396C681.568 244.424 681.836 244.399 682.09 244.322C682.345 244.245 682.582 244.118 682.788 243.949C682.993 243.78 683.163 243.571 683.287 243.336C683.41 243.1 683.486 242.842 683.509 242.577C683.524 242.031 683.327 241.5 682.96 241.096C682.593 240.691 682.084 240.444 681.539 240.405C681.274 240.379 681.007 240.407 680.753 240.486C680.499 240.565 680.264 240.693 680.06 240.864C679.856 241.035 679.688 241.244 679.567 241.481C679.445 241.717 679.371 241.975 679.35 242.24V242.24Z"/><path fill="#263238" d="M678.828 238.738C679.114 239.074 680.95 237.761 683.509 237.845C686.069 237.929 687.905 239.293 688.191 238.973C688.477 238.653 688.039 238.266 687.248 237.643C686.173 236.821 684.862 236.367 683.509 236.346C682.178 236.304 680.869 236.687 679.771 237.441C679.013 238.03 678.693 238.603 678.828 238.738Z"/><path fill="#263238" d="M671.25 254.028C670.072 253.633 668.851 253.384 667.613 253.287C667.04 253.287 666.501 253.085 666.417 252.681C666.388 252.09 666.534 251.505 666.838 250.997C667.427 249.616 668.017 248.185 668.657 246.669C670.324 243.008 671.692 239.218 672.749 235.336C670.769 238.852 669.08 242.524 667.697 246.316L666.013 250.66C665.636 251.348 665.511 252.146 665.659 252.917C665.74 253.12 665.865 253.303 666.025 253.451C666.185 253.6 666.377 253.711 666.585 253.776C666.897 253.869 667.22 253.92 667.545 253.927C668.77 254.124 670.016 254.158 671.25 254.028V254.028Z"/><path fill="#EB996E" d="M669.027 280.585C676.671 280.882 684.248 279.058 690.919 275.314C690.919 275.314 684.991 286.445 668.741 284.509L669.027 280.585Z"/><path fill="#263238" d="M677.902 233.669C678.188 234.258 680.394 233.669 683.055 233.804C685.715 233.938 687.888 234.376 688.191 233.804C688.326 233.517 687.888 232.978 686.978 232.473C685.765 231.867 684.429 231.545 683.073 231.53C681.716 231.516 680.374 231.809 679.148 232.389C678.222 232.844 677.784 233.399 677.902 233.669Z"/><path fill="#263238" d="M657.205 231.16C657.576 231.715 659.327 231.446 661.365 231.715C663.402 231.985 665.07 232.591 665.541 232.136C665.743 231.901 665.541 231.345 664.868 230.755C663.928 230.023 662.802 229.568 661.617 229.442C660.439 229.278 659.238 229.465 658.165 229.981C657.374 230.452 657.121 230.941 657.205 231.16Z"/><path fill="#FFBE9D" d="M705.25 246.164C705.485 246.063 714.983 243.301 714.663 252.984C714.343 262.667 704.677 260.343 704.677 260.057C704.677 259.771 705.25 246.164 705.25 246.164Z"/><path fill="#EB996E" d="M707.759 256.419C707.759 256.419 707.91 256.554 708.197 256.689C708.602 256.853 709.055 256.853 709.46 256.689C710.096 256.314 710.622 255.776 710.983 255.131C711.344 254.486 711.527 253.757 711.514 253.018C711.564 252.185 711.432 251.352 711.127 250.576C711.045 250.271 710.89 249.991 710.676 249.76C710.462 249.528 710.195 249.352 709.897 249.246C709.704 249.192 709.499 249.206 709.315 249.286C709.131 249.366 708.98 249.506 708.887 249.684C708.752 249.936 708.803 250.138 708.752 250.155C708.702 250.172 708.55 249.987 708.634 249.582C708.702 249.347 708.844 249.141 709.039 248.993C709.174 248.896 709.327 248.827 709.488 248.79C709.65 248.752 709.818 248.747 709.982 248.774C710.371 248.874 710.729 249.07 711.023 249.343C711.317 249.617 711.538 249.959 711.666 250.34C712.048 251.19 712.216 252.121 712.154 253.051C712.175 253.914 711.939 254.762 711.478 255.491C711.016 256.219 710.349 256.794 709.561 257.144C709.3 257.221 709.024 257.233 708.757 257.18C708.49 257.128 708.24 257.011 708.028 256.84C707.759 256.723 707.725 256.504 707.759 256.419Z"/><path fill="#263238" d="M719.698 268.426C714.966 269.976 716.6 247.225 712.575 244.295C708.55 241.365 707.321 252.631 701.915 248.555C698.396 245.912 700.838 244.278 698.85 240.354C696.223 235.184 688.427 234.427 685.766 229.274C684.217 226.259 684.823 222.538 683.139 219.557C681.455 216.576 678.289 215.499 675.19 214.791C672.092 214.084 668.842 213.714 666.114 212.08C663.386 210.447 661.415 207.028 662.746 204.064C676.09 204.067 689.386 205.662 702.353 208.813C705.367 209.537 708.533 210.497 710.554 212.821C712.575 215.145 712.996 218.816 713.232 222.066L716.718 269.791"/><path fill="#263238" d="M682.971 180.825C682.971 180.825 682.87 180.724 682.651 180.556C682.33 180.312 681.941 180.177 681.539 180.168C681.225 180.156 680.913 180.211 680.622 180.33C680.332 180.449 680.07 180.63 679.855 180.859C679.302 181.468 678.99 182.259 678.98 183.082V183.317L678.777 183.216C678.194 182.974 677.557 182.893 676.932 182.982C676.306 183.071 675.717 183.326 675.224 183.722C674.666 184.195 674.276 184.837 674.115 185.551C673.954 186.265 674.03 187.012 674.332 187.679L674.82 188.79L674.012 187.898C673.679 187.59 673.261 187.392 672.813 187.329C672.364 187.265 671.907 187.341 671.503 187.544C671.004 187.78 670.6 188.178 670.358 188.674C670.116 189.17 670.051 189.734 670.172 190.272C670.267 190.799 670.487 191.296 670.812 191.721C670.939 191.927 671.106 192.106 671.302 192.248C671.499 192.389 671.721 192.491 671.957 192.546C672.051 192.547 672.142 192.518 672.218 192.463C672.293 192.409 672.35 192.331 672.378 192.243C672.378 192.091 672.378 191.956 672.126 191.923C671.919 191.918 671.717 191.98 671.547 192.098C671.378 192.216 671.25 192.384 671.183 192.579C670.958 193.383 671.017 194.24 671.351 195.004C671.765 196.187 672.412 197.275 673.254 198.204C673.843 198.861 674.248 199.147 674.231 199.181C674.214 199.214 674.113 199.181 673.928 198.995C673.651 198.78 673.387 198.55 673.136 198.305C672.243 197.39 671.55 196.301 671.098 195.105C670.699 194.276 670.621 193.328 670.88 192.445C670.972 192.176 671.151 191.946 671.389 191.79C671.627 191.635 671.91 191.563 672.193 191.586C672.358 191.61 672.508 191.694 672.614 191.822C672.671 191.895 672.709 191.98 672.727 192.071C672.744 192.161 672.74 192.255 672.715 192.344C672.668 192.508 672.568 192.653 672.432 192.756C672.295 192.86 672.129 192.916 671.957 192.916C671.648 192.897 671.353 192.779 671.115 192.579C670.884 192.402 670.68 192.192 670.509 191.956C670.135 191.462 669.886 190.884 669.785 190.272C669.676 189.659 669.746 189.028 669.987 188.454C670.249 187.844 670.738 187.36 671.351 187.106C671.83 186.872 672.369 186.79 672.896 186.872C673.423 186.953 673.912 187.193 674.298 187.561L673.961 187.78C673.642 187.029 673.571 186.196 673.759 185.403C673.946 184.609 674.383 183.896 675.005 183.368C675.547 182.938 676.196 182.665 676.882 182.579C677.568 182.493 678.264 182.597 678.895 182.88L678.676 183.014C678.711 182.116 679.07 181.261 679.687 180.606C679.931 180.37 680.222 180.187 680.541 180.071C680.86 179.955 681.2 179.908 681.539 179.933C681.97 179.964 682.378 180.135 682.701 180.421C682.776 180.493 682.843 180.572 682.903 180.657C682.903 180.657 682.987 180.825 682.971 180.825Z"/><path fill="#263238" d="M648.701 200.696C648.701 200.696 648.701 200.696 648.583 200.494C648.525 200.268 648.525 200.03 648.583 199.804C648.672 199.429 648.886 199.097 649.19 198.861C649.385 198.691 649.62 198.572 649.873 198.516C650.126 198.46 650.389 198.469 650.638 198.541L650.486 198.675C650.452 198.389 650.484 198.099 650.581 197.827C650.677 197.556 650.835 197.31 651.042 197.109C651.27 196.859 651.559 196.672 651.88 196.566C652.202 196.459 652.545 196.438 652.878 196.503L652.675 196.621C652.797 196.015 653.043 195.442 653.4 194.937C653.615 194.664 653.909 194.464 654.242 194.364C654.423 194.307 654.615 194.29 654.804 194.313C654.992 194.336 655.174 194.4 655.336 194.499L655.05 194.617C655.134 194.122 655.368 193.664 655.721 193.306C656.073 192.948 656.526 192.706 657.02 192.613C657.556 192.539 658.101 192.642 658.572 192.906C659.043 193.171 659.415 193.582 659.63 194.078L660.287 195.678L659.277 194.28C659.137 194.065 659.04 193.825 658.99 193.573C658.926 193.178 658.975 192.773 659.129 192.403C659.284 192.034 659.539 191.716 659.866 191.485C660.181 191.279 660.539 191.148 660.913 191.101C661.286 191.054 661.666 191.093 662.022 191.215C662.713 191.417 663.31 191.859 663.706 192.462C664.054 193.002 664.283 193.611 664.379 194.247H664.026C664.077 193.895 664.239 193.569 664.487 193.315C664.735 193.061 665.057 192.892 665.407 192.832C665.986 192.735 666.581 192.843 667.091 193.135C667.939 193.576 668.668 194.218 669.212 195.004C669.576 195.492 669.782 196.08 669.802 196.688C669.816 196.845 669.816 197.003 669.802 197.16C669.802 197.278 669.802 197.328 669.802 197.311C669.802 197.295 669.802 197.093 669.802 196.688C669.759 196.073 669.53 195.486 669.145 195.004C668.588 194.296 667.881 193.721 667.074 193.32C666.596 193.06 666.043 192.971 665.508 193.068C665.231 193.12 664.977 193.256 664.781 193.458C664.585 193.66 664.457 193.918 664.413 194.196L664.312 195.796L664.076 194.213C664.002 193.616 663.769 193.049 663.402 192.572C663.035 192.095 662.547 191.726 661.988 191.502C661.685 191.399 661.363 191.365 661.045 191.403C660.728 191.44 660.423 191.549 660.152 191.721C659.894 191.912 659.692 192.169 659.567 192.465C659.443 192.762 659.4 193.086 659.445 193.405C659.48 193.598 659.554 193.781 659.664 193.943L659.327 194.129C659.15 193.714 658.842 193.368 658.449 193.146C658.057 192.924 657.602 192.837 657.155 192.899C656.735 192.973 656.348 193.174 656.047 193.475C655.745 193.777 655.544 194.164 655.471 194.583V194.87L655.235 194.701C654.987 194.583 654.707 194.554 654.44 194.618C654.173 194.683 653.937 194.837 653.77 195.055C653.441 195.507 653.211 196.023 653.096 196.57V196.722H652.945C652.665 196.668 652.376 196.686 652.105 196.775C651.834 196.863 651.59 197.019 651.396 197.227C651.216 197.397 651.077 197.604 650.987 197.834C650.896 198.064 650.858 198.311 650.874 198.558V198.743H650.688C650.476 198.679 650.251 198.669 650.034 198.713C649.816 198.757 649.613 198.854 649.442 198.995C649.159 199.201 648.948 199.489 648.836 199.821C648.707 200.093 648.66 200.397 648.701 200.696Z"/><path fill="#455A64" d="M714.495 227.101C714.713 226.608 714.822 226.074 714.815 225.535C714.79 224.896 714.611 224.272 714.293 223.716C713.864 222.969 713.165 222.415 712.339 222.167H712.221V222.049C712.325 221.717 712.332 221.362 712.243 221.025C712.153 220.689 711.971 220.384 711.716 220.146C711.431 219.889 711.071 219.73 710.689 219.692C710.22 219.713 709.759 219.564 709.392 219.271C709.086 218.886 708.888 218.427 708.82 217.94C708.751 217.597 708.606 217.274 708.396 216.995C708.186 216.715 707.916 216.486 707.606 216.325C707.296 216.163 706.954 216.073 706.604 216.061C706.255 216.05 705.907 216.116 705.587 216.256L704.896 216.576L705.384 215.987C705.682 215.607 705.844 215.139 705.844 214.657C705.844 214.174 705.682 213.706 705.384 213.326C705.031 212.948 704.552 212.712 704.038 212.663C703.523 212.613 703.008 212.753 702.589 213.057L702.134 213.41L702.303 212.855C702.489 212.167 702.453 211.438 702.199 210.772C701.944 210.106 701.486 209.538 700.888 209.15C700.241 208.762 699.483 208.603 698.735 208.698C697.987 208.793 697.292 209.136 696.762 209.672L696.358 210.093V209.52C696.445 208.484 696.203 207.447 695.668 206.557C695.186 205.724 694.488 205.037 693.647 204.569C692.821 204.13 691.883 203.948 690.953 204.047C690.062 204.138 689.209 204.455 688.475 204.968C687.741 205.48 687.151 206.172 686.759 206.978L686.557 207.449L686.406 206.961C686.271 206.559 686.05 206.192 685.76 205.883C685.469 205.575 685.115 205.334 684.722 205.176C683.939 204.842 683.064 204.789 682.246 205.024C680.742 205.538 679.474 206.579 678.676 207.954L678.575 208.106L678.441 207.988C677.709 207.365 676.852 206.907 675.929 206.642C675.005 206.378 674.036 206.314 673.085 206.455C671.629 206.661 670.283 207.349 669.263 208.409C668.601 209.079 668.08 209.875 667.73 210.75C667.495 211.356 667.427 211.693 667.41 211.693C667.446 211.358 667.525 211.03 667.646 210.716C667.965 209.813 668.47 208.987 669.128 208.291C670.162 207.171 671.545 206.435 673.052 206.203C674.039 206.054 675.046 206.114 676.009 206.378C676.972 206.642 677.869 207.104 678.643 207.735H678.407C679.248 206.287 680.58 205.187 682.162 204.637C683.052 204.384 684.001 204.437 684.857 204.788C685.312 204.963 685.723 205.234 686.064 205.582C686.404 205.931 686.664 206.35 686.827 206.809H686.473C686.884 205.937 687.514 205.186 688.302 204.631C689.091 204.076 690.01 203.736 690.969 203.643C691.976 203.529 692.994 203.729 693.883 204.216C694.793 204.709 695.551 205.443 696.072 206.338C696.642 207.303 696.9 208.42 696.813 209.537L696.459 209.386C697.025 208.783 697.777 208.389 698.594 208.267C699.411 208.145 700.245 208.303 700.962 208.713C701.679 209.124 702.236 209.765 702.543 210.532C702.851 211.299 702.891 212.147 702.656 212.939L702.37 212.737C702.597 212.516 702.865 212.341 703.159 212.224C703.453 212.106 703.767 212.048 704.084 212.052C704.4 212.055 704.713 212.122 705.004 212.247C705.295 212.371 705.559 212.552 705.78 212.779C706.001 213.006 706.176 213.274 706.293 213.568C706.411 213.862 706.469 214.176 706.465 214.493C706.461 214.809 706.395 215.122 706.27 215.413C706.146 215.704 705.965 215.968 705.738 216.189L705.536 215.92C706.043 215.711 706.602 215.662 707.137 215.779C707.673 215.897 708.16 216.175 708.533 216.576C709.325 217.351 709.123 218.547 709.679 219.119C710.003 219.363 710.401 219.488 710.807 219.473C711.243 219.518 711.652 219.708 711.969 220.012C712.261 220.282 712.467 220.631 712.563 221.017C712.659 221.403 712.64 221.809 712.508 222.184V222.032C713.377 222.314 714.105 222.916 714.545 223.716C714.862 224.301 715.03 224.954 715.034 225.619C715.034 226.029 714.954 226.436 714.798 226.815C714.711 226.925 714.609 227.021 714.495 227.101V227.101Z"/><path fill="#455A64" d="M637.166 228.937C637.033 228.759 636.92 228.567 636.829 228.364C636.529 227.823 636.27 227.26 636.055 226.68C635.692 225.735 635.621 224.702 635.852 223.716C636.011 223.081 636.337 222.5 636.795 222.032C637.045 221.772 637.346 221.566 637.68 221.427C638.013 221.287 638.371 221.219 638.732 221.224L638.564 221.426C638.485 220.879 638.542 220.321 638.73 219.801C638.918 219.281 639.231 218.816 639.641 218.446C640.073 218.011 640.612 217.699 641.203 217.539C641.795 217.38 642.418 217.379 643.009 217.536L642.774 217.755C642.671 217.165 642.694 216.56 642.842 215.979C642.99 215.399 643.26 214.856 643.632 214.387C644.035 213.884 644.548 213.481 645.133 213.209C645.717 212.937 646.356 212.805 647 212.821C647.506 212.823 648.008 212.914 648.482 213.09C648.92 213.225 649.392 213.343 649.695 213.09C649.998 212.838 650.065 212.383 650.352 211.962C650.617 211.556 650.961 211.207 651.362 210.935C652.104 210.43 652.997 210.194 653.892 210.267C654.787 210.341 655.63 210.719 656.279 211.339H655.976C656.136 210.466 656.407 209.617 656.784 208.813C657.122 208.065 657.721 207.467 658.468 207.129C659.16 206.885 659.915 206.885 660.607 207.129C661.188 207.281 661.752 207.489 662.291 207.752C663.045 208.124 663.742 208.6 664.362 209.167L664.817 209.638C664.918 209.756 664.969 209.824 664.952 209.824C664.133 209.065 663.208 208.43 662.207 207.937C661.665 207.694 661.101 207.502 660.523 207.365C660.186 207.248 659.829 207.199 659.473 207.221C659.116 207.242 658.768 207.334 658.447 207.49C658.126 207.647 657.84 207.865 657.604 208.132C657.367 208.4 657.186 208.711 657.071 209.049C656.719 209.827 656.47 210.648 656.33 211.491V211.844L656.094 211.575C655.499 211.025 654.733 210.695 653.925 210.64C653.116 210.585 652.313 210.808 651.648 211.272C651.285 211.508 650.975 211.818 650.739 212.181C650.63 212.371 650.535 212.568 650.453 212.771C650.367 213.033 650.203 213.263 649.981 213.427C649.741 213.58 649.454 213.64 649.173 213.596C648.92 213.568 648.672 213.511 648.432 213.427C647.673 213.153 646.849 213.118 646.069 213.325C645.29 213.533 644.592 213.974 644.07 214.589C643.738 215.014 643.497 215.501 643.36 216.023C643.224 216.544 643.197 217.088 643.279 217.62V217.924L642.976 217.839C642.452 217.695 641.899 217.693 641.375 217.835C640.85 217.978 640.374 218.258 639.995 218.648C639.621 218.97 639.332 219.38 639.156 219.842C638.98 220.303 638.921 220.802 638.985 221.292V221.494H638.783C638.47 221.491 638.16 221.551 637.871 221.67C637.582 221.788 637.32 221.963 637.099 222.184C636.681 222.602 636.374 223.117 636.206 223.683C635.965 224.624 636.012 225.615 636.341 226.529C636.745 228.112 637.233 228.903 637.166 228.937Z"/><path fill="#455A64" d="M730.324 211.928C730.287 211.402 730.168 210.885 729.971 210.396C729.72 209.813 729.346 209.29 728.876 208.864C728.244 208.285 727.439 207.93 726.586 207.853H726.434V207.718C726.747 206.964 726.747 206.116 726.434 205.361C726.268 204.922 726.006 204.525 725.669 204.199C725.331 203.873 724.925 203.626 724.481 203.475H724.346V203.34C724.459 202.96 724.49 202.561 724.438 202.168C724.386 201.775 724.251 201.398 724.043 201.061C723.834 200.724 723.557 200.435 723.229 200.212C722.901 199.99 722.53 199.839 722.14 199.77C721.648 199.79 721.163 199.648 720.759 199.366C720.338 198.911 720.507 198.339 720.338 197.968C720.151 197.565 719.813 197.253 719.397 197.098C718.98 196.943 718.52 196.96 718.115 197.143L717.93 197.261V197.042C717.772 196.553 717.516 196.102 717.178 195.715C716.84 195.329 716.427 195.015 715.964 194.793C715.501 194.571 714.997 194.445 714.484 194.424C713.971 194.402 713.459 194.485 712.979 194.668H712.811V194.482C712.596 194.033 712.285 193.638 711.899 193.324C711.513 193.01 711.062 192.785 710.579 192.666C710.096 192.547 709.593 192.536 709.105 192.635C708.617 192.733 708.158 192.939 707.759 193.236L707.557 193.405L707.456 193.169C707.145 192.727 706.732 192.367 706.253 192.119C705.774 191.87 705.242 191.74 704.702 191.74C704.163 191.74 703.631 191.87 703.151 192.119C702.672 192.367 702.26 192.727 701.949 193.169L701.747 193.522L701.595 193.152C701.385 192.656 701.008 192.249 700.53 192C700.053 191.751 699.503 191.675 698.976 191.787C698.449 191.898 697.977 192.189 697.64 192.61C697.304 193.031 697.125 193.556 697.133 194.095V194.634L696.779 194.23C696.348 193.802 695.823 193.482 695.245 193.294C694.668 193.107 694.055 193.058 693.455 193.152C692.855 193.245 692.286 193.478 691.792 193.832C691.299 194.186 690.896 194.651 690.616 195.19L690.498 195.493L690.296 195.24C689.804 194.653 689.151 194.222 688.418 194.002C687.684 193.781 686.902 193.78 686.168 193.998C685.434 194.217 684.78 194.645 684.287 195.231C683.793 195.817 683.482 196.534 683.391 197.295V197.547L683.156 197.429C682.354 197.008 681.455 196.806 680.55 196.843C679.645 196.879 678.766 197.154 678.001 197.639C677.236 198.124 676.612 198.802 676.193 199.605C675.773 200.408 675.573 201.307 675.611 202.212V202.38H675.443C673.432 202.2 671.429 202.803 669.852 204.064C668.673 205.022 667.81 206.313 667.377 207.769C667.094 208.69 666.98 209.654 667.04 210.615C667.04 211.289 667.175 211.625 667.141 211.625C667.044 211.302 666.982 210.969 666.956 210.632C666.858 209.658 666.949 208.674 667.225 207.735C667.631 206.22 668.503 204.871 669.717 203.879C671.331 202.557 673.399 201.922 675.477 202.111L675.325 202.262C675.29 201.305 675.507 200.356 675.954 199.509C676.401 198.662 677.062 197.948 677.872 197.436C678.682 196.925 679.611 196.635 680.568 196.595C681.525 196.556 682.475 196.768 683.324 197.21L683.055 197.362C683.149 196.526 683.486 195.737 684.025 195.092C684.564 194.446 685.28 193.973 686.085 193.731C686.89 193.489 687.749 193.489 688.554 193.73C689.36 193.971 690.076 194.444 690.616 195.089H690.296C690.579 194.483 691.009 193.957 691.548 193.56C692.086 193.163 692.715 192.907 693.377 192.815C694.051 192.682 694.747 192.722 695.401 192.931C696.055 193.14 696.645 193.512 697.116 194.011L696.762 194.145C696.77 193.603 696.932 193.073 697.23 192.62C697.529 192.166 697.951 191.807 698.446 191.586C699.107 191.344 699.835 191.361 700.485 191.632C701.134 191.904 701.657 192.411 701.949 193.051H701.578C701.913 192.533 702.372 192.107 702.913 191.812C703.454 191.517 704.061 191.363 704.677 191.363C705.293 191.363 705.9 191.517 706.441 191.812C706.983 192.107 707.441 192.533 707.776 193.051H707.472C707.914 192.681 708.441 192.427 709.005 192.309C709.569 192.192 710.153 192.215 710.706 192.377C711.243 192.5 711.743 192.754 712.16 193.115C712.577 193.476 712.898 193.934 713.097 194.449L712.861 194.348C713.389 194.147 713.951 194.057 714.515 194.081C715.079 194.106 715.631 194.246 716.139 194.492C716.647 194.738 717.099 195.085 717.468 195.512C717.836 195.939 718.114 196.437 718.284 196.975L718.031 196.874C718.272 196.749 718.536 196.676 718.807 196.659C719.078 196.643 719.349 196.684 719.603 196.779C719.857 196.874 720.088 197.022 720.282 197.212C720.475 197.403 720.626 197.631 720.725 197.884C720.911 198.389 720.725 198.911 721.062 199.164C721.423 199.394 721.847 199.506 722.275 199.484C722.726 199.56 723.154 199.74 723.525 200.009C723.896 200.277 724.2 200.628 724.413 201.033C724.628 201.392 724.764 201.792 724.81 202.208C724.857 202.623 724.813 203.044 724.683 203.441L724.599 203.273C725.082 203.434 725.523 203.702 725.887 204.058C726.252 204.414 726.531 204.848 726.704 205.327C726.876 205.726 726.965 206.156 726.965 206.59C726.965 207.025 726.876 207.454 726.704 207.853V207.718C727.596 207.817 728.431 208.208 729.078 208.83C729.574 209.294 729.95 209.872 730.173 210.514C730.325 210.883 730.411 211.277 730.425 211.676C730.396 211.762 730.363 211.846 730.324 211.928V211.928Z"/><path fill="#E0E0E0" d="M715.455 256.42C715.455 256.42 715.572 256.42 715.774 256.537C716.068 256.666 716.346 256.83 716.6 257.026C717.562 257.719 718.3 258.679 718.721 259.788C719.315 261.46 719.315 263.285 718.721 264.957C718.339 265.94 717.707 266.805 716.886 267.467C716.033 268.2 715.007 268.705 713.905 268.932C712.767 269.101 711.604 268.961 710.537 268.527C709.551 268.169 708.678 267.553 708.011 266.742C707.448 266.04 707.034 265.229 706.797 264.36C706.559 263.491 706.503 262.582 706.63 261.69C706.773 260.513 707.253 259.402 708.011 258.491C708.227 258.253 708.477 258.049 708.752 257.885L709.055 257.75C708.71 257.988 708.399 258.271 708.129 258.592C707.441 259.503 707.021 260.588 706.917 261.724C706.819 262.559 706.89 263.404 707.124 264.211C707.358 265.018 707.751 265.77 708.281 266.422C708.911 267.189 709.738 267.771 710.672 268.106C711.655 268.496 712.722 268.629 713.771 268.494C714.807 268.27 715.772 267.796 716.583 267.113C717.331 266.486 717.91 265.681 718.267 264.772C718.824 263.175 718.824 261.436 718.267 259.838C717.886 258.758 717.209 257.806 716.313 257.093C715.859 256.554 715.438 256.42 715.455 256.42Z"/><path fill="#EB996E" d="M677.329 256.807C676.86 256.326 676.231 256.032 675.561 255.982C675.073 255.904 674.575 255.935 674.1 256.072C673.626 256.209 673.187 256.448 672.816 256.773C672.454 257.108 672.201 257.544 672.09 258.024C671.978 258.505 672.014 259.008 672.193 259.468V259.215C672.257 259.691 672.447 260.142 672.743 260.521C673.039 260.899 673.43 261.193 673.877 261.371C674.318 261.546 674.795 261.612 675.268 261.562C675.74 261.512 676.193 261.348 676.588 261.084C676.978 260.817 677.302 260.464 677.536 260.052C677.769 259.641 677.906 259.182 677.935 258.71C677.969 258.368 677.932 258.023 677.828 257.696C677.724 257.369 677.554 257.066 677.329 256.807V256.807Z"/><path fill="#263238" d="M707.894 244.379C707.834 245.06 707.568 245.707 707.132 246.233C706.696 246.759 706.11 247.141 705.452 247.326C706.075 247.326 706.226 248.336 705.789 248.774C705.555 248.962 705.284 249.098 704.994 249.174C704.703 249.249 704.4 249.262 704.105 249.212C702.601 249.064 701.152 248.567 699.874 247.76C698.597 246.953 697.525 245.859 696.746 244.564C696.353 244.403 696.002 244.154 695.719 243.838C695.436 243.521 695.228 243.144 695.112 242.736C694.995 242.328 694.972 241.898 695.045 241.48C695.118 241.062 695.285 240.665 695.533 240.321C694.935 240.106 694.441 239.671 694.153 239.104C693.865 238.538 693.805 237.882 693.984 237.273C693.678 237.325 693.365 237.307 693.068 237.22C692.771 237.132 692.497 236.978 692.27 236.768C692.042 236.558 691.865 236.298 691.754 236.009C691.642 235.72 691.598 235.409 691.626 235.1C688.51 233.596 685.723 231.49 683.425 228.903C683.035 228.396 682.844 227.763 682.887 227.124C682.93 226.485 683.206 225.884 683.661 225.434C683.357 225.309 683.089 225.11 682.882 224.855C682.675 224.6 682.535 224.297 682.475 223.974C682.415 223.651 682.436 223.318 682.537 223.005C682.639 222.693 682.816 222.41 683.055 222.184C682.811 222.122 682.583 222.011 682.383 221.859C682.183 221.706 682.016 221.515 681.892 221.296C681.768 221.078 681.689 220.837 681.66 220.587C681.631 220.337 681.653 220.084 681.724 219.843C680.596 219.742 674.988 219.271 674.988 218.159C671.856 217.199 670.425 215.616 670.29 214.791C670.155 213.966 668.522 214.135 668.421 213.293C668.269 212.164 669.768 211.609 670.93 211.609C674.362 211.472 677.774 212.183 680.866 213.68C684.34 215.555 687.527 217.92 690.33 220.702L694.337 224.323C695.348 225.232 696.459 226.461 696.021 227.691C696.981 227.202 698.143 228.044 698.615 229.038C699.086 230.031 699.154 231.16 699.676 232.103C700.224 232.904 700.85 233.648 701.545 234.326C701.892 234.664 702.152 235.081 702.304 235.541C702.457 236.001 702.497 236.491 702.421 236.969C703.257 236.885 704.098 237.085 704.807 237.537C705.516 237.989 706.051 238.667 706.327 239.462C707.186 238.889 708.416 239.782 708.567 240.809C708.615 241.849 708.313 242.875 707.708 243.722"/><path fill="#455A64" d="M675.645 241.415C675.601 240.692 675.601 239.966 675.645 239.243C675.853 237.602 676.521 236.054 677.573 234.778C678.626 233.502 680.018 232.551 681.59 232.035C683.06 231.561 684.63 231.491 686.136 231.833C686.948 231.997 687.727 232.293 688.443 232.709C689.209 233.115 689.903 233.644 690.498 234.275C691.77 235.596 692.586 237.289 692.829 239.106C693.071 240.924 692.726 242.771 691.845 244.379C691.441 245.142 690.918 245.835 690.296 246.434C689.704 247.013 689.028 247.502 688.292 247.882C686.924 248.6 685.39 248.943 683.846 248.875C682.503 248.809 681.193 248.428 680.024 247.764C678.309 246.808 676.968 245.301 676.218 243.487C675.964 242.817 675.755 242.13 675.595 241.432C675.572 241.617 675.572 241.803 675.595 241.988C675.628 242.21 675.679 242.43 675.746 242.645C675.81 242.951 675.906 243.25 676.032 243.537C676.747 245.42 678.092 246.997 679.838 248C681.039 248.704 682.389 249.114 683.779 249.195C685.377 249.274 686.969 248.932 688.393 248.202C689.167 247.805 689.876 247.294 690.498 246.686C691.17 246.068 691.738 245.346 692.182 244.547C693.103 242.876 693.463 240.952 693.208 239.06C692.954 237.168 692.098 235.408 690.767 234.039C690.153 233.363 689.43 232.794 688.629 232.355C687.872 231.929 687.054 231.622 686.204 231.446C684.636 231.116 683.009 231.209 681.489 231.715C679.877 232.255 678.456 233.247 677.393 234.573C676.33 235.899 675.67 237.502 675.494 239.192C675.494 239.546 675.494 239.866 675.494 240.135C675.473 240.359 675.473 240.585 675.494 240.809C675.517 241.017 675.568 241.221 675.645 241.415Z"/><path fill="#455A64" d="M650.655 240.186C650.61 239.468 650.61 238.748 650.655 238.03C650.909 236.058 651.823 234.23 653.248 232.844C654.197 231.905 655.349 231.196 656.616 230.772C658.084 230.293 659.655 230.217 661.163 230.553C661.975 230.714 662.755 231.01 663.47 231.429C664.235 231.837 664.928 232.366 665.524 232.995C666.796 234.316 667.612 236.009 667.855 237.826C668.097 239.644 667.753 241.491 666.871 243.099C666.467 243.862 665.944 244.555 665.322 245.154C664.734 245.739 664.058 246.228 663.318 246.602C661.95 247.32 660.416 247.663 658.872 247.595C657.53 247.534 656.221 247.159 655.05 246.501C653.337 245.534 651.998 244.023 651.244 242.207C650.99 241.537 650.782 240.85 650.621 240.152C650.595 240.337 650.595 240.524 650.621 240.708C650.641 240.937 650.686 241.163 650.756 241.382C650.822 241.682 650.918 241.975 651.042 242.257C651.754 244.146 653.099 245.729 654.848 246.737C656.142 247.486 657.606 247.896 659.101 247.928C660.597 247.961 662.076 247.615 663.402 246.922C664.176 246.525 664.886 246.014 665.507 245.406C666.183 244.791 666.752 244.068 667.191 243.268C668.113 241.596 668.472 239.672 668.218 237.78C667.963 235.888 667.107 234.128 665.777 232.759C665.158 232.088 664.436 231.52 663.638 231.076C662.881 230.649 662.063 230.342 661.213 230.166C659.645 229.837 658.018 229.93 656.498 230.436C654.884 230.974 653.461 231.968 652.4 233.298C651.339 234.628 650.686 236.236 650.52 237.929C650.496 238.238 650.496 238.547 650.52 238.856C650.5 239.085 650.5 239.316 650.52 239.546C650.534 239.765 650.579 239.98 650.655 240.186Z"/><path fill="#455A64" d="M651.396 233.467C652.251 232.196 653.412 231.161 654.771 230.455C656.13 229.749 657.644 229.395 659.176 229.425C662.735 229.701 666.043 231.364 668.387 234.056C671 233.349 673.777 233.563 676.251 234.662C677.273 233.345 678.586 232.284 680.089 231.562C681.591 230.84 683.24 230.477 684.907 230.503C689.875 230.503 693.546 235.454 693.546 235.454L697.47 236.026L697.082 239.529L692.67 238.99C692.67 238.99 690.835 232.591 685.412 232.254C678.121 231.783 676.874 237.172 676.874 237.172L675.19 236.969L675.746 235.942C673.513 235.126 671.081 235.032 668.791 235.673V236.919H667.562C666.947 235.192 665.801 233.705 664.288 232.67C662.776 231.636 660.974 231.107 659.142 231.16C657.126 231.135 655.171 231.852 653.65 233.175C652.129 234.498 651.146 236.334 650.89 238.333L647.994 238.014L648.095 234.561L651.396 233.467Z"/><path fill="#fff" d="M684.755 247.882C685.309 248.015 685.886 248.015 686.439 247.882C687.731 247.629 688.933 247.042 689.926 246.179C690.919 245.316 691.668 244.208 692.098 242.964C692.313 242.471 692.417 241.936 692.401 241.398C692.401 241.398 692.232 241.988 691.845 242.88C691.365 244.041 690.62 245.074 689.67 245.896C688.72 246.717 687.59 247.305 686.372 247.612C685.362 247.797 684.755 247.831 684.755 247.882Z"/><path fill="#fff" d="M661.146 246.147C661.581 246.185 662.019 246.122 662.426 245.962C663.428 245.628 664.331 245.049 665.053 244.278C665.795 243.538 666.339 242.623 666.636 241.617C666.795 241.217 666.859 240.784 666.821 240.354C666.648 240.737 666.501 241.13 666.383 241.533C666.023 242.463 665.479 243.311 664.783 244.025C664.093 244.755 663.255 245.329 662.325 245.709C661.925 245.835 661.531 245.981 661.146 246.147Z"/><path fill="#FFBE9D" d="M682.701 393.631L730.358 378.273L727.259 367.496L755.163 356.348C759.12 367.479 762.051 374.703 763.128 383.089C763.128 383.595 763.246 384.1 763.263 384.605C763.5 390.2 761.641 395.683 758.05 399.98C754.459 404.278 749.395 407.082 743.847 407.844L686.372 411.684L682.701 393.631Z"/><path fill="#263238" d="M678.407 254.432C678.053 254.432 677.75 256.79 675.46 258.255C673.17 259.72 670.627 259.148 670.576 259.484C670.526 259.821 671.082 260.023 672.176 260.192C673.598 260.387 675.042 260.071 676.251 259.299C677.416 258.568 678.246 257.406 678.559 256.066C678.777 255.072 678.575 254.432 678.407 254.432Z"/><path fill="#FAFAFA" d="M475.357 241.979L436.503 406.856L642.734 455.455L681.588 290.578L475.357 241.979Z"/><path fill="#263238" d="M681.59 290.571C681.59 290.571 681.236 290.571 680.579 290.369L677.683 289.712L666.467 287.136L624.199 277.335L475.25 242.51L475.907 242.106C464.355 291.177 451.119 347.439 437.175 406.968L436.72 406.244L642.858 454.962L642.235 455.333C654.023 405.722 663.823 364.582 670.677 335.769C674.129 321.388 676.824 310.105 678.676 302.376C679.602 298.536 680.36 295.64 680.815 293.568C681.27 291.497 681.59 290.52 681.59 290.52C681.59 290.52 681.387 291.514 680.95 293.484C680.512 295.454 679.821 298.418 678.946 302.224C677.161 309.937 674.551 321.203 671.233 335.567C664.497 364.431 654.848 405.722 643.228 455.518L643.11 456.023L642.622 455.905L436.35 407.457L435.76 407.305L435.895 406.716C449.94 347.187 463.226 290.941 474.795 241.87L474.93 241.331L475.469 241.449L624.654 276.897L666.754 287.001L677.834 289.678L680.663 290.369L681.59 290.571Z"/><path fill="#455A64" d="M479.444 256.417L445.387 400.048L636.471 445.357L670.528 301.725L479.444 256.417Z"/><path fill="#455A64" d="M446.05 398.144L534.139 324.352L562.413 390.179L597.609 366.839L637.806 443.343L446.05 398.144Z"/><path fill="#455A64" d="M595.824 327.299C595.116 330.282 593.54 332.989 591.294 335.078C589.049 337.166 586.235 338.541 583.207 339.031C580.18 339.52 577.076 339.101 574.287 337.826C571.498 336.552 569.149 334.479 567.538 331.87C565.926 329.261 565.124 326.233 565.233 323.169C565.342 320.104 566.357 317.141 568.15 314.653C569.942 312.165 572.432 310.264 575.305 309.191C578.178 308.118 581.304 307.92 584.289 308.623C586.273 309.091 588.146 309.945 589.8 311.137C591.454 312.329 592.857 313.835 593.928 315.569C595 317.304 595.719 319.233 596.044 321.245C596.369 323.258 596.294 325.315 595.824 327.299Z"/><g opacity=".3"><path fill="#000" d="M446.05 398.144L534.139 324.352L562.413 390.179L597.609 366.839L637.806 443.343L446.05 398.144Z" opacity=".3"/></g><g opacity=".3"><path fill="#000" d="M595.824 327.299C595.116 330.282 593.54 332.989 591.294 335.078C589.049 337.166 586.235 338.541 583.207 339.031C580.18 339.52 577.076 339.101 574.287 337.826C571.498 336.552 569.149 334.479 567.538 331.87C565.926 329.261 565.124 326.233 565.233 323.169C565.342 320.104 566.357 317.141 568.15 314.653C569.942 312.165 572.432 310.264 575.305 309.191C578.178 308.118 581.304 307.92 584.289 308.623C586.273 309.091 588.146 309.945 589.8 311.137C591.454 312.329 592.857 313.835 593.928 315.569C595 317.304 595.719 319.233 596.044 321.245C596.369 323.258 596.294 325.315 595.824 327.299Z" opacity=".3"/></g><path fill="#FFBE9D" d="M561.588 263.341C562.297 262.108 562.722 260.733 562.835 259.316C562.867 258.609 562.685 257.909 562.313 257.308C561.94 256.707 561.394 256.233 560.746 255.948C560.113 255.815 559.459 255.81 558.823 255.931C558.187 256.052 557.582 256.299 557.042 256.655C555.953 257.368 554.688 257.765 553.387 257.8C552.453 257.568 551.531 257.287 550.626 256.958C549.683 256.756 548.47 257.076 548.234 258.002C548.181 258.325 548.223 258.656 548.355 258.955C548.486 259.254 548.702 259.508 548.975 259.686C549.514 260.029 550.115 260.264 550.743 260.377L562.077 263.122"/><path fill="#FFBE9D" d="M529.491 251.368C529.491 251.368 532.186 260.006 533.466 260.209C534.53 260.195 535.565 259.854 536.429 259.232C536.429 259.232 535.941 267.281 541.178 268.292C541.178 268.292 542.138 270.75 543.923 270.919C545.708 271.087 546.028 268.847 546.028 268.847C546.028 268.847 548.925 272.215 549.986 268.494C550.864 264.474 551.478 260.402 551.821 256.302C551.821 256.302 550.76 252.479 549.144 252.934C548.231 253.116 547.396 253.575 546.752 254.247C545.854 252.999 544.707 251.95 543.384 251.166C542.908 250.917 542.36 250.845 541.836 250.962C541.312 251.079 540.846 251.378 540.522 251.805C540.522 251.805 538.097 248.067 536.598 249.162C535.099 250.256 535.823 251.283 535.823 251.283C535.823 251.283 532.674 248.875 531.327 249.498C530.525 249.901 529.88 250.559 529.491 251.368V251.368Z"/><path fill="#EB996E" d="M545.978 268.78C546.47 266.347 546.718 263.87 546.719 261.387C546.958 258.912 546.958 256.419 546.719 253.944C546.238 256.379 545.995 258.855 545.995 261.337C545.745 263.811 545.74 266.304 545.978 268.78V268.78Z"/><path fill="#EB996E" d="M536.43 259.164C536.768 257.851 536.865 256.488 536.716 255.14C536.81 253.768 536.555 252.395 535.975 251.149C535.82 252.48 535.82 253.825 535.975 255.157C535.884 256.509 536.038 257.867 536.43 259.164V259.164Z"/><path fill="#EB996E" d="M541.246 268.292C541.495 265.491 541.495 262.673 541.246 259.872C541.265 257.089 541.034 254.311 540.555 251.57C540.306 254.371 540.306 257.188 540.555 259.99C540.536 262.772 540.767 265.551 541.246 268.292Z"/><path fill="#FFBE9D" d="M682.701 393.631L662.173 385.565L632.72 392.132C633.143 393.164 633.853 394.053 634.767 394.692C635.681 395.331 636.759 395.693 637.873 395.736C642.016 396.174 652.878 394.052 652.878 394.052L635.179 400.114C635.179 400.114 638.547 403.668 642.521 402.792C646.495 401.916 656.414 399.862 656.414 399.862L644.525 406.076C645.062 407.007 645.883 407.743 646.867 408.176C647.851 408.61 648.948 408.717 649.998 408.484C654.157 408.046 661.601 404.644 661.601 404.644C661.601 404.644 676.874 411.633 681.657 411.633C686.44 411.633 688.393 411.498 688.393 411.498L682.701 393.631Z"/><path fill="#FFBE9D" d="M660.489 385.919C660.624 385.919 638.968 384.824 638.968 384.824C638.793 385.343 638.803 385.907 638.997 386.419C639.19 386.932 639.555 387.362 640.029 387.636C641.713 388.967 648.449 389.775 648.449 389.775L660.489 385.919Z"/><path fill="#EB996E" d="M660.893 385.498C659.587 386.057 658.227 386.48 656.835 386.761C654.292 387.417 650.773 388.293 646.866 389.202C642.959 390.112 639.422 390.886 636.762 391.392C635.386 391.76 633.975 391.98 632.552 392.048C633.864 391.491 635.23 391.068 636.627 390.785C639.17 390.112 642.689 389.253 646.579 388.344C650.469 387.434 654.023 386.66 656.599 386.154C658.002 385.78 659.442 385.559 660.893 385.498V385.498Z"/><path fill="#EB996E" d="M660.944 393.345C660.944 393.597 658.873 393.345 656.431 393.665C653.989 393.985 652.069 394.692 651.968 394.456C653.261 393.555 654.754 392.982 656.318 392.788C657.883 392.595 659.47 392.786 660.944 393.345Z"/><path fill="#EB996E" d="M663.47 400.148C662.348 399.709 661.178 399.404 659.984 399.239C658.784 399.322 657.597 399.542 656.448 399.896C656.363 399.811 656.633 399.424 657.256 399.037C658.093 398.552 659.052 398.319 660.018 398.363C660.982 398.384 661.919 398.689 662.712 399.239C663.302 399.66 663.537 400.064 663.47 400.148Z"/><path fill="#6B78E0" d="M75.3695 631.613C77.6889 632.554 79.7934 633.956 81.556 635.733C83.3187 637.51 84.7029 639.626 85.625 641.953C87.4624 646.628 88.1943 651.665 87.7637 656.671C87.2417 666.32 82.3581 676.323 76.9188 684.322C68.4988 677.737 65.8718 665.545 64.9456 659.281C63.5142 649.379 66.8991 630.653 75.3695 631.613"/><path fill="#6B78E0" d="M87.2418 699.612C86.5285 696.903 86.5454 694.053 87.2908 691.353C88.0362 688.652 89.4835 686.197 91.4854 684.238C93.5056 682.323 95.8852 680.829 98.4867 679.84C101.088 678.852 103.86 678.389 106.641 678.478C107.934 678.387 109.23 678.58 110.44 679.042C111.65 679.505 112.745 680.226 113.647 681.156C114.338 682.148 114.75 683.308 114.839 684.514C114.928 685.72 114.691 686.927 114.152 688.01C113.05 690.172 111.394 692.002 109.353 693.314C102.617 698.114 95.2071 701.515 87.1576 699.612"/><path fill="#263238" d="M78.586 729.621C78.5803 728.955 78.6367 728.29 78.7544 727.634C78.9228 726.236 79.1585 724.418 79.428 722.245C79.9753 716.261 81.4999 710.408 83.9411 704.917C86.4728 699.416 90.4257 694.69 95.3922 691.226C96.9097 690.215 98.5367 689.379 100.242 688.734C100.848 688.498 101.337 688.397 101.657 688.296C101.977 688.195 102.162 688.161 102.162 688.195C99.891 689.092 97.7184 690.221 95.6785 691.563C90.8863 695.082 87.0628 699.758 84.5641 705.153C82.1749 710.588 80.6085 716.349 79.9163 722.245C79.5458 724.519 79.2596 726.337 79.0238 727.6C78.9315 728.285 78.7851 728.96 78.586 729.621V729.621Z"/><path fill="#263238" d="M74.0392 646.129C74.1297 646.407 74.1807 646.696 74.1907 646.988C74.1907 647.628 74.3591 648.436 74.477 649.446C74.7296 651.585 75.0327 654.7 75.3695 658.523C76.0768 666.202 76.8851 676.811 77.5082 688.548C78.1313 700.286 78.4681 710.929 78.6028 718.625C78.6028 722.481 78.687 725.596 78.687 727.752C78.687 728.762 78.687 729.587 78.687 730.227C78.7203 730.513 78.7203 730.801 78.687 731.086C78.6613 730.8 78.6613 730.513 78.687 730.227C78.687 729.587 78.6533 728.762 78.586 727.752C78.586 725.512 78.4007 722.414 78.266 718.641C78.0134 710.946 77.6092 700.32 76.9862 688.582C76.3631 676.845 75.6221 666.252 75.0496 658.573C74.7801 654.801 74.5444 651.703 74.376 649.48C74.376 648.453 74.2581 647.644 74.2244 647.004C74.1362 646.719 74.0742 646.426 74.0392 646.129Z"/><path fill="#6B78E0" d="M73.6014 706.264C72.2832 700.502 69.6094 695.137 65.8019 690.615C61.9945 686.092 57.1634 682.544 51.7095 680.263C48.9478 679.118 45.3609 678.478 43.2896 680.617C41.2183 682.756 41.8918 686.343 43.138 689.037C45.8462 694.696 50.1714 699.425 55.5667 702.626C60.962 705.827 67.1853 707.357 73.4498 707.022"/><path fill="#263238" d="M53.5956 689.205C54.1737 689.379 54.7368 689.598 55.2796 689.862C55.9635 690.122 56.6276 690.432 57.2667 690.788C58.1463 691.204 59.001 691.671 59.8264 692.186C60.8732 692.822 61.885 693.513 62.8576 694.257C63.9603 695.039 65.0226 695.877 66.0403 696.766C68.3353 698.863 70.391 701.206 72.17 703.755C73.8903 706.349 75.3137 709.128 76.4137 712.04C76.8749 713.315 77.2684 714.614 77.5925 715.93C77.9293 717.16 78.0977 718.338 78.2829 719.399C78.4682 720.46 78.5018 721.454 78.586 722.296C78.634 723.03 78.634 723.767 78.586 724.502C78.617 725.127 78.5831 725.753 78.485 726.371C78.3334 726.371 78.485 723.693 77.744 719.484C77.5485 718.347 77.2899 717.223 76.9694 716.116C76.6352 714.82 76.2304 713.544 75.7569 712.293C74.646 709.447 73.2287 706.732 71.5301 704.193C69.7845 701.683 67.7808 699.364 65.5519 697.272C64.5725 696.363 63.5437 695.508 62.4702 694.712C61.4935 693.92 60.5 693.297 59.6243 692.708C56.0374 690.384 53.5451 689.424 53.5956 689.205Z"/></svg>