<svg width="772" height="708" viewBox="0 0 772 708" fill="none" xmlns="http://www.w3.org/2000/svg">
<path d="M714.974 131.995C684.525 82.4426 633.752 48.3329 576.113 40.5244C553.672 37.4489 530.871 38.2329 508.695 42.8426C442.654 56.7863 385.189 106.129 361.362 169.294C347.419 206.437 343.445 249.209 316.847 278.7C282.249 317.045 223.512 318.283 171.868 316.696C120.224 315.11 61.4338 316.452 27.0103 355.042C5.48476 379.112 -1.48708 413.431 0.25588 445.745C4.8573 531.29 65.2334 607.841 142.011 645.802C218.788 683.764 309.178 687.232 393.206 670.517C510.943 647.075 622.928 582.742 690.207 483.341C754.313 388.663 772.806 261.27 727.837 156.693C724.158 148.158 719.858 139.903 714.974 131.995V131.995Z" fill="#E0E0E0"/>
<path d="M771.063 706.841C771.063 707.085 599.189 707.294 387.21 707.294C175.232 707.294 3.32349 707.085 3.32349 706.841C3.32349 706.597 175.162 706.37 387.21 706.37C599.259 706.37 771.063 706.579 771.063 706.841Z" fill="#263238"/>
<path d="M215.198 436.194C242.893 408.306 242.597 365.743 234.614 328.967C233.272 322.814 232.767 316.174 228.845 311.293C224.923 306.413 217.376 303.955 212.322 307.563C208.121 310.561 207.093 316.278 205.35 321.141C203 327.66 198.848 333.378 193.376 337.629C189.89 340.383 185.184 342.51 180.914 341.115C175.04 339.146 173.07 331.895 171.99 325.742C169.991 314.274 167.975 302.811 165.942 291.354C164.861 285.201 163.746 278.927 160.713 273.436C157.68 267.946 152.538 263.31 146.386 262.734C140.233 262.159 133.627 266.848 133.488 273.088C133.723 275.674 134.13 278.242 134.708 280.774C135.004 283.354 134.324 286.386 132.041 287.537C129.758 288.687 126.934 287.415 124.773 285.951C117.296 280.896 111.544 273.75 106.071 266.482C100.598 259.214 95.2124 251.841 88.2231 246.124C81.2338 240.407 72.3099 236.485 63.4208 237.584C54.5317 238.682 46.1306 245.845 45.4857 254.874C44.8408 263.902 51.4989 271.815 58.2616 277.828C68.311 286.748 79.6009 294.163 91.7788 299.842C94.0906 300.62 96.0935 302.116 97.4957 304.112C99.5698 307.964 96.4325 312.74 92.6328 314.832C88.3277 317.185 83.2731 317.62 78.5846 319.049C73.896 320.479 69.1028 323.546 68.1268 328.409C66.7499 335.154 73.1988 340.767 79.1597 344.096C91.0604 350.837 104.031 355.482 117.505 357.83C122.333 358.667 127.353 359.242 131.571 361.752C135.788 364.262 138.996 369.386 137.584 374.127C136.172 378.868 130.769 381.273 125.871 381.256C120.973 381.238 116.285 379.513 111.457 378.554C102.428 376.916 91.6219 379.478 87.5434 387.757C84.8766 393.212 85.8004 399.958 88.6066 405.343C91.6963 410.599 95.8096 415.18 100.703 418.817C117.01 432.459 136.649 441.524 157.61 445.083C178.421 448.307 196.914 446.826 215.128 436.176" fill="#6B78E0"/>
<path d="M220.671 463.541C215.831 446.693 209.381 430.35 201.411 414.738C191.59 395.694 180.684 377.229 168.748 359.434L159.458 345.386C156.39 340.767 153.34 336.2 150.098 331.93C143.845 323.7 137.142 315.821 130.019 308.33C123.274 301.149 116.616 294.596 110.341 288.495C104.067 282.395 98.1405 276.835 92.4062 272.007C83.5205 264.321 74.0315 257.362 64.0308 251.196C60.5448 249 57.7038 247.396 55.804 246.333L53.6253 245.131C53.3842 244.98 53.1269 244.857 52.8584 244.765C53.0833 244.941 53.3224 245.098 53.573 245.235L55.682 246.542C57.5644 247.658 60.3183 249.331 63.8042 251.58C73.6778 257.885 83.0639 264.923 91.8833 272.634C97.4956 277.497 103.422 283.092 109.679 289.175C115.936 295.258 122.542 301.899 129.252 309.08C136.33 316.54 142.992 324.384 149.209 332.575C152.434 336.845 155.432 341.29 158.499 345.996C161.567 350.702 164.652 355.303 167.807 360.044C179.713 377.798 190.618 396.203 200.47 415.174C208.443 430.729 214.938 446.998 219.869 463.767" fill="#263238"/>
<path d="M149.767 331.93C149.916 331.032 149.957 330.119 149.889 329.211C149.889 327.468 149.889 324.906 149.715 321.768C149.471 315.494 148.826 306.831 148.094 297.367C147.362 287.903 146.856 279.188 146.699 272.966C146.699 269.846 146.577 267.301 146.56 265.558C146.628 264.644 146.581 263.724 146.421 262.822C146.233 263.716 146.134 264.627 146.124 265.541C145.985 267.284 145.915 269.828 145.898 272.966C145.898 279.258 146.211 287.938 146.961 297.506C147.71 307.075 148.39 315.424 148.896 321.908C149.122 324.836 149.296 327.311 149.436 329.315C149.448 330.197 149.559 331.074 149.767 331.93V331.93Z" fill="#263238"/>
<path d="M68.0745 331.564C69.1528 331.591 70.2314 331.527 71.2989 331.372C73.3556 331.18 76.3361 330.884 80.0137 330.658C87.3865 330.117 97.6002 329.734 108.895 329.803C120.189 329.873 130.403 330.396 137.793 330.989C141.488 331.25 144.468 331.546 146.508 331.738C147.573 331.915 148.654 331.979 149.732 331.93C148.695 331.626 147.634 331.41 146.56 331.285C144.521 330.971 141.54 330.536 137.845 330.169C130.455 329.368 120.206 328.723 108.877 328.636C99.2127 328.541 89.5498 328.942 79.9266 329.838C76.2315 330.169 73.251 330.588 71.2118 330.919C70.1465 331.024 69.095 331.241 68.0745 331.564V331.564Z" fill="#263238"/>
<path d="M200.174 413.466C200.333 413.125 200.456 412.769 200.54 412.402L201.376 409.3C202.073 406.598 202.997 402.659 204.078 397.796C206.239 388.036 208.801 374.493 211.433 359.451C214.065 344.41 216.505 330.902 218.405 321.106C219.364 316.348 220.148 312.391 220.758 309.533C221.002 308.278 221.211 307.232 221.385 306.378C221.475 306.013 221.522 305.639 221.525 305.263C221.525 305.263 221.351 305.611 221.159 306.326L220.322 309.428C219.608 312.13 218.684 316.052 217.603 320.932C215.442 330.675 212.88 344.235 210.248 359.277C207.616 374.319 205.193 387.844 203.276 397.622C202.3 402.363 201.533 406.337 200.923 409.178C200.662 410.45 200.47 411.496 200.296 412.333C200.211 412.704 200.17 413.085 200.174 413.466V413.466Z" fill="#263238"/>
<path d="M89.0249 398.755C89.3879 398.869 89.7617 398.945 90.1404 398.982L93.3823 399.452L105.287 401.056C115.344 402.398 129.2 404.42 144.521 406.668C159.841 408.917 173.733 410.834 183.825 411.897C188.862 412.472 192.94 412.891 195.764 413.135L199.023 413.379C199.405 413.428 199.792 413.428 200.173 413.379C199.816 413.242 199.44 413.159 199.058 413.135L195.816 412.664L183.912 411.078C173.855 409.718 159.998 407.696 144.678 405.448C129.357 403.2 115.466 401.282 105.391 400.219C100.337 399.644 96.2582 399.226 93.4346 398.982L90.1752 398.738C89.7938 398.675 89.4042 398.681 89.0249 398.755V398.755Z" fill="#263238"/>
<path d="M532.417 120.23C535.043 118.038 537.043 115.191 538.216 111.977C539.388 108.763 539.69 105.297 539.092 101.929C538.428 98.5766 537.105 95.3896 535.199 92.5531C533.293 89.7166 530.842 87.287 527.989 85.4056C525.392 83.6626 522.168 82.1985 519.153 83.1049C517.76 83.6023 516.527 84.465 515.583 85.6027C514.638 86.7403 514.017 88.1111 513.784 89.5713C513.338 92.5144 513.687 95.5234 514.795 98.2861C518.089 107.837 523.039 116.465 532.417 120.265" fill="#455A64"/>
<path d="M541.253 136.544C546.627 131.746 553.064 128.295 560.035 126.476C567.006 124.658 574.309 124.524 581.341 126.086C584.915 126.906 588.923 128.805 589.516 132.413C590.108 136.021 586.867 139.106 583.694 140.936C577.003 144.657 569.359 146.311 561.728 145.691C554.097 145.07 546.82 142.203 540.818 137.45" fill="#455A64"/>
<path d="M592.427 61.0216C589.449 60.3127 586.359 60.2144 583.342 60.7327C580.326 61.2509 577.445 62.3749 574.875 64.037C569.742 67.3855 565.448 71.8702 562.326 77.144C555.999 87.1312 553.785 100.535 553.506 112.334C566.596 111.812 577.803 101.511 583.137 95.9331C591.59 87.1138 601.525 66.0239 592.409 61.0739" fill="#455A64"/>
<path d="M521.401 154.375C522.594 152.803 523.683 151.155 524.66 149.442C528.061 142.795 530.547 135.718 532.051 128.404C533.521 120.991 532.954 113.317 530.412 106.199C529.607 104.072 528.541 102.052 527.24 100.186C526.299 98.8787 525.689 98.2513 525.619 98.3036C527.141 100.938 528.452 103.689 529.541 106.53C531.746 113.526 532.159 120.963 530.743 128.16C529.223 135.375 526.884 142.392 523.772 149.076" fill="#263238"/>
<path d="M521.401 154.531L528.216 145.817C533.968 138.374 541.916 128.108 550.874 116.901C559.833 105.694 568.043 95.6368 574.021 88.3687L581.08 79.7584C581.995 78.7418 582.818 77.6452 583.537 76.4817C582.504 77.3565 581.543 78.3123 580.662 79.3401C578.919 81.2748 576.374 84.1333 573.289 87.6889C567.119 94.7828 558.77 104.752 549.829 115.977C540.887 127.202 533.027 137.572 527.466 145.172C524.695 148.971 522.482 152.144 520.983 154.235" fill="#263238"/>
<path d="M573.184 133.808C572.461 133.467 571.692 133.232 570.901 133.11C570.003 132.87 569.088 132.695 568.165 132.588C566.947 132.386 565.719 132.252 564.487 132.187C561.276 131.993 558.053 132.115 554.866 132.553C547.022 133.633 539.538 136.527 533.009 141.006C530.354 142.834 527.89 144.925 525.654 147.246C524.788 148.122 523.973 149.047 523.214 150.017C522.572 150.718 521.989 151.47 521.471 152.266C520.617 153.538 520.739 154.131 520.808 154.183C522.507 152 524.316 149.906 526.229 147.908C528.506 145.729 530.973 143.757 533.602 142.017C536.836 139.95 540.263 138.199 543.833 136.788C547.433 135.428 551.157 134.424 554.953 133.79C558.065 133.299 561.215 133.083 564.365 133.145C569.838 133.267 573.132 134.034 573.184 133.808Z" fill="#263238"/>
<path d="M471.587 706.614L238.257 705.534C210.195 705.412 187.554 681.934 187.711 653.088L190.239 52.0106C190.361 23.1646 213.211 -0.138814 241.29 0.000622494L474.62 1.08126C502.682 1.20327 525.323 24.6809 525.166 53.5269L522.621 654.604C522.516 683.45 499.666 706.754 471.587 706.614Z" fill="#263238"/>
<path d="M506.673 549.085C506.673 550.103 506.371 551.098 505.805 551.944C505.239 552.79 504.435 553.449 503.495 553.837C502.554 554.226 501.519 554.327 500.522 554.127C499.524 553.927 498.608 553.436 497.889 552.715C497.171 551.994 496.683 551.076 496.486 550.078C496.29 549.079 496.394 548.045 496.786 547.106C497.178 546.166 497.839 545.365 498.687 544.802C499.535 544.239 500.531 543.94 501.549 543.944C502.909 543.948 504.213 544.492 505.173 545.456C506.134 546.42 506.673 547.725 506.673 549.085Z" fill="#E0E0E0"/>
<path d="M501.549 560.362C500.944 556.628 500.944 552.82 501.549 549.085C502.153 552.82 502.153 556.628 501.549 560.362V560.362Z" fill="#E0E0E0"/>
<path d="M479.274 20.9161L432.615 20.7418C431.092 20.769 429.59 21.0959 428.195 21.7036C426.799 22.3114 425.536 23.1882 424.479 24.284C423.422 25.3798 422.592 26.673 422.035 28.0899C421.478 29.5068 421.205 31.0195 421.233 32.5416V40.995C421.28 44.0632 420.108 47.0247 417.974 49.2301C415.841 51.4356 412.92 52.705 409.851 52.76L318.886 52.3417C315.813 52.255 312.9 50.953 310.786 48.7213C308.672 46.4895 307.53 43.5103 307.609 40.4373V31.9839C307.651 30.4616 307.393 28.9461 306.848 27.5238C306.304 26.1016 305.485 24.8005 304.438 23.6949C303.39 22.5894 302.136 21.7011 300.745 21.0807C299.354 20.4604 297.855 20.1201 296.332 20.0795H279.914L239.041 19.818C234.215 19.7951 229.432 20.7242 224.965 22.552C220.498 24.3799 216.436 27.0707 213.01 30.4705C209.584 33.8702 206.863 37.9121 205.001 42.3649C203.139 46.8177 202.174 51.5939 202.16 56.4202L199.668 645.349C199.645 650.175 200.574 654.959 202.402 659.425C204.23 663.892 206.921 667.955 210.32 671.38C213.72 674.806 217.762 677.528 222.215 679.389C226.668 681.251 231.444 682.216 236.27 682.23L476.467 683.346C481.293 683.366 486.075 682.436 490.541 680.607C495.007 678.778 499.068 676.087 502.494 672.688C505.919 669.289 508.64 665.248 510.503 660.796C512.366 656.344 513.332 651.569 513.348 646.743L515.823 57.7971C515.861 48.0617 512.032 38.7095 505.179 31.7944C498.326 24.8794 489.009 20.9668 479.274 20.9161V20.9161Z" fill="#FAFAFA"/>
<path d="M215.651 485.659C217.708 484.125 318.154 439.871 318.154 439.871L200.818 381.343L200.417 475.654L215.651 485.659Z" fill="#EBEBEB"/>
<path d="M221.786 379.53L307.383 336.026L215.407 285.027L201.219 288.582L200.871 371.094L221.786 379.53Z" fill="#6B78E0"/>
<path opacity="0.7" d="M221.786 379.53L307.383 336.026L215.407 285.027L201.219 288.582L200.871 371.094L221.786 379.53Z" fill="white"/>
<path d="M204.304 279.101L468.136 155.874L206.744 70.451L204.304 279.101Z" fill="#EBEBEB"/>
<path d="M201.237 600.015L321.797 538.14L501.27 643.728L458.515 681.219H305.361L201.237 617.584V600.015Z" fill="#EBEBEB"/>
<path d="M345.536 531.447L494.629 619.85L511.257 617.967V532.963L429.547 489.72L345.536 531.447Z" fill="#EBEBEB"/>
<path d="M370.042 447.035L510.612 526.113V422.738L459.752 400.951L370.042 447.035Z" fill="#EBEBEB"/>
<path d="M219.904 490.609L302.363 535.856L402.444 484.021L322.93 443.584L219.904 490.609Z" fill="#EBEBEB"/>
<path d="M343.689 335.451L460.502 393.334L514.673 365.674L515.022 326.875L436.118 288.583L343.689 335.451Z" fill="#EBEBEB"/>
<path d="M224.226 385.944L341.04 443.828L395.211 416.167L395.559 377.369L316.638 339.076L224.226 385.944Z" fill="#EBEBEB"/>
<path d="M240.401 281.907L335.601 329.577L424.388 281.907L332.394 239.937L240.401 281.907Z" fill="#EBEBEB"/>
<path d="M424.388 586.542C423.784 586.3 423.201 586.008 422.645 585.67L417.73 582.899L398.819 571.97L328.821 530.924L327.375 530.07L328.874 529.303L420.71 482.626V484.753L352.142 448.151L349.981 447L352.159 445.85L447.395 395.862V398.284L436.031 392.533L222.692 284.295L220.688 283.284L222.727 282.308L336.02 228.276L367.393 213.478L375.655 209.679L377.798 208.738C378.038 208.624 378.29 208.537 378.548 208.476C378.342 208.647 378.113 208.788 377.868 208.894L375.811 209.975L367.637 214.21L336.473 229.566L223.686 284.417V282.36L437.251 390.127L448.615 395.879L450.968 397.082L448.632 398.302L353.327 448.185V445.885L421.808 482.626L423.83 483.707L421.791 484.735L329.675 530.959V529.338L399.254 571.169L417.904 582.515L422.697 585.513C423.293 585.799 423.86 586.143 424.388 586.542V586.542Z" fill="#6B78E0"/>
<path d="M403.908 152.579C403.908 135.15 385.642 124.169 367.009 132.884C362.801 134.854 359.358 138.156 357.214 142.278C352.525 151.359 354.6 161.73 358.835 170.34L373.336 207.082C373.79 208.257 374.589 209.268 375.628 209.981C376.667 210.694 377.898 211.075 379.158 211.075C380.418 211.075 381.649 210.694 382.688 209.981C383.727 209.268 384.526 208.257 384.979 207.082L399.185 170.148C404.117 158.854 403.908 152.579 403.908 152.579ZM386.478 167.708C373.946 174.994 361.258 161.538 368.125 148.257C369.026 146.505 370.403 145.042 372.099 144.039C384.631 136.753 397.32 150.209 390.452 163.49C389.533 165.252 388.13 166.715 386.409 167.708H386.478Z" fill="#6B78E0"/>
<path d="M376.09 342.806L375.672 322.274L429.198 348.192V369.526L376.09 342.806Z" fill="#F5F5F5"/>
<path d="M429.198 348.192L495.675 315.163V338.152L429.198 369.526V348.192Z" fill="#E0E0E0"/>
<path d="M375.672 322.274L440.911 289.646L495.675 315.163L429.198 348.192L375.672 322.274Z" fill="#F5F5F5"/>
<path d="M382.661 331.146V341.098L387.89 343.451V333.934L382.661 331.146Z" fill="#FAFAFA"/>
<path d="M391.028 334.823V344.793L396.274 347.146V337.629L391.028 334.823Z" fill="#FAFAFA"/>
<path d="M207.686 213.252V186.532L271.042 217.226V242.464L207.686 213.252Z" fill="#E0E0E0"/>
<path d="M271.042 217.226L349.754 178.114V205.339L271.042 242.464V217.226Z" fill="#F5F5F5"/>
<path d="M207.686 186.532L284.899 147.926L349.754 178.114L271.042 217.226L207.686 186.532Z" fill="#FAFAFA"/>
<path d="M215.965 197.025V208.825L222.152 211.613V200.337L215.965 197.025Z" fill="#FAFAFA"/>
<path d="M225.865 201.4V213.182L232.07 215.988V204.711L225.865 201.4Z" fill="#FAFAFA"/>
<path d="M398.679 436.595V457.65L421.338 468.787V447.035L398.679 436.595Z" fill="#E0E0E0"/>
<path d="M450.096 433.248L421.25 447.035V468.787L450.096 452.682V433.248Z" fill="#E0E0E0"/>
<path d="M398.679 436.595L427.264 422.738L450.097 433.248L421.251 447.035L398.679 436.595Z" fill="#F5F5F5"/>
<path d="M406.697 451.706V461.658L411.926 464.029V454.512L406.697 451.706Z" fill="#FAFAFA"/>
<path d="M216.278 425.701V446.756L238.85 457.894V436.141L216.278 425.701Z" fill="#E0E0E0"/>
<path d="M267.713 422.355L238.85 436.142V457.894L267.713 441.789V422.355Z" fill="#E0E0E0"/>
<path d="M216.278 425.701L244.88 411.845L267.713 422.355L238.85 436.142L216.278 425.701Z" fill="#F5F5F5"/>
<path d="M224.296 440.813V450.765L229.525 453.135V443.619L224.296 440.813Z" fill="#FAFAFA"/>
<path d="M309.893 286.718V307.79L332.464 318.927V297.175L309.893 286.718Z" fill="#F5F5F5"/>
<path d="M361.328 283.389L332.464 297.175V318.928L361.328 302.823V283.389Z" fill="#E0E0E0"/>
<path d="M309.893 286.718L338.495 272.878L361.328 283.388L332.464 297.175L309.893 286.718Z" fill="#F5F5F5"/>
<path d="M317.91 301.846V311.799L323.139 314.169V304.635L317.91 301.846Z" fill="#E0E0E0"/>
<path d="M284.794 467.166V488.239L307.366 499.359V477.624L284.794 467.166Z" fill="#E0E0E0"/>
<path d="M336.229 463.82L307.383 477.624V499.359L336.229 483.271V463.82Z" fill="#EBEBEB"/>
<path d="M284.794 467.166L313.396 453.327L336.229 463.82L307.383 477.624L284.794 467.166Z" fill="#F5F5F5"/>
<path d="M292.812 482.278V492.247L298.041 494.6V485.084L292.812 482.278Z" fill="#FAFAFA"/>
<path d="M378.008 518.043V544.449L425.538 572.458V545.199L378.008 518.043Z" fill="#F5F5F5"/>
<path d="M461.774 525.712L425.59 545.199V572.458L461.774 552.275V525.712Z" fill="#E0E0E0"/>
<path d="M378.008 518.026L413.878 500.666L461.774 525.712L425.59 545.199L378.008 518.026Z" fill="#FAFAFA"/>
<path d="M395.978 542.462V554.942L402.549 558.881V546.541L395.978 542.462Z" fill="#FAFAFA"/>
<path d="M263.547 572.389V598.795L311.13 626.821V599.544L263.547 572.389Z" fill="#E0E0E0"/>
<path d="M367.916 568.781L311.13 599.544V626.821L368.073 595.256L367.916 568.781Z" fill="#FAFAFA"/>
<path d="M263.547 572.389L323.61 543.299L368.073 568.885L311.13 599.544L263.547 572.389Z" fill="#F5F5F5"/>
<path d="M281.517 596.808V609.305L288.071 613.244V600.886L281.517 596.808Z" fill="#FAFAFA"/>
<path d="M443.665 473.65V579.117L473.365 594.472V487.681L443.665 473.65Z" fill="#F5F5F5"/>
<path d="M465.609 463.541L443.665 473.65L473.365 487.681L493.339 476.421L465.609 463.541Z" fill="#FAFAFA"/>
<path d="M473.365 487.681V594.472L491.439 584.746L493.339 476.421L473.365 487.681Z" fill="#E0E0E0"/>
<path d="M318.154 388.228V493.694L347.854 509.05V402.258L318.154 388.228Z" fill="#F5F5F5"/>
<path d="M340.081 378.101L318.154 388.228L347.854 402.258L367.829 390.999L340.081 378.101Z" fill="#FAFAFA"/>
<path d="M347.854 402.258V509.05L365.912 500.143L367.829 390.999L347.854 402.258Z" fill="#E0E0E0"/>
<path d="M331.627 588.79V615.196L379.228 643.223V615.963L331.627 588.79Z" fill="#E0E0E0"/>
<path d="M415.394 596.477L379.228 615.963V643.223L415.394 623.039V596.477Z" fill="#FAFAFA"/>
<path d="M331.627 588.79L367.916 568.781L415.394 596.476L379.228 615.963L331.627 588.79Z" fill="#F5F5F5"/>
<path d="M349.597 613.209V625.706L356.168 629.645V617.288L349.597 613.209Z" fill="#FAFAFA"/>
<path d="M437.46 273.959L350.8 234.899L471.483 173.477L511.083 232.529L437.46 273.959Z" fill="#EBEBEB"/>
<path d="M514.603 309.829L515.196 242.202L448.005 280.443L514.603 309.829Z" fill="#6B78E0"/>
<path d="M463.552 377.561C463.535 378.574 463.219 379.559 462.644 380.393C462.068 381.227 461.259 381.873 460.319 382.248C459.378 382.624 458.347 382.714 457.355 382.506C456.363 382.297 455.455 381.801 454.745 381.079C454.035 380.356 453.554 379.44 453.362 378.445C453.171 377.45 453.278 376.421 453.669 375.486C454.061 374.552 454.72 373.754 455.563 373.193C456.407 372.631 457.397 372.332 458.41 372.332C459.782 372.355 461.09 372.916 462.052 373.894C463.014 374.872 463.552 376.189 463.552 377.561V377.561Z" fill="#E0E0E0"/>
<path d="M458.41 388.838C457.806 385.103 457.806 381.295 458.41 377.561C459.014 381.295 459.014 385.103 458.41 388.838V388.838Z" fill="#E0E0E0"/>
<path d="M323.296 364.959C323.296 365.993 322.989 367.004 322.415 367.864C321.84 368.724 321.024 369.394 320.068 369.79C319.113 370.186 318.061 370.289 317.047 370.088C316.033 369.886 315.101 369.388 314.37 368.657C313.639 367.925 313.141 366.993 312.939 365.979C312.737 364.965 312.841 363.914 313.236 362.958C313.632 362.003 314.302 361.186 315.162 360.611C316.022 360.037 317.033 359.73 318.067 359.73C318.757 359.718 319.442 359.846 320.082 360.104C320.722 360.363 321.303 360.748 321.791 361.235C322.279 361.723 322.664 362.304 322.922 362.944C323.181 363.584 323.308 364.269 323.296 364.959V364.959Z" fill="#E0E0E0"/>
<path d="M318.154 376.306C317.55 372.571 317.55 368.764 318.154 365.029C318.759 368.764 318.759 372.571 318.154 376.306V376.306Z" fill="#E0E0E0"/>
<path d="M254.589 436.734C254.589 437.751 254.287 438.745 253.722 439.591C253.157 440.436 252.354 441.095 251.415 441.484C250.475 441.874 249.441 441.975 248.444 441.777C247.446 441.579 246.53 441.089 245.811 440.37C245.092 439.651 244.602 438.735 244.404 437.737C244.206 436.74 244.307 435.706 244.697 434.766C245.086 433.827 245.745 433.024 246.59 432.459C247.436 431.894 248.43 431.592 249.447 431.592C250.811 431.592 252.118 432.134 253.083 433.098C254.047 434.063 254.589 435.37 254.589 436.734V436.734Z" fill="#E0E0E0"/>
<path d="M249.499 448.011C248.895 444.276 248.895 440.469 249.499 436.734C250.103 440.469 250.103 444.276 249.499 448.011V448.011Z" fill="#E0E0E0"/>
<path d="M259.73 381.343C259.73 382.356 259.431 383.347 258.869 384.19C258.308 385.034 257.51 385.693 256.576 386.084C255.641 386.476 254.612 386.583 253.617 386.391C252.622 386.2 251.706 385.719 250.983 385.008C250.261 384.298 249.765 383.39 249.556 382.398C249.348 381.407 249.438 380.376 249.814 379.435C250.189 378.494 250.835 377.685 251.669 377.11C252.503 376.534 253.488 376.218 254.501 376.201C255.184 376.19 255.862 376.314 256.496 376.567C257.13 376.821 257.707 377.197 258.194 377.676C258.68 378.155 259.067 378.725 259.331 379.355C259.595 379.984 259.73 380.66 259.73 381.343V381.343Z" fill="#E0E0E0"/>
<path d="M254.589 392.62C253.984 388.885 253.984 385.078 254.589 381.343C255.193 385.078 255.193 388.885 254.589 392.62V392.62Z" fill="#E0E0E0"/>
<path d="M386.618 376.306C386.639 377.348 386.347 378.372 385.782 379.248C385.216 380.123 384.402 380.809 383.443 381.219C382.484 381.628 381.425 381.741 380.402 381.544C379.378 381.347 378.437 380.849 377.699 380.113C376.961 379.378 376.459 378.438 376.259 377.415C376.058 376.392 376.168 375.333 376.574 374.373C376.98 373.413 377.664 372.596 378.537 372.028C379.411 371.459 380.434 371.164 381.476 371.181C382.837 371.181 384.142 371.721 385.106 372.681C386.07 373.642 386.613 374.945 386.618 376.306V376.306Z" fill="#E0E0E0"/>
<path d="M381.476 387.53C380.872 383.796 380.872 379.988 381.476 376.253C382.08 379.988 382.08 383.796 381.476 387.53Z" fill="#E0E0E0"/>
<path d="M467.823 414.773C467.823 415.79 467.521 416.784 466.956 417.629C466.391 418.475 465.588 419.134 464.648 419.523C463.709 419.912 462.675 420.014 461.678 419.816C460.68 419.617 459.764 419.128 459.045 418.409C458.326 417.69 457.836 416.773 457.638 415.776C457.439 414.779 457.541 413.745 457.93 412.805C458.32 411.866 458.979 411.063 459.824 410.498C460.67 409.933 461.664 409.631 462.681 409.631C464.044 409.631 465.352 410.173 466.317 411.137C467.281 412.101 467.823 413.409 467.823 414.773Z" fill="#E0E0E0"/>
<path d="M462.681 426.05C462.077 422.315 462.077 418.508 462.681 414.773C463.285 418.508 463.285 422.315 462.681 426.05V426.05Z" fill="#E0E0E0"/>
<path d="M471.099 445.013C471.099 446.03 470.798 447.024 470.233 447.87C469.668 448.715 468.865 449.374 467.925 449.764C466.986 450.153 465.952 450.255 464.954 450.056C463.957 449.858 463.041 449.368 462.322 448.649C461.603 447.93 461.113 447.014 460.914 446.016C460.716 445.019 460.818 443.985 461.207 443.046C461.596 442.106 462.255 441.303 463.101 440.738C463.946 440.173 464.94 439.872 465.957 439.872C467.321 439.872 468.629 440.413 469.593 441.378C470.557 442.342 471.099 443.65 471.099 445.013Z" fill="#E0E0E0"/>
<path d="M465.957 456.29C465.353 452.556 465.353 448.748 465.957 445.013C466.562 448.748 466.562 452.556 465.957 456.29V456.29Z" fill="#E0E0E0"/>
<path d="M326.939 507.76C326.939 508.773 326.639 509.764 326.078 510.607C325.517 511.451 324.719 512.11 323.785 512.501C322.85 512.893 321.821 513 320.826 512.808C319.831 512.617 318.915 512.136 318.192 511.425C317.47 510.715 316.973 509.807 316.765 508.815C316.557 507.824 316.647 506.793 317.022 505.852C317.398 504.911 318.044 504.102 318.878 503.527C319.712 502.951 320.697 502.635 321.71 502.618C322.393 502.606 323.071 502.731 323.705 502.984C324.338 503.237 324.916 503.614 325.402 504.093C325.889 504.571 326.276 505.142 326.539 505.772C326.803 506.401 326.939 507.077 326.939 507.76V507.76Z" fill="#E0E0E0"/>
<path d="M321.797 519.037C321.193 515.302 321.193 511.494 321.797 507.76C322.401 511.494 322.401 515.302 321.797 519.037Z" fill="#E0E0E0"/>
<path d="M490.707 602.542C493.547 602.542 495.849 600.24 495.849 597.4C495.849 594.561 493.547 592.259 490.707 592.259C487.868 592.259 485.566 594.561 485.566 597.4C485.566 600.24 487.868 602.542 490.707 602.542Z" fill="#E0E0E0"/>
<path d="M490.707 608.677C490.103 604.943 490.103 601.135 490.707 597.4C491.312 601.135 491.312 604.943 490.707 608.677V608.677Z" fill="#E0E0E0"/>
<path d="M397.651 653.628C397.668 654.67 397.374 655.692 396.806 656.565C396.238 657.439 395.423 658.122 394.464 658.529C393.505 658.935 392.446 659.046 391.424 658.847C390.401 658.648 389.462 658.148 388.725 657.412C387.989 656.675 387.489 655.736 387.29 654.713C387.091 653.691 387.202 652.633 387.609 651.674C388.015 650.715 388.699 649.899 389.572 649.331C390.445 648.763 391.468 648.469 392.509 648.486C393.873 648.486 395.181 649.028 396.145 649.992C397.109 650.957 397.651 652.264 397.651 653.628Z" fill="#E0E0E0"/>
<path d="M392.422 664.905C391.818 661.17 391.818 657.363 392.422 653.628C393.026 657.363 393.026 661.17 392.422 664.905V664.905Z" fill="#E0E0E0"/>
<path d="M358.016 638.098C358.016 639.115 357.714 640.109 357.149 640.955C356.584 641.801 355.781 642.46 354.842 642.849C353.902 643.238 352.868 643.34 351.871 643.141C350.874 642.943 349.957 642.453 349.238 641.734C348.519 641.015 348.03 640.099 347.831 639.101C347.633 638.104 347.735 637.07 348.124 636.131C348.513 635.191 349.172 634.388 350.018 633.823C350.863 633.258 351.857 632.957 352.874 632.957C354.238 632.957 355.546 633.498 356.51 634.463C357.474 635.427 358.016 636.735 358.016 638.098V638.098Z" fill="#E0E0E0"/>
<path d="M352.874 649.375C352.27 645.641 352.27 641.833 352.874 638.098C353.502 641.831 353.502 645.643 352.874 649.375Z" fill="#E0E0E0"/>
<path d="M448.807 626.821C448.807 627.856 448.5 628.867 447.925 629.726C447.351 630.586 446.534 631.257 445.579 631.652C444.623 632.048 443.572 632.152 442.558 631.95C441.543 631.748 440.612 631.25 439.88 630.519C439.149 629.788 438.651 628.856 438.449 627.842C438.248 626.827 438.351 625.776 438.747 624.82C439.143 623.865 439.813 623.048 440.673 622.474C441.533 621.899 442.544 621.593 443.578 621.593C444.268 621.581 444.953 621.708 445.593 621.967C446.232 622.225 446.813 622.61 447.301 623.098C447.789 623.586 448.174 624.167 448.433 624.807C448.691 625.446 448.818 626.132 448.807 626.821Z" fill="#E0E0E0"/>
<path d="M443.665 638.098C443.061 634.364 443.061 630.556 443.665 626.821C444.269 630.556 444.269 634.364 443.665 638.098Z" fill="#E0E0E0"/>
<path d="M366.26 532.946C369.1 532.946 371.402 530.644 371.402 527.804C371.402 524.964 369.1 522.662 366.26 522.662C363.42 522.662 361.118 524.964 361.118 527.804C361.118 530.644 363.42 532.946 366.26 532.946Z" fill="#E0E0E0"/>
<path d="M366.278 539.081C365.673 535.346 365.673 531.539 366.278 527.804C366.882 531.539 366.882 535.346 366.278 539.081V539.081Z" fill="#E0E0E0"/>
<path d="M384.369 477.624C384.369 478.641 384.068 479.635 383.503 480.481C382.938 481.326 382.135 481.985 381.195 482.374C380.256 482.764 379.222 482.865 378.225 482.667C377.227 482.469 376.311 481.979 375.592 481.26C374.873 480.541 374.383 479.625 374.185 478.627C373.986 477.63 374.088 476.596 374.477 475.656C374.867 474.717 375.526 473.914 376.371 473.349C377.217 472.784 378.211 472.482 379.228 472.482C380.591 472.482 381.899 473.024 382.863 473.988C383.828 474.953 384.369 476.26 384.369 477.624V477.624Z" fill="#E0E0E0"/>
<path d="M379.228 488.901C378.624 485.166 378.624 481.359 379.228 477.624C379.832 481.359 379.832 485.166 379.228 488.901Z" fill="#E0E0E0"/>
<path d="M259.73 483.271C259.73 484.284 259.431 485.275 258.869 486.119C258.308 486.962 257.51 487.621 256.576 488.013C255.641 488.404 254.612 488.511 253.617 488.32C252.622 488.128 251.706 487.647 250.983 486.937C250.261 486.226 249.765 485.318 249.556 484.327C249.348 483.335 249.438 482.304 249.814 481.363C250.189 480.422 250.835 479.613 251.669 479.038C252.503 478.463 253.488 478.147 254.501 478.13C255.184 478.118 255.862 478.242 256.496 478.496C257.13 478.749 257.707 479.126 258.194 479.604C258.68 480.083 259.067 480.654 259.331 481.283C259.595 481.913 259.73 482.589 259.73 483.271V483.271Z" fill="#E0E0E0"/>
<path d="M254.589 494.548C253.984 490.813 253.984 487.006 254.589 483.271C255.193 487.006 255.193 490.813 254.589 494.548V494.548Z" fill="#E0E0E0"/>
<path d="M497.157 436.734C497.157 437.751 496.855 438.745 496.29 439.591C495.725 440.436 494.922 441.095 493.982 441.484C493.043 441.874 492.009 441.975 491.012 441.777C490.014 441.579 489.098 441.089 488.379 440.37C487.66 439.651 487.17 438.735 486.972 437.737C486.773 436.74 486.875 435.706 487.264 434.766C487.654 433.827 488.313 433.024 489.158 432.459C490.004 431.894 490.998 431.592 492.015 431.592C493.378 431.592 494.686 432.134 495.651 433.098C496.615 434.063 497.157 435.37 497.157 436.734Z" fill="#E0E0E0"/>
<path d="M492.015 448.011C491.411 444.276 491.411 440.469 492.015 436.734C492.619 440.469 492.619 444.276 492.015 448.011V448.011Z" fill="#E0E0E0"/>
<path d="M483.37 359.817C483.37 360.834 483.068 361.828 482.503 362.674C481.938 363.519 481.135 364.178 480.196 364.568C479.256 364.957 478.222 365.059 477.225 364.86C476.227 364.662 475.311 364.172 474.592 363.453C473.873 362.734 473.383 361.818 473.185 360.82C472.987 359.823 473.088 358.789 473.478 357.85C473.867 356.91 474.526 356.107 475.371 355.542C476.217 354.977 477.211 354.676 478.228 354.676C479.592 354.676 480.899 355.217 481.864 356.182C482.828 357.146 483.37 358.454 483.37 359.817V359.817Z" fill="#E0E0E0"/>
<path d="M478.228 371.077C477.624 367.342 477.624 363.535 478.228 359.8C478.832 363.535 478.832 367.342 478.228 371.077V371.077Z" fill="#E0E0E0"/>
<path d="M374.121 296.984C376.96 296.984 379.262 294.682 379.262 291.842C379.262 289.002 376.96 286.7 374.121 286.7C371.281 286.7 368.979 289.002 368.979 291.842C368.979 294.682 371.281 296.984 374.121 296.984Z" fill="#E0E0E0"/>
<path d="M374.121 303.101C373.494 299.369 373.494 295.557 374.121 291.824C374.725 295.559 374.725 299.367 374.121 303.101V303.101Z" fill="#E0E0E0"/>
<path d="M280.96 388.838C280.959 389.851 280.66 390.841 280.099 391.685C279.537 392.528 278.739 393.187 277.805 393.579C276.871 393.971 275.841 394.077 274.846 393.886C273.851 393.695 272.935 393.213 272.213 392.503C271.49 391.793 270.994 390.885 270.786 389.893C270.578 388.901 270.667 387.87 271.043 386.93C271.419 385.989 272.064 385.18 272.898 384.604C273.732 384.029 274.718 383.713 275.731 383.696C276.413 383.684 277.091 383.809 277.725 384.062C278.359 384.315 278.936 384.692 279.423 385.171C279.91 385.649 280.296 386.22 280.56 386.85C280.824 387.479 280.96 388.155 280.96 388.838Z" fill="#E0E0E0"/>
<path d="M275.818 400.115C275.214 396.38 275.214 392.572 275.818 388.838C276.445 392.57 276.445 396.382 275.818 400.115Z" fill="#E0E0E0"/>
<path d="M341.371 255.153C341.371 256.187 341.064 257.198 340.489 258.058C339.915 258.917 339.098 259.588 338.143 259.983C337.187 260.379 336.136 260.483 335.122 260.281C334.107 260.079 333.176 259.581 332.444 258.85C331.713 258.119 331.215 257.187 331.013 256.173C330.812 255.158 330.915 254.107 331.311 253.152C331.707 252.196 332.377 251.379 333.237 250.805C334.097 250.23 335.108 249.924 336.142 249.924C336.832 249.912 337.517 250.039 338.157 250.298C338.796 250.556 339.377 250.941 339.865 251.429C340.353 251.917 340.738 252.498 340.997 253.138C341.255 253.777 341.382 254.463 341.371 255.153V255.153Z" fill="#E0E0E0"/>
<path d="M336.229 266.499C335.625 262.765 335.625 258.957 336.229 255.222C336.833 258.957 336.833 262.765 336.229 266.499V266.499Z" fill="#E0E0E0"/>
<path d="M446.21 243.841C446.193 244.854 445.876 245.839 445.301 246.673C444.726 247.507 443.917 248.153 442.976 248.529C442.035 248.904 441.004 248.994 440.013 248.786C439.021 248.578 438.113 248.081 437.403 247.359C436.692 246.636 436.211 245.72 436.02 244.725C435.828 243.73 435.935 242.701 436.327 241.766C436.718 240.832 437.377 240.034 438.221 239.473C439.064 238.912 440.055 238.612 441.068 238.612C441.751 238.612 442.426 238.748 443.056 239.012C443.686 239.275 444.256 239.662 444.735 240.149C445.214 240.635 445.59 241.212 445.844 241.846C446.097 242.48 446.221 243.158 446.21 243.841V243.841Z" fill="#E0E0E0"/>
<path d="M441.068 255.153C440.464 251.418 440.464 247.61 441.068 243.876C441.672 247.61 441.672 251.418 441.068 255.153V255.153Z" fill="#E0E0E0"/>
<path d="M475.195 239.135C475.195 240.173 474.886 241.187 474.307 242.049C473.729 242.91 472.907 243.58 471.947 243.973C470.986 244.366 469.93 244.465 468.914 244.256C467.897 244.047 466.966 243.54 466.238 242.8C465.51 242.06 465.019 241.12 464.827 240.1C464.636 239.08 464.752 238.026 465.161 237.073C465.57 236.119 466.254 235.308 467.125 234.744C467.996 234.18 469.016 233.889 470.053 233.906C470.736 233.906 471.412 234.042 472.041 234.305C472.671 234.569 473.242 234.956 473.72 235.443C474.199 235.929 474.576 236.506 474.829 237.14C475.082 237.774 475.207 238.452 475.195 239.135V239.135Z" fill="#E0E0E0"/>
<path d="M470.053 250.412C469.449 246.677 469.449 242.869 470.053 239.135C470.657 242.869 470.657 246.677 470.053 250.412V250.412Z" fill="#E0E0E0"/>
<path d="M463.552 201.208C463.552 202.225 463.25 203.219 462.685 204.064C462.121 204.91 461.317 205.569 460.378 205.958C459.438 206.347 458.405 206.449 457.407 206.251C456.41 206.052 455.494 205.563 454.775 204.844C454.055 204.125 453.566 203.208 453.367 202.211C453.169 201.214 453.271 200.18 453.66 199.24C454.049 198.301 454.708 197.498 455.554 196.933C456.399 196.368 457.393 196.066 458.41 196.066C459.767 196.089 461.062 196.638 462.021 197.597C462.981 198.556 463.53 199.851 463.552 201.208V201.208Z" fill="#E0E0E0"/>
<path d="M458.41 212.468C457.806 208.733 457.806 204.925 458.41 201.191C459.014 204.925 459.014 208.733 458.41 212.468V212.468Z" fill="#E0E0E0"/>
<path d="M302.102 288.583C302.102 289.596 301.802 290.586 301.241 291.43C300.68 292.273 299.882 292.932 298.947 293.324C298.013 293.716 296.984 293.822 295.989 293.631C294.994 293.439 294.077 292.958 293.355 292.248C292.633 291.538 292.136 290.63 291.928 289.638C291.72 288.646 291.809 287.615 292.185 286.675C292.561 285.734 293.206 284.925 294.04 284.349C294.875 283.774 295.86 283.458 296.873 283.441C297.555 283.429 298.233 283.554 298.867 283.807C299.501 284.06 300.078 284.437 300.565 284.916C301.052 285.394 301.438 285.965 301.702 286.595C301.966 287.224 302.102 287.9 302.102 288.583V288.583Z" fill="#E0E0E0"/>
<path d="M296.96 299.859C296.356 296.125 296.356 292.317 296.96 288.583C297.564 292.317 297.564 296.125 296.96 299.859V299.859Z" fill="#E0E0E0"/>
<path d="M421.599 239.937C421.616 240.978 421.322 242.001 420.754 242.874C420.186 243.747 419.371 244.431 418.412 244.837C417.453 245.244 416.394 245.354 415.372 245.156C414.35 244.957 413.41 244.457 412.674 243.72C411.937 242.984 411.437 242.044 411.238 241.022C411.039 239.999 411.15 238.941 411.557 237.982C411.963 237.023 412.647 236.207 413.52 235.64C414.393 235.072 415.416 234.778 416.457 234.795C417.821 234.795 419.129 235.337 420.093 236.301C421.057 237.265 421.599 238.573 421.599 239.937Z" fill="#E0E0E0"/>
<path d="M416.457 251.213C415.853 247.479 415.853 243.671 416.457 239.937C417.062 243.671 417.062 247.479 416.457 251.213V251.213Z" fill="#E0E0E0"/>
<path d="M277.23 124.134C277.247 125.176 276.953 126.198 276.385 127.072C275.817 127.945 275.001 128.628 274.042 129.035C273.084 129.441 272.025 129.552 271.003 129.353C269.98 129.154 269.041 128.655 268.304 127.918C267.568 127.182 267.068 126.242 266.869 125.22C266.67 124.197 266.781 123.139 267.187 122.18C267.594 121.221 268.278 120.405 269.151 119.837C270.024 119.269 271.047 118.975 272.088 118.993C273.452 118.993 274.759 119.534 275.724 120.499C276.688 121.463 277.23 122.771 277.23 124.134V124.134Z" fill="#E0E0E0"/>
<path d="M272.158 135.394C271.712 133.553 271.559 131.653 271.704 129.764C271.559 127.875 271.712 125.975 272.158 124.134C272.614 125.974 272.767 127.875 272.611 129.764C272.767 131.653 272.614 133.554 272.158 135.394V135.394Z" fill="#E0E0E0"/>
<path d="M336.229 152.283C336.229 153.3 335.927 154.294 335.362 155.14C334.797 155.985 333.994 156.644 333.055 157.033C332.115 157.423 331.081 157.524 330.084 157.326C329.087 157.128 328.17 156.638 327.451 155.919C326.732 155.2 326.243 154.284 326.044 153.286C325.846 152.289 325.948 151.255 326.337 150.315C326.726 149.376 327.385 148.573 328.23 148.008C329.076 147.443 330.07 147.141 331.087 147.141C332.451 147.141 333.759 147.683 334.723 148.647C335.687 149.612 336.229 150.919 336.229 152.283V152.283Z" fill="#E0E0E0"/>
<path d="M331.087 163.56C330.643 161.719 330.49 159.819 330.634 157.93C330.49 156.036 330.642 154.13 331.087 152.283C331.532 154.13 331.685 156.036 331.54 157.93C331.684 159.819 331.531 161.719 331.087 163.56V163.56Z" fill="#E0E0E0"/>
<path d="M242.527 241.209C242.527 242.243 242.221 243.254 241.646 244.114C241.072 244.974 240.255 245.644 239.299 246.04C238.344 246.435 237.293 246.539 236.278 246.337C235.264 246.136 234.332 245.638 233.601 244.906C232.87 244.175 232.372 243.243 232.17 242.229C231.968 241.215 232.072 240.163 232.468 239.208C232.863 238.252 233.534 237.436 234.393 236.861C235.253 236.287 236.264 235.98 237.298 235.98C237.988 235.968 238.674 236.095 239.313 236.354C239.953 236.613 240.534 236.997 241.022 237.485C241.51 237.973 241.895 238.554 242.153 239.194C242.412 239.834 242.539 240.519 242.527 241.209V241.209Z" fill="#E0E0E0"/>
<path d="M237.299 252.556C236.694 248.821 236.694 245.013 237.299 241.279C237.903 245.013 237.903 248.821 237.299 252.556Z" fill="#E0E0E0"/>
<path d="M247.599 157.425C247.617 158.466 247.322 159.489 246.755 160.362C246.187 161.235 245.371 161.919 244.412 162.325C243.453 162.732 242.395 162.843 241.372 162.644C240.35 162.445 239.41 161.945 238.674 161.209C237.937 160.472 237.438 159.532 237.239 158.51C237.04 157.488 237.151 156.429 237.557 155.47C237.964 154.511 238.647 153.696 239.52 153.128C240.393 152.56 241.416 152.266 242.458 152.283C243.821 152.283 245.129 152.825 246.093 153.789C247.058 154.753 247.599 156.061 247.599 157.425V157.425Z" fill="#E0E0E0"/>
<path d="M242.527 168.702C242.073 166.862 241.92 164.961 242.074 163.072C241.919 161.177 242.072 159.27 242.527 157.425C242.972 159.272 243.125 161.177 242.98 163.072C243.124 164.961 242.971 166.86 242.527 168.702V168.702Z" fill="#E0E0E0"/>
<path d="M468.868 397.169L511.257 374.702L511.083 415.226L468.868 397.169Z" fill="#EBEBEB"/>
<path d="M292.812 540.859L199.947 588.79V499.359L210.23 494.775L292.812 540.859Z" fill="#EBEBEB"/>
<path d="M431.516 588.79C431.516 589.962 431.169 591.108 430.518 592.082C429.867 593.057 428.941 593.816 427.858 594.265C426.775 594.714 425.584 594.831 424.434 594.602C423.285 594.374 422.229 593.809 421.4 592.98C420.571 592.152 420.007 591.096 419.778 589.946C419.55 588.797 419.667 587.605 420.115 586.522C420.564 585.439 421.323 584.514 422.298 583.863C423.273 583.212 424.418 582.864 425.59 582.864C427.162 582.864 428.669 583.488 429.781 584.6C430.892 585.711 431.516 587.218 431.516 588.79Z" fill="#6B78E0"/>
<path d="M485.74 165.791L515.318 174.785V221.391L485.74 165.791Z" fill="#EBEBEB"/>
<path d="M515.614 103.532L515.44 52.6729C514.248 43.9111 509.933 35.8741 503.288 30.0397C496.643 24.2053 488.116 20.9656 479.274 20.9162L432.615 20.7419C431.092 20.7691 429.59 21.0959 428.195 21.7037C426.799 22.3115 425.536 23.1883 424.479 24.284C423.423 25.3798 422.592 26.6731 422.035 28.0899C421.478 29.5068 421.205 31.0195 421.233 32.5417V40.9951C421.28 44.0633 420.108 47.0247 417.974 49.2302C415.841 51.4356 412.92 52.705 409.852 52.76L318.886 52.3417C315.814 52.2551 312.901 50.953 310.786 48.7213C308.672 46.4896 307.53 43.5104 307.609 40.4373V31.9839C307.651 30.4617 307.393 28.9461 306.848 27.5239C306.304 26.1016 305.485 24.8005 304.438 23.695C303.391 22.5895 302.136 21.7011 300.745 21.0808C299.354 20.4604 297.855 20.1202 296.333 20.0795H279.914L239.041 19.8181C229.846 19.7968 220.979 23.2378 214.204 29.4567C210.108 37.3523 205.629 48.6292 207.686 57.1523L515.388 157.32L515.614 103.532Z" fill="#6B78E0"/>
<path opacity="0.7" d="M515.614 103.532L515.44 52.6729C514.248 43.9111 509.933 35.8741 503.288 30.0397C496.643 24.2053 488.116 20.9656 479.274 20.9162L432.615 20.7419C431.092 20.7691 429.59 21.0959 428.195 21.7037C426.799 22.3115 425.536 23.1883 424.479 24.284C423.423 25.3798 422.592 26.6731 422.035 28.0899C421.478 29.5068 421.205 31.0195 421.233 32.5417V40.9951C421.28 44.0633 420.108 47.0247 417.974 49.2302C415.841 51.4356 412.92 52.705 409.852 52.76L318.886 52.3417C315.814 52.2551 312.901 50.953 310.786 48.7213C308.672 46.4896 307.53 43.5104 307.609 40.4373V31.9839C307.651 30.4617 307.393 28.9461 306.848 27.5239C306.304 26.1016 305.485 24.8005 304.438 23.695C303.391 22.5895 302.136 21.7011 300.745 21.0808C299.354 20.4604 297.855 20.1202 296.333 20.0795H279.914L239.041 19.8181C229.846 19.7968 220.979 23.2378 214.204 29.4567C210.108 37.3523 205.629 48.6292 207.686 57.1523L515.388 157.32L515.614 103.532Z" fill="white"/>
<path d="M479.274 20.9161H480.528C481.772 20.9389 483.012 21.0437 484.241 21.2298C489.116 21.8333 493.805 23.4736 497.993 26.0404C501.112 27.9012 503.928 30.2289 506.342 32.9425C509.3 36.1658 511.661 39.8899 513.314 43.9406C515.196 48.6784 516.109 53.7459 515.998 58.8429C515.998 64.2577 515.998 70.0269 515.998 76.1505C515.823 125.075 515.579 195.857 515.266 283.319C514.952 370.78 514.516 474.922 514.063 590.568C514.063 605.011 514.005 619.64 513.889 634.456C513.889 638.151 513.889 641.863 513.889 645.593C513.941 649.368 513.448 653.131 512.425 656.765C511.396 660.43 509.803 663.911 507.701 667.084C505.57 670.255 502.986 673.097 500.032 675.52C493.993 680.383 486.58 683.229 478.838 683.659C476.903 683.781 474.986 683.746 473.069 683.746H467.317H455.761L408.997 683.537L312.908 683.067L263.826 682.84L239.041 682.648C230.576 683.082 222.201 680.731 215.198 675.955C208.215 671.089 203.1 663.988 200.696 655.824C199.554 651.791 199.054 647.603 199.215 643.414V631.039C199.284 614.574 199.354 598.208 199.424 581.94C199.563 549.405 199.697 517.41 199.825 485.955C200.104 423.017 200.365 362.31 200.627 304.478C200.888 246.647 201.132 191.709 201.359 140.274C201.475 114.56 201.591 89.7572 201.707 65.8671C201.707 62.8692 201.707 59.9061 201.707 56.9605C201.707 55.479 201.847 53.9801 201.934 52.4986C202.021 51.017 202.317 49.5704 202.701 48.1412C204.044 42.4339 206.706 37.1209 210.474 32.6288C214.14 28.3045 218.744 24.8743 223.936 22.5998C229.129 20.3253 234.772 19.2666 240.436 19.5043L272.436 19.6612H287.827H295.374C297.932 19.5344 300.461 20.2508 302.572 21.7004C304.705 23.1661 306.316 25.272 307.174 27.7137C307.85 30.0671 308.092 32.5241 307.888 34.9644C307.888 36.1496 307.888 37.3522 307.888 38.4503C307.81 39.611 307.81 40.7756 307.888 41.9362C308.171 44.218 309.123 46.3649 310.625 48.1063C312.082 49.8302 314.046 51.0501 316.237 51.5922C317.32 51.8571 318.434 51.9743 319.549 51.9408H322.93H336.194L384.596 52.2023L405.947 52.3243C407.69 52.3243 409.346 52.3243 410.95 52.3243C412.553 52.1466 414.096 51.6104 415.464 50.7556C416.784 49.9346 417.927 48.8578 418.825 47.5887C419.723 46.3195 420.358 44.8836 420.693 43.3654C420.948 41.8927 421.047 40.3971 420.989 38.9035C420.989 37.4219 420.989 35.9579 420.989 34.5112C420.927 33.0844 420.997 31.6549 421.198 30.2409C421.43 28.8623 421.902 27.5349 422.593 26.3193C423.874 23.9395 425.954 22.0879 428.466 21.0904C430.82 20.356 433.298 20.1011 435.752 20.3409L459.561 20.4978L474.202 20.6024H479.204C479.204 20.6024 477.461 20.6024 474.202 20.6024H459.561H435.752C433.332 20.3564 430.888 20.6115 428.571 21.3519C426.141 22.3111 424.119 24.0857 422.854 26.3716C422.194 27.565 421.74 28.8614 421.512 30.2061C421.324 31.6037 421.26 33.0152 421.32 34.4241C421.32 35.8707 421.32 37.3348 421.32 38.8163C421.388 40.3339 421.283 41.8543 421.006 43.348C420.674 44.9129 420.031 46.3951 419.115 47.7065C418.199 49.018 417.028 50.1319 415.673 50.9822C414.264 51.8704 412.674 52.4304 411.019 52.6206C409.276 52.76 407.673 52.6206 405.965 52.6206H384.613L336.211 52.4288H322.947H319.566C318.394 52.4706 317.221 52.3534 316.08 52.0802C313.843 51.5394 311.82 50.3368 310.276 48.6292C308.706 46.8031 307.711 44.5531 307.418 42.1628C307.305 40.9753 307.27 39.7818 307.313 38.5897V35.1038C307.517 32.7578 307.286 30.3944 306.633 28.132C305.832 25.8654 304.346 23.9041 302.381 22.5196C300.366 21.1393 297.951 20.4651 295.513 20.6024H287.966H272.576L240.558 20.4804C235.024 20.2158 229.502 21.211 224.409 23.3909C219.315 25.5707 214.783 28.8784 211.154 33.0645C207.465 37.4807 204.857 42.6968 203.537 48.298C203.171 49.6924 203.049 51.1565 202.788 52.5857C202.526 54.0149 202.596 55.479 202.579 56.9605C202.579 59.9061 202.579 62.8866 202.579 65.8671C202.474 89.7224 202.375 114.525 202.282 140.274C202.091 191.709 201.864 246.595 201.637 304.478C201.411 362.362 201.149 423 200.888 485.955C200.76 517.433 200.603 549.44 200.417 581.975C200.417 598.243 200.353 614.609 200.226 631.074V643.467C200.062 647.584 200.55 651.702 201.672 655.667C204.011 663.614 208.975 670.533 215.755 675.293C222.606 679.926 230.784 682.191 239.041 681.742L263.826 681.847L312.925 682.073L408.875 682.526L455.639 682.753H467.195H472.947C474.864 682.753 476.781 682.753 478.664 682.666C486.227 682.247 493.469 679.467 499.37 674.718C502.256 672.349 504.781 669.572 506.865 666.474C508.913 663.379 510.471 659.987 511.483 656.417C512.483 652.856 512.959 649.169 512.895 645.471C512.895 641.741 512.895 638.029 512.895 634.334C512.965 619.518 513.029 604.883 513.087 590.428C513.627 474.8 514.098 370.659 514.481 283.197C514.865 195.735 515.266 124.953 515.51 76.0285C515.51 69.9165 515.539 64.1473 515.597 58.7209C515.731 53.6626 514.842 48.6293 512.982 43.9232C511.37 39.8912 509.044 36.1832 506.115 32.9774C503.72 30.303 500.935 28.0055 497.854 26.1624C493.693 23.5919 489.036 21.9288 484.189 21.2821C482.961 21.0801 481.72 20.9637 480.476 20.9335C479.692 20.9684 479.274 20.9161 479.274 20.9161Z" fill="#263238"/>
<path d="M588.278 367.225C614.092 367.87 640.184 368.549 665.143 375.173C690.102 381.796 714.207 394.973 729.005 416.132C745.319 439.418 748.561 469.188 750.182 497.563C753.12 544.655 752.386 591.905 747.986 638.883C745.65 662.657 737.214 684.757 715.096 693.803C688.499 704.697 652.75 693.803 652.75 693.803" fill="#263238"/>
<path d="M657.509 688.139C657.509 688.139 657.84 688.139 658.485 688.139H661.361L672.394 688.052C678.218 688.156 684.042 687.853 689.823 687.145C691.566 686.866 693.309 686.675 695.052 686.221L697.736 685.629C698.643 685.385 699.479 685.089 700.473 684.827C702.338 684.339 704.15 683.555 706.05 682.858C707.961 682.049 709.824 681.129 711.628 680.104C715.55 677.938 719.085 675.134 722.085 671.807C725.289 668.201 727.62 663.908 728.9 659.258C731.34 648.837 732.655 638.185 732.822 627.484C733.171 616.172 733.049 604.285 733.153 591.945C733.258 579.605 733.258 566.863 733.328 553.791C733.397 540.719 733.519 527.943 733.101 515.62C732.793 503.787 731.675 491.989 729.755 480.308C725.99 458.016 718.199 438.686 708.124 424.847C703.532 418.675 698.373 412.945 692.717 407.731C687.749 403.078 683.287 399.278 679.627 396.193L671.156 389.134L668.977 387.269C668.721 387.063 668.476 386.841 668.245 386.607C668.245 386.607 668.524 386.798 669.03 387.199L671.278 388.942L679.854 395.914C683.549 398.947 688.063 402.712 693.065 407.348C698.789 412.548 704.006 418.279 708.647 424.464C718.844 438.407 726.757 457.772 730.591 480.238C732.532 491.958 733.661 503.798 733.972 515.673C734.426 528.013 734.286 540.789 734.234 553.861C734.182 566.933 734.112 579.692 734.042 592.032C733.972 604.372 734.042 616.242 733.659 627.588C733.462 638.351 732.112 649.062 729.632 659.537C728.318 664.284 725.933 668.666 722.661 672.347C719.62 675.705 716.045 678.538 712.081 680.731C710.252 681.76 708.366 682.685 706.434 683.502C704.499 684.2 702.651 684.967 700.769 685.455L698.015 686.239L695.296 686.831C693.553 687.267 691.81 687.442 690.067 687.72C684.283 688.39 678.458 688.64 672.638 688.47H661.605H658.729L657.509 688.139Z" fill="#455A64"/>
<path d="M733.537 560.449C736.43 559.371 739.494 558.822 742.583 558.829C745.66 558.543 748.764 558.802 751.751 559.595C751.751 559.857 747.637 559.491 742.617 559.735C737.598 559.979 733.589 560.711 733.537 560.449Z" fill="#455A64"/>
<path d="M622.005 368.567H622.667H624.637C626.379 368.567 628.924 368.567 632.201 368.863C641.464 369.701 650.593 371.65 659.391 374.667L663.627 376.236L665.823 377.055L667.984 378.031L672.463 380.071C673.997 380.75 675.444 381.622 676.995 382.424C683.501 385.892 689.684 389.934 695.47 394.502C701.918 399.491 707.872 405.089 713.249 411.217C719.043 417.799 723.883 425.162 727.628 433.091C735.402 449.388 738.766 466.452 740.491 481.894C742.217 497.337 742.234 511.385 742.234 523.133C742.234 534.88 742.234 544.362 742.461 550.933C742.565 554.175 742.635 556.702 742.687 558.497C742.687 559.317 742.687 559.961 742.687 560.45C742.707 560.676 742.707 560.903 742.687 561.129C742.662 560.909 742.662 560.687 742.687 560.467C742.687 559.979 742.687 559.317 742.548 558.497C742.426 556.754 742.304 554.227 742.164 550.95C741.903 544.379 741.763 534.88 741.641 523.063C741.519 511.246 741.328 497.337 739.637 481.912C737.946 466.487 734.408 449.615 726.791 433.457C723.092 425.594 718.297 418.294 712.551 411.775C707.232 405.668 701.33 400.093 694.93 395.13C689.197 390.564 683.066 386.522 676.612 383.051C675.095 382.249 673.649 381.308 672.132 380.681L667.688 378.641L665.526 377.648L663.365 376.829L659.165 375.225C650.418 372.189 641.355 370.16 632.149 369.177C628.889 368.898 626.327 368.846 624.619 368.724L622.65 368.602C622.434 368.614 622.218 368.603 622.005 368.567V368.567Z" fill="#E0E0E0"/>
<path d="M605.865 368.515C605.865 368.515 612.192 351.8 634.728 354.972C634.728 354.972 644.768 354.414 646.598 359.992C646.598 359.992 625.595 354.763 616.654 369.299L605.865 368.515Z" fill="#263238"/>
<path d="M670.093 388.872H656.899C656.899 388.872 654.336 354.013 622.336 355.321C622.336 355.39 662.11 342.004 670.093 388.872Z" fill="#455A64"/>
<path d="M733.728 581.748L752.657 584.363L750.757 591.091L733.101 589.731L733.728 581.748Z" fill="#455A64"/>
<path d="M734.879 587.831C735.464 586.606 736.208 585.463 737.092 584.433L737.354 584.084L737.65 584.433L740.299 587.657L739.689 587.57L741.572 586.176L743.541 584.746L743.89 584.485L744.151 584.851L746.574 588.337L746.086 588.25C747.159 587.433 748.33 586.754 749.572 586.228C748.695 587.225 747.686 588.099 746.574 588.825L746.243 588.947L746.034 588.668L743.454 585.356L744.064 585.443L742.129 586.89L740.23 588.267L739.881 588.529L739.62 588.18L737.11 584.868H737.667C736.873 585.975 735.936 586.972 734.879 587.831V587.831Z" fill="#6B78E0"/>
<path d="M458.654 706.318C458.654 706.318 454.994 694.396 455.726 689.341C456.458 684.287 463.238 679.72 463.238 679.72L455.883 488.605C455.883 488.605 454.942 404.943 499.178 379.025L525.584 372.367L590.718 368.515C592.827 369.212 669.378 398.006 679.906 409.248L646.894 577.792C646.894 577.792 650.903 627.588 654.894 663.371C655.713 670.692 661.204 706.841 661.204 706.841L458.654 706.318Z" fill="#6B78E0"/>
<g opacity="0.3">
<path opacity="0.3" d="M653.674 652.129C653.047 656.765 651.286 662.43 646.824 663.877C642.26 665.067 637.476 665.133 632.881 664.068C616.567 661.158 601.507 653.489 586.779 645.924C559.223 631.754 531.405 617.444 507.597 597.575C504.25 594.786 500.625 590.446 502.734 586.594C505.052 582.236 511.588 583.701 516.067 585.775C562.814 607.318 606.911 630.569 653.657 652.129" fill="black"/>
</g>
<path d="M489.261 384.236C489.261 384.236 460.101 393.962 450.672 420.978C440.214 450.817 433.347 508.753 433.347 508.753L462.14 512.379L489.261 384.236Z" fill="#6B78E0"/>
<path d="M679.871 409.248C679.871 409.248 695.558 429.815 703.122 454.809C710.686 479.803 715.079 552.223 715.079 552.223L636.646 551.142L632.48 487.402C632.48 487.402 624.567 381.064 679.871 409.248Z" fill="#6B78E0"/>
<path d="M443.63 447C444.242 446.207 444.977 445.519 445.809 444.961C447.004 444.152 448.351 443.594 449.768 443.321C451.185 443.049 452.643 443.067 454.053 443.375C457.853 443.933 461.548 446.861 466.411 448.778C468.947 449.907 471.763 450.253 474.498 449.772C477.356 449.161 479.849 447.105 482.463 445.1C483.804 444.021 485.266 443.102 486.821 442.364C487.663 441.966 488.577 441.741 489.508 441.702C490.439 441.663 491.368 441.811 492.241 442.137C494.011 442.914 495.488 444.232 496.459 445.902C497.54 447.471 498.411 449.179 499.544 450.713C500.578 452.347 502.14 453.577 503.971 454.199C505.872 454.756 507.892 454.756 509.793 454.199C511.792 453.647 513.704 452.82 515.475 451.741C517.218 450.678 518.961 449.388 520.896 448.255C522.779 447.012 524.819 446.021 526.961 445.31C529.229 444.591 531.665 444.591 533.933 445.31C536.165 446.136 538.214 447.391 539.964 449.005C541.706 450.521 543.449 452.194 545.28 453.641C547.049 455.174 549.188 456.219 551.485 456.674C553.83 457.092 556.245 456.844 558.456 455.959C562.988 454.216 566.997 451.183 571.459 448.726C573.657 447.408 576.052 446.449 578.553 445.885C581.081 445.389 583.697 445.594 586.117 446.477C590.858 448.325 594.379 451.933 598.597 453.937C599.63 454.444 600.717 454.83 601.839 455.088C602.951 455.31 604.088 455.386 605.22 455.314C607.481 455.087 609.684 454.456 611.721 453.449C615.852 451.584 619.582 448.97 623.922 447.558C626.034 446.812 628.301 446.614 630.51 446.983C632.647 447.434 634.626 448.445 636.245 449.911C639.434 452.578 641.962 455.976 645.604 457.109C647.391 457.631 649.281 457.685 651.095 457.266C652.871 456.862 654.618 456.337 656.324 455.698C659.687 454.512 663.208 453.292 666.624 454.077C668.249 454.451 669.764 455.196 671.052 456.255C672.324 457.231 673.439 458.312 674.537 459.288C675.599 460.261 676.769 461.109 678.023 461.815C679.197 462.437 680.472 462.844 681.788 463.018C684.188 463.333 686.628 463.088 688.917 462.303C690.847 461.643 692.672 460.71 694.338 459.532C696.637 457.874 698.784 456.013 700.752 453.972L702.32 452.403C702.484 452.212 702.671 452.042 702.878 451.898C702.878 451.898 702.721 452.107 702.39 452.473L700.891 454.112C698.954 456.212 696.824 458.126 694.529 459.828C692.853 461.045 691.009 462.014 689.056 462.704C686.707 463.544 684.195 463.825 681.719 463.524C680.336 463.352 678.996 462.933 677.762 462.286C676.511 461.56 675.342 460.701 674.276 459.724C672.028 457.807 669.797 455.349 666.59 454.704C663.383 454.059 660.036 455.157 656.672 456.36C654.932 457.017 653.15 457.559 651.339 457.981C649.405 458.425 647.39 458.372 645.482 457.824C643.533 457.16 641.749 456.084 640.253 454.669C638.72 453.31 637.325 451.828 635.739 450.521C634.231 449.14 632.375 448.194 630.371 447.785C628.299 447.454 626.176 447.652 624.201 448.36C620.105 449.719 616.375 452.316 612.157 454.233C610.035 455.293 607.737 455.955 605.377 456.186C604.164 456.267 602.945 456.191 601.751 455.959C600.547 455.686 599.377 455.277 598.266 454.739C593.873 452.63 590.353 449.057 585.838 447.331C583.581 446.502 581.139 446.309 578.779 446.774C576.375 447.329 574.07 448.252 571.947 449.51C567.555 451.915 563.546 455.035 558.822 456.813C556.461 457.733 553.894 457.992 551.397 457.563C548.96 457.072 546.691 455.962 544.809 454.338C541.027 451.392 537.994 447.558 533.724 446.146C531.631 445.483 529.385 445.483 527.292 446.146C525.224 446.833 523.255 447.788 521.436 448.987C519.571 450.12 517.845 451.41 515.963 452.473C514.13 453.576 512.153 454.421 510.089 454.983C508.04 455.576 505.864 455.576 503.815 454.983C501.85 454.309 500.165 453.004 499.021 451.27C497.854 449.667 496.982 447.941 495.954 446.408C495.049 444.878 493.699 443.662 492.084 442.922C491.294 442.623 490.45 442.487 489.605 442.523C488.761 442.559 487.932 442.766 487.169 443.131C485.655 443.832 484.233 444.716 482.934 445.763C480.319 447.715 477.705 449.824 474.707 450.486C471.86 450.966 468.934 450.583 466.306 449.388C461.373 447.436 457.748 444.456 454.105 443.863C452.732 443.547 451.31 443.508 449.921 443.747C448.533 443.986 447.206 444.5 446.018 445.257C445.181 445.78 444.383 446.362 443.63 447Z" fill="#FAFAFA"/>
<path d="M434.392 494.13C434.647 494.107 434.904 494.107 435.159 494.13L437.425 494.356C440.265 494.918 443.194 494.841 446 494.13C447.848 493.729 449.922 493.363 452.188 492.962C454.454 492.561 456.877 492.021 459.561 491.707C462.477 491.286 465.45 491.5 468.275 492.335C471.239 493.206 474.114 494.722 477.287 495.82C480.596 496.945 484.167 497.048 487.535 496.117C491.021 495.263 494.507 493.642 498.359 492.335C502.206 490.691 506.466 490.271 510.56 491.132C514.778 492.317 518.176 495.437 522.394 496.465C523.443 496.723 524.527 496.799 525.601 496.692C526.701 496.556 527.783 496.299 528.826 495.925C530.952 495.193 533.009 494.182 535.257 493.328C537.554 492.376 540.118 492.289 542.473 493.084C544.689 494.135 546.743 495.497 548.574 497.128C549.507 497.858 550.525 498.473 551.606 498.958C552.708 499.424 553.897 499.644 555.092 499.603C557.531 499.379 559.9 498.674 562.064 497.529C564.338 496.355 566.719 495.404 569.175 494.688C570.468 494.368 571.807 494.274 573.132 494.409C574.463 494.587 575.751 495.007 576.932 495.646C579.141 496.979 581.271 498.44 583.311 500.021C584.318 500.729 585.407 501.314 586.553 501.764C587.114 501.989 587.699 502.153 588.296 502.252L589.185 502.409H590.091C592.532 502.357 594.943 501.855 597.202 500.927C599.503 500.091 601.769 499.097 604.174 498.4C606.526 497.56 609.062 497.374 611.512 497.86C613.874 498.521 616.012 499.81 617.699 501.59C619.284 503.243 620.984 504.781 622.789 506.191C624.573 507.459 626.74 508.075 628.924 507.934C631.07 507.714 633.154 507.081 635.059 506.069C636.994 505.128 638.824 504.03 640.689 503.001C644.349 500.962 648.376 499.097 652.541 499.516C656.389 500.224 659.991 501.911 662.999 504.413C665.727 506.622 668.643 508.588 671.714 510.287C674.578 511.673 677.675 512.513 680.847 512.762C683.687 512.919 686.535 512.702 689.318 512.117C693.782 511.084 697.953 509.052 701.518 506.174C703.737 504.32 705.654 502.133 707.201 499.69C707.689 498.836 708.02 498.139 708.264 497.703C708.377 497.468 708.505 497.241 708.647 497.023C708.57 497.27 708.471 497.509 708.351 497.738C708.124 498.191 707.828 498.906 707.357 499.777C705.87 502.293 703.973 504.543 701.745 506.435C698.174 509.403 693.971 511.514 689.457 512.605C686.634 513.239 683.737 513.485 680.847 513.337C677.593 513.113 674.411 512.273 671.47 510.862C668.341 509.177 665.372 507.211 662.598 504.988C659.679 502.578 656.194 500.953 652.472 500.265C648.567 499.829 644.715 501.607 641.073 503.646C639.242 504.675 637.395 505.79 635.408 506.749C633.411 507.815 631.227 508.484 628.976 508.718C626.608 508.865 624.26 508.201 622.318 506.836C620.459 505.415 618.711 503.853 617.089 502.165C615.507 500.498 613.5 499.293 611.285 498.679C608.984 498.234 606.605 498.421 604.401 499.219C602.1 499.899 599.852 500.962 597.516 501.729C595.16 502.706 592.641 503.232 590.091 503.28H589.097L588.139 503.106C587.485 503.006 586.847 502.825 586.239 502.566C585.007 502.085 583.837 501.459 582.753 500.701C580.736 499.146 578.636 497.703 576.461 496.378C575.379 495.789 574.197 495.405 572.975 495.245C571.756 495.127 570.525 495.209 569.332 495.489C566.929 496.206 564.595 497.14 562.36 498.278C560.096 499.467 557.621 500.201 555.075 500.439C553.773 500.459 552.481 500.216 551.275 499.725C550.132 499.205 549.055 498.549 548.068 497.773C546.292 496.206 544.317 494.882 542.194 493.833C540.024 493.111 537.665 493.198 535.554 494.078C533.392 494.827 531.318 495.908 529.122 496.657C527.996 497.06 526.826 497.329 525.636 497.459C524.469 497.57 523.291 497.488 522.15 497.215C517.636 496.064 514.272 492.945 510.281 491.829C506.319 490.981 502.192 491.377 498.464 492.962C494.892 494.4 491.251 495.657 487.553 496.727C484.056 497.67 480.357 497.537 476.938 496.343C473.696 495.245 470.855 493.711 467.962 492.857C465.246 492.042 462.388 491.816 459.578 492.195C456.929 492.474 454.471 492.997 452.205 493.38C449.94 493.764 447.865 494.078 446.018 494.461C445.094 494.635 444.275 494.844 443.369 494.966C442.581 495.062 441.785 495.062 440.998 494.966C439.552 494.81 438.331 494.635 437.338 494.496L435.107 494.182C434.868 494.186 434.628 494.169 434.392 494.13Z" fill="#FAFAFA"/>
<path d="M463.413 535.229H463.935L465.452 535.386C466.776 535.525 468.729 535.787 471.238 536.17C476.276 536.85 483.439 538.349 492.52 539.098C497.437 539.502 502.383 539.414 507.283 538.837C510.056 538.504 512.859 538.504 515.632 538.837C517.097 539.037 518.524 539.454 519.867 540.074C521.218 540.761 522.492 541.591 523.667 542.549C526.037 544.292 528.286 546.61 531.196 547.482C532.647 547.908 534.19 547.908 535.641 547.482C537.159 547.016 538.64 546.433 540.068 545.739C541.578 544.972 543.193 544.432 544.861 544.135C546.634 543.881 548.44 544.271 549.951 545.233C552.966 547.063 554.935 550.114 558.003 551.403C561.071 552.693 564.574 551.909 567.729 550.985C570.878 549.793 574.172 549.025 577.524 548.702C579.214 548.664 580.89 549.016 582.422 549.73C583.883 550.446 585.238 551.361 586.448 552.449C588.588 554.605 591.002 556.468 593.629 557.992C596.277 559.073 599.243 559.073 601.891 557.992C604.575 557.155 607.033 555.848 609.717 555.238C612.303 554.517 615.06 554.727 617.508 555.831C618.651 556.43 619.582 557.368 620.174 558.515C620.661 559.587 621.069 560.694 621.394 561.826C621.687 562.853 622.199 563.804 622.893 564.615C623.578 565.352 624.434 565.909 625.386 566.236C627.184 566.803 629.113 566.803 630.911 566.236C632.478 565.744 633.897 564.869 635.042 563.691C636.015 562.694 636.864 561.582 637.569 560.38C638.516 558.702 639.331 556.954 640.009 555.151C640.253 554.576 640.428 554.105 640.567 553.739C640.622 553.573 640.698 553.415 640.794 553.268C640.766 553.442 640.72 553.611 640.654 553.774L640.184 555.221C639.574 557.082 638.798 558.884 637.865 560.606C637.186 561.874 636.342 563.046 635.356 564.092C634.173 565.343 632.701 566.283 631.068 566.829C629.172 567.461 627.126 567.491 625.212 566.916C624.156 566.577 623.203 565.977 622.44 565.173C621.648 564.312 621.053 563.289 620.697 562.175C620.369 561.08 619.968 560.008 619.495 558.968C618.956 557.95 618.124 557.118 617.107 556.58C614.801 555.579 612.216 555.418 609.804 556.127C607.259 556.702 604.784 558.009 602.048 558.898C600.647 559.381 599.187 559.668 597.708 559.752C596.156 559.81 594.612 559.512 593.193 558.881C590.491 557.333 588.006 555.434 585.803 553.234C584.64 552.209 583.352 551.337 581.969 550.637C580.551 549.997 579.009 549.681 577.454 549.713C574.186 550.044 570.975 550.799 567.903 551.961C566.258 552.496 564.566 552.87 562.848 553.077C561.073 553.289 559.273 553.043 557.62 552.362C554.221 550.881 552.234 547.778 549.445 546.122C548.108 545.261 546.504 544.915 544.931 545.146C543.354 545.427 541.827 545.938 540.399 546.663C538.935 547.405 537.414 548.028 535.85 548.528C534.24 549.003 532.527 549.003 530.917 548.528C527.71 547.534 525.445 545.216 523.109 543.421C521.992 542.494 520.776 541.693 519.484 541.033C518.214 540.436 516.863 540.031 515.475 539.83C512.765 539.508 510.027 539.508 507.318 539.83C502.374 540.376 497.387 540.428 492.433 539.987C483.352 539.15 476.171 537.547 471.151 536.763L465.382 535.804L463.883 535.577L463.413 535.229Z" fill="#FAFAFA"/>
<path d="M460.972 651.467L461.495 651.258L463.012 650.735C464.354 650.264 466.341 649.55 468.903 648.713C472.018 647.614 475.244 646.86 478.524 646.465C480.619 646.346 482.713 646.691 484.659 647.475C486.754 648.36 488.949 648.986 491.195 649.34C493.677 649.443 496.142 648.89 498.341 647.737C500.792 646.45 503.367 645.416 506.028 644.652C508.99 644.114 512.038 644.293 514.917 645.175C517.863 645.959 520.773 647.127 523.806 648.016C526.845 649.065 530.098 649.341 533.27 648.818C536.524 647.862 539.69 646.632 542.735 645.14C544.394 644.433 546.163 644.014 547.964 643.902C549.842 643.834 551.698 644.325 553.297 645.314C556.487 647.197 558.77 650.299 562.116 651.537C563.779 652.094 565.571 652.136 567.258 651.659C568.971 651.167 570.638 650.532 572.243 649.759C573.865 648.974 575.543 648.31 577.263 647.772C579.024 647.2 580.915 647.157 582.701 647.65C584.401 648.244 585.923 649.257 587.128 650.595C588.348 651.833 589.429 653.123 590.614 654.168C591.827 655.176 593.267 655.873 594.81 656.198C596.353 656.523 597.952 656.466 599.468 656.033C602.553 655.423 605.464 654.29 608.409 653.436C609.88 653.021 611.396 652.792 612.924 652.757C614.44 652.71 615.94 653.078 617.264 653.82C618.544 654.517 619.628 655.524 620.418 656.748C621.22 657.898 621.848 659.101 622.493 660.234C623.476 662.505 625.291 664.313 627.565 665.289C629.718 665.92 632.033 665.682 634.014 664.626C635.826 663.749 637.444 662.516 638.772 661.001C640.751 658.404 642.44 655.599 643.809 652.635C644.74 650.768 645.837 648.989 647.086 647.319C647.531 646.746 648.026 646.215 648.567 645.732C648.567 645.732 648.079 646.29 647.243 647.475C646.057 649.17 645.013 650.96 644.123 652.826C642.793 655.851 641.127 658.716 639.155 661.367C637.801 662.961 636.134 664.26 634.258 665.184C632.125 666.348 629.617 666.617 627.286 665.933C624.857 664.914 622.903 663.015 621.813 660.617C620.506 658.369 619.286 655.755 616.828 654.5C614.37 653.245 611.39 653.489 608.549 654.238C605.708 654.988 602.762 656.225 599.573 656.87C597.944 657.251 596.257 657.31 594.605 657.044C593.752 656.898 592.921 656.646 592.13 656.295C591.353 655.903 590.627 655.417 589.969 654.848C588.662 653.733 587.564 652.425 586.378 651.24C585.276 649.997 583.871 649.06 582.3 648.521C580.678 648.086 578.965 648.128 577.367 648.643C575.691 649.177 574.054 649.83 572.47 650.595C570.821 651.406 569.099 652.06 567.328 652.547C565.468 653.067 563.495 653.019 561.663 652.408C557.968 650.996 555.702 647.842 552.704 646.099C551.252 645.202 549.565 644.759 547.859 644.826C546.154 644.929 544.48 645.324 542.909 645.994C539.821 647.501 536.607 648.738 533.305 649.689C529.997 650.229 526.606 649.935 523.44 648.835C520.338 647.911 517.462 646.743 514.568 645.959C511.811 645.104 508.891 644.912 506.045 645.401C503.431 646.147 500.897 647.151 498.481 648.399C496.165 649.577 493.581 650.13 490.986 650.003C488.695 649.627 486.459 648.971 484.328 648.051C482.461 647.265 480.443 646.902 478.419 646.987C475.172 647.342 471.97 648.037 468.868 649.062L462.942 650.927L461.373 651.362C461.244 651.413 461.11 651.448 460.972 651.467Z" fill="#FAFAFA"/>
<path d="M558.892 608.294C558.584 608.543 558.251 608.759 557.899 608.939C556.912 609.478 555.886 609.944 554.831 610.333C550.904 611.77 546.681 612.207 542.543 611.605C541.172 611.4 539.82 611.085 538.499 610.664C537.122 610.228 535.746 609.601 534.351 609.008C532.967 608.362 531.451 608.052 529.924 608.102C528.322 608.34 526.809 608.988 525.532 609.984C524.155 610.961 522.813 612.128 521.227 613.104C520.412 613.606 519.532 613.993 518.612 614.255C518.139 614.377 517.654 614.447 517.166 614.464C516.674 614.534 516.175 614.534 515.684 614.464C511.71 613.958 508.538 611.327 505.069 609.584C503.454 608.593 501.577 608.113 499.684 608.207L499.021 608.294C498.807 608.348 498.598 608.418 498.394 608.503C497.962 608.628 497.551 608.815 497.174 609.061C496.425 609.555 495.74 610.141 495.135 610.804C493.967 612.263 492.685 613.627 491.3 614.882C490.551 615.494 489.656 615.902 488.703 616.067C487.754 616.218 486.782 616.079 485.914 615.666C484.394 614.777 483.123 613.518 482.219 612.006C481.382 610.679 480.456 609.41 479.448 608.207C478.492 607.219 477.337 606.446 476.06 605.938C474.783 605.431 473.413 605.2 472.04 605.261C469.74 605.423 467.551 606.308 465.783 607.788C464.354 608.836 463.121 610.129 462.14 611.605C461.285 612.832 460.795 614.277 460.729 615.771C460.66 615.385 460.66 614.99 460.729 614.603C460.871 613.468 461.264 612.379 461.879 611.414C462.838 609.887 464.067 608.546 465.504 607.457C467.339 605.872 469.625 604.903 472.04 604.686C473.517 604.596 474.996 604.826 476.376 605.358C477.756 605.89 479.006 606.713 480.041 607.771C481.068 608.987 482.017 610.268 482.882 611.605C483.714 612.984 484.876 614.134 486.263 614.952C487.004 615.283 487.825 615.392 488.626 615.266C489.428 615.139 490.175 614.781 490.777 614.237C492.105 613 493.346 611.672 494.49 610.263C495.14 609.519 495.884 608.863 496.703 608.311C497.14 608.041 497.608 607.824 498.098 607.666L498.83 607.422L499.597 607.318C501.662 607.213 503.712 607.722 505.488 608.782C508.974 610.525 512.181 613.157 515.789 613.61C517.54 613.807 519.305 613.382 520.774 612.407C522.273 611.501 523.632 610.35 525.061 609.357C526.376 608.25 527.992 607.563 529.702 607.386C531.411 607.209 533.134 607.55 534.648 608.364C536.059 608.991 537.384 609.601 538.709 610.106C539.989 610.53 541.3 610.856 542.63 611.083C546.677 611.717 550.817 611.382 554.709 610.106C557.463 609.096 558.84 608.207 558.892 608.294Z" fill="#FAFAFA"/>
<path d="M462.681 698.039C462.86 698.062 463.036 698.109 463.204 698.178L463.848 698.387L464.755 698.527C466.797 698.606 468.82 698.111 470.594 697.097C473.431 695.461 476.442 694.146 479.57 693.176C480.562 692.974 481.578 692.921 482.585 693.019C483.651 693.186 484.681 693.528 485.635 694.03C487.602 695.2 489.479 696.517 491.248 697.969C493.115 699.549 495.495 700.393 497.941 700.339C500.566 699.861 503.093 698.948 505.418 697.638C506.739 697.011 508.132 696.548 509.566 696.261C511.07 696.017 512.607 696.052 514.098 696.365C517.131 696.923 519.972 698.213 522.97 699.032C526.038 699.881 529.272 699.929 532.364 699.172C535.617 698.36 538.804 697.305 541.898 696.017C545.15 694.637 548.556 693.654 552.042 693.089C555.72 692.618 559.456 693.223 562.796 694.832C566.178 696.296 569.263 698.178 572.522 699.485C575.638 700.917 579.148 701.243 582.474 700.409C588.976 698.544 593.734 693.28 599.904 691.241C602.924 690.196 606.208 690.196 609.229 691.241C611.996 692.226 614.616 693.58 617.02 695.267C619.373 696.819 621.586 698.387 623.835 699.66C625.969 700.912 628.278 701.84 630.685 702.414C634.865 703.279 639.195 703.093 643.286 701.873C646.379 700.954 649.274 699.471 651.827 697.498C653.989 695.784 655.87 693.744 657.404 691.45C657.334 691.621 657.246 691.785 657.143 691.938L656.289 693.298C655.078 694.974 653.647 696.481 652.036 697.777C649.46 699.784 646.535 701.297 643.408 702.239C640.128 703.335 636.651 703.715 633.212 703.355C629.772 702.994 626.45 701.9 623.469 700.148C621.168 698.875 618.954 697.307 616.601 695.79C614.246 694.147 611.678 692.834 608.967 691.886C606.117 690.892 603.015 690.892 600.165 691.886C597.182 693.052 594.359 694.592 591.764 696.47C588.989 698.484 585.92 700.059 582.666 701.141C579.173 702.002 575.492 701.671 572.208 700.2C568.862 698.84 565.777 696.958 562.465 695.511C559.266 693.99 555.694 693.427 552.182 693.89C548.768 694.437 545.433 695.391 542.247 696.731C539.109 698.042 535.875 699.108 532.573 699.921C529.345 700.688 525.974 700.622 522.778 699.729C519.693 698.875 516.887 697.586 514.063 697.045C512.666 696.735 511.223 696.694 509.81 696.923C508.437 697.184 507.101 697.617 505.836 698.213C503.427 699.546 500.811 700.466 498.098 700.932C495.489 700.989 492.952 700.083 490.969 698.387C489.237 696.943 487.402 695.626 485.479 694.448C484.585 693.966 483.62 693.63 482.62 693.455C481.674 693.34 480.715 693.375 479.779 693.559C476.691 694.497 473.712 695.759 470.89 697.324C469.056 698.318 466.974 698.76 464.894 698.596C464.528 698.596 464.232 698.492 463.97 698.422L463.343 698.161C463.118 698.15 462.895 698.109 462.681 698.039V698.039Z" fill="#FAFAFA"/>
<path d="M466.986 398.354C466.986 398.354 467.509 398.982 468.729 399.923C470.497 401.248 472.55 402.143 474.725 402.537C478.18 403.13 481.706 403.201 485.182 402.746C487.222 402.59 489.418 402.38 491.771 402.415C494.27 402.4 496.751 402.843 499.091 403.722C501.57 404.838 503.979 406.101 506.307 407.505C507.551 408.195 508.851 408.778 510.194 409.248C511.592 409.667 513.04 409.901 514.499 409.945C517.613 409.932 520.716 409.581 523.754 408.899C527.05 408.148 530.439 407.889 533.811 408.132C537.327 408.759 540.664 410.145 543.589 412.193C546.517 414.282 549.837 415.758 553.349 416.533C555.164 416.732 556.999 416.609 558.77 416.167C560.565 415.65 562.314 414.986 563.999 414.18C567.459 412.332 571.075 410.792 574.805 409.579C576.768 409.071 578.811 408.953 580.819 409.23C582.778 409.595 584.659 410.297 586.379 411.304C589.777 413.222 592.671 415.697 596 417.23C599.276 418.703 602.921 419.153 606.457 418.52C609.887 417.925 613.262 417.05 616.549 415.906C619.732 414.833 623.005 414.045 626.327 413.553C629.498 413.184 632.709 413.385 635.809 414.145C641.24 415.723 646.552 417.686 651.705 420.019C655.94 421.89 660.589 422.628 665.195 422.163C668.681 421.873 672.096 421.013 675.304 419.618C678.054 418.442 680.498 416.654 682.451 414.389C682.013 415.021 681.511 415.605 680.952 416.132C679.356 417.707 677.49 418.982 675.444 419.897C672.216 421.352 668.772 422.271 665.248 422.616C663.046 422.859 660.825 422.859 658.624 422.616C656.163 422.284 653.758 421.616 651.478 420.629C646.34 418.344 641.045 416.428 635.635 414.895C632.619 414.162 629.495 413.979 626.414 414.354C623.147 414.874 619.928 415.667 616.793 416.725C613.471 417.887 610.061 418.785 606.597 419.409C602.89 420.059 599.074 419.592 595.634 418.067C592.148 416.463 589.254 413.954 585.943 412.106C584.326 411.155 582.557 410.488 580.714 410.137C578.827 409.878 576.908 409.997 575.067 410.485C571.389 411.682 567.825 413.204 564.417 415.034C562.664 415.857 560.845 416.533 558.979 417.056C557.1 417.525 555.151 417.649 553.228 417.422C549.593 416.635 546.158 415.111 543.136 412.943C540.316 410.956 537.099 409.607 533.706 408.986C526.996 408.254 520.686 411.025 514.534 410.729C513.006 410.672 511.494 410.408 510.037 409.945C508.657 409.484 507.321 408.901 506.046 408.202C503.751 406.799 501.376 405.53 498.934 404.402C494.159 402.502 489.331 403.095 485.287 403.339C481.774 403.757 478.218 403.634 474.742 402.973C472.533 402.533 470.464 401.564 468.711 400.149C468.048 399.642 467.466 399.037 466.986 398.354Z" fill="#FAFAFA"/>
<g opacity="0.3">
<path opacity="0.3" d="M597.725 418.398L622.336 435.427C614.51 454.826 621.743 481.755 628.541 503.786C631.173 512.361 639.905 521.215 639.469 530.244C639.033 539.273 646.563 554.436 637.883 556.702C632.131 558.218 625.874 556.249 621.081 552.728C616.442 548.976 612.562 544.374 609.647 539.168C592.357 511.211 584.287 457.737 597.725 418.398Z" fill="black"/>
</g>
<path d="M468.171 683.206C468.488 683.194 468.805 683.229 469.112 683.311L471.761 683.799L481.487 685.646C489.696 687.197 501.078 689.132 513.697 690.875C526.316 692.618 537.802 693.838 546.116 694.605L555.981 695.476L558.665 695.738C558.979 695.746 559.29 695.799 559.589 695.895C559.277 695.932 558.961 695.932 558.648 695.895L555.964 695.808C553.611 695.703 550.247 695.511 546.064 695.215C537.732 694.605 526.212 693.472 513.575 691.729C500.939 689.986 489.557 687.877 481.365 686.169C477.269 685.332 473.958 684.583 471.692 684.043L469.077 683.38C468.769 683.357 468.465 683.299 468.171 683.206V683.206Z" fill="#263238"/>
<path d="M506.481 678.657C506.969 678.736 507.451 678.841 507.928 678.971C508.869 679.18 510.229 679.633 512.041 679.964C517.099 681.098 522.251 681.763 527.432 681.951C535.108 682.266 542.792 681.557 550.282 679.842C568.8 675.756 585.349 665.423 597.15 650.578C605.247 640.529 611.026 628.816 614.074 616.276C614.545 614.534 614.736 613.087 614.98 612.146C615.048 611.659 615.165 611.18 615.329 610.716C615.31 611.208 615.252 611.698 615.155 612.181C614.98 613.139 614.841 614.568 614.405 616.364C613.318 621.461 611.736 626.441 609.682 631.231C606.639 638.359 602.646 645.043 597.812 651.101C589.422 661.568 578.658 669.885 566.413 675.362C554.167 680.84 540.792 683.319 527.397 682.596C522.186 682.346 517.014 681.582 511.954 680.313C510.211 679.912 508.799 679.407 507.876 679.145C507.395 679.033 506.927 678.869 506.481 678.657V678.657Z" fill="#263238"/>
<path d="M521.924 372.279C521.972 372.702 521.972 373.129 521.924 373.552C521.924 374.458 521.924 375.643 521.924 377.142C521.811 381.532 522.257 385.919 523.248 390.197C523.976 393.119 525.253 395.876 527.013 398.319C529.089 401.071 531.75 403.327 534.804 404.925C538.187 406.73 541.816 408.028 545.576 408.777C549.579 409.667 553.676 410.065 557.776 409.962C565.763 409.878 573.584 407.671 580.435 403.566C585.972 400.137 590.468 395.261 593.437 389.465C595.422 385.549 596.574 381.264 596.819 376.881C596.941 373.778 596.61 372.07 596.732 372.053C596.836 372.46 596.912 372.873 596.958 373.29C597.12 374.486 597.196 375.692 597.185 376.898C597.071 381.359 595.988 385.742 594.013 389.744C591.061 395.712 586.512 400.744 580.871 404.28C573.915 408.507 565.95 410.783 557.811 410.869C553.629 410.972 549.449 410.562 545.367 409.649C541.53 408.866 537.83 407.521 534.386 405.657C531.226 403.968 528.491 401.584 526.386 398.685C524.596 396.154 523.312 393.302 522.603 390.284C521.66 385.948 521.302 381.504 521.54 377.073C521.54 375.504 521.68 374.284 521.749 373.465C521.765 373.064 521.823 372.667 521.924 372.279Z" fill="#263238"/>
<path d="M511.274 375.312C511.274 375.312 468.868 376.933 458.794 419.27C447.133 468.334 454.175 522.401 468.833 549.486L469.513 501.241C469.997 467.761 478.059 434.825 493.095 404.908L511.274 375.312Z" fill="#455A64"/>
<path d="M461.426 514.522C461.346 514.033 461.311 513.537 461.321 513.041C461.321 511.995 461.321 510.583 461.182 508.806C461.042 507.028 461.077 504.71 461.182 502.095C461.286 499.481 461.182 496.483 461.478 493.206C461.582 491.544 461.687 489.802 461.792 487.977C461.914 486.234 462.14 484.334 462.314 482.4C462.646 478.53 463.273 474.434 463.866 470.199C465.372 460.859 467.385 451.608 469.896 442.486C472.514 433.397 475.633 424.459 479.239 415.714C480.982 411.705 482.585 407.888 484.345 404.42C485.2 402.677 485.966 400.934 486.803 399.383C487.64 397.831 488.459 396.263 489.243 394.816C490.742 391.888 492.328 389.343 493.635 387.077C494.943 384.811 496.145 382.912 497.121 381.36L499.457 377.874C499.709 377.447 500.001 377.044 500.328 376.672C500.119 377.123 499.881 377.56 499.614 377.979L497.453 381.535C496.477 383.103 495.309 385.021 494.054 387.321C492.799 389.622 491.248 392.149 489.783 395.095L487.413 399.679C486.594 401.282 485.844 402.99 485.008 404.733C483.265 408.219 481.714 412.019 480.006 416.01C472.81 433.459 467.668 451.685 464.685 470.321C464.057 474.609 463.395 478.687 463.046 482.522C462.855 484.456 462.611 486.304 462.471 488.099C462.332 489.894 462.21 491.585 462.105 493.241C461.809 496.518 461.774 499.498 461.67 502.095C461.565 504.692 461.53 506.958 461.53 508.806C461.53 510.653 461.53 511.995 461.53 513.041C461.537 513.537 461.503 514.033 461.426 514.522V514.522Z" fill="#263238"/>
<path d="M480.825 386.049C480.702 386.445 480.532 386.825 480.319 387.182C479.901 387.984 479.378 389.047 478.698 390.354C477.252 393.073 475.3 397.099 473.016 402.119C471.918 404.664 470.646 407.348 469.53 410.433C468.955 411.949 468.293 413.5 467.787 415.121C467.282 416.742 466.637 418.433 466.044 420.159C463.542 427.657 461.494 435.299 459.909 443.044C457.2 457.167 455.886 471.523 455.988 485.903C455.988 491.428 456.127 495.89 456.284 498.975C456.284 500.457 456.389 501.642 456.406 502.548C456.459 502.959 456.459 503.375 456.406 503.786C456.32 503.378 456.268 502.964 456.249 502.548C456.249 501.659 456.075 500.474 455.953 499.062C455.691 495.977 455.482 491.498 455.36 485.973C455.073 471.533 456.305 457.103 459.038 442.922C460.587 435.119 462.63 427.423 465.156 419.88C465.766 418.137 466.358 416.481 466.899 414.843C467.439 413.204 468.171 411.67 468.764 410.154C469.931 407.121 471.256 404.385 472.389 401.857C474.742 396.855 476.799 392.864 478.35 390.18L480.093 387.095C480.303 386.723 480.548 386.373 480.825 386.049V386.049Z" fill="#263238"/>
<path d="M648.288 391.644C648.288 391.644 619.791 469.171 640.794 534.566L641.944 557.696C641.944 557.696 625.874 556.597 613.726 533.66C601.577 510.723 597.638 487.018 593.525 452.874C589.411 418.729 608.113 375.26 608.113 375.26C608.113 375.26 641.299 382.58 648.288 391.644Z" fill="#455A64"/>
<path d="M642.694 555.831C642.546 555.779 642.405 555.709 642.275 555.621L641.09 554.959C639.616 554.03 638.249 552.943 637.011 551.717C632.638 546.984 629.532 541.222 627.983 534.967C626.761 530.731 625.83 526.415 625.194 522.052C624.375 517.363 623.713 512.344 623.12 507.028C621.87 495.511 621.369 483.925 621.621 472.343C621.864 460.756 622.871 449.199 624.636 437.745C625.985 428.379 627.965 419.114 630.563 410.015C632.311 403.863 634.761 397.932 637.866 392.341C638.713 390.825 639.638 389.353 640.637 387.931L641.421 386.851L641.717 386.485C641.717 386.485 641.717 386.641 641.508 386.903L640.776 388.036C640.149 389.047 639.242 390.528 638.162 392.515C635.216 398.142 632.879 404.066 631.19 410.189C628.696 419.284 626.787 428.529 625.473 437.867C623.755 449.302 622.76 460.835 622.493 472.395C622.248 483.94 622.72 495.489 623.904 506.975C624.48 512.204 625.125 517.294 625.891 521.965C626.522 526.334 627.424 530.659 628.593 534.915C630.086 541.106 633.079 546.834 637.308 551.595C638.946 553.196 640.752 554.616 642.694 555.831Z" fill="#263238"/>
<path d="M641.665 555.064C641.501 555.039 641.341 554.986 641.195 554.907L639.835 554.349C638.158 553.527 636.559 552.552 635.059 551.438C629.705 547.075 625.288 541.674 622.074 535.56C617.079 526.663 612.908 517.329 609.612 507.673C605.576 495.87 602.812 483.67 601.368 471.28C599.928 458.884 599.776 446.372 600.915 433.945C601.862 423.804 603.705 413.766 606.423 403.949C607.66 399.783 608.706 395.984 609.909 392.777C611.111 389.57 612.052 386.729 613.098 384.533C614.144 382.336 614.841 380.646 615.364 379.426C615.625 378.885 615.817 378.45 615.974 378.101C616.042 377.949 616.124 377.803 616.218 377.665C616.19 377.829 616.137 377.988 616.061 378.136L615.538 379.495C615.033 380.733 614.318 382.458 613.429 384.724C612.54 386.99 611.529 389.779 610.379 393.021C609.229 396.263 608.166 399.993 606.98 404.193C604.375 413.987 602.625 423.988 601.751 434.085C600.655 446.457 600.83 458.909 602.274 471.245C603.686 483.563 606.373 495.701 610.292 507.464C613.542 517.062 617.625 526.358 622.493 535.246C625.632 541.321 629.924 546.726 635.129 551.16C636.596 552.294 638.152 553.309 639.783 554.192L641.09 554.82L641.665 555.064Z" fill="#263238"/>
<path d="M628.122 420.995L646.598 425.858L643.914 432.324L626.536 428.856L628.122 420.995Z" fill="#263238"/>
<path d="M628.541 427.183C629.262 426.036 630.136 424.992 631.138 424.08L631.452 423.749L631.696 424.133C632.41 425.248 633.16 426.416 633.927 427.619L633.334 427.462L635.391 426.294C636.105 425.893 636.802 425.492 637.5 425.126L637.883 424.9L638.092 425.283L640.097 428.961L639.626 428.839C640.761 428.151 641.979 427.612 643.251 427.235C642.257 428.116 641.149 428.86 639.957 429.449L639.661 429.623L639.487 429.309C638.789 428.176 638.075 426.974 637.325 425.719L637.935 425.893L635.826 427.078L633.77 428.229L633.386 428.438L633.177 428.072L631.085 424.481H631.643C630.723 425.504 629.681 426.411 628.541 427.183Z" fill="#6B78E0"/>
<path d="M476.764 531.76L456.667 494.653H395.472L393.537 498.33L445.338 584.45L503.971 587.274L476.764 531.76Z" fill="#455A64"/>
<path d="M710.059 552.223V617.078C710.055 622.925 708.752 628.697 706.244 633.978C703.736 639.259 700.086 643.917 695.558 647.615C690.071 652.09 683.481 655.005 676.479 656.054C669.478 657.102 662.322 656.247 655.766 653.576L512.982 590.289L526.926 542.671L641.787 580.528L641.665 551.003L710.059 552.223Z" fill="#FFBE9D"/>
<path d="M474.829 535.438L454.715 498.33H393.537L443.386 588.128L502.019 590.951L474.829 535.438Z" fill="#263238"/>
<path d="M532.591 547.778L522.917 535.769C519.771 531.862 515.79 528.71 511.265 526.545C506.741 524.379 501.789 523.255 496.773 523.255H488.285L482.55 529.686C482.55 529.686 441.172 531.429 439.656 536.658V538.296V539.272L475.056 541.643C475.056 541.643 444.955 541.556 443.142 541.643C441.329 541.73 434.741 541.137 434.88 544.658C434.985 547.569 438.366 549.887 443.595 550.619C445.722 550.933 471.814 553.199 471.814 553.199L443.107 552.92C439.883 552.92 440.284 558.149 442.201 558.724C443.717 559.229 480.546 569.966 480.546 569.966C480.546 569.966 474.358 574.097 469.321 573.748C464.284 573.4 455.622 566.898 453.826 569.966C452.031 573.034 452.38 574.829 453.46 575.543C454.541 576.258 466.428 582.393 470.402 583.474C474.376 584.555 506.743 589.679 506.743 589.679L518.42 591.561L532.591 547.778Z" fill="#FFBE9D"/>
<path d="M402.095 512.814C402.095 512.814 395.699 515.045 398.941 523.272C402.042 530.83 406.436 537.789 411.926 543.839C411.64 545.182 411.727 546.578 412.179 547.875C412.631 549.171 413.429 550.32 414.488 551.194C414.488 551.194 409.956 552.327 412.745 559.909C412.317 561.004 412.118 562.174 412.16 563.349C412.202 564.523 412.484 565.676 412.989 566.738C413.493 567.799 414.21 568.746 415.094 569.52C415.978 570.294 417.012 570.879 418.131 571.238C418.131 571.238 415.865 577.757 424.074 580.859C432.283 583.962 440.214 578.594 440.214 578.594L402.095 512.814Z" fill="#FFBE9D"/>
<path d="M415.08 543.194C420.902 544.763 427.281 546.018 432.667 548.057C434.41 548.719 436.153 548.754 437.373 550.236C438.003 550.955 438.36 551.874 438.379 552.831C438.398 553.788 438.079 554.72 437.477 555.465C436.807 555.964 436.034 556.31 435.214 556.475C434.395 556.641 433.549 556.623 432.737 556.423C426.561 555.435 420.516 553.757 414.714 551.421" fill="#FFBE9D"/>
<path d="M417.399 552.902C423.203 554.471 429.599 555.709 434.968 557.765C436.711 558.428 438.454 558.462 439.674 559.944C440.304 560.664 440.661 561.583 440.68 562.539C440.699 563.496 440.38 564.429 439.778 565.173C439.106 565.668 438.333 566.011 437.514 566.177C436.695 566.342 435.85 566.327 435.037 566.132C428.861 565.112 422.817 563.411 417.015 561.06" fill="#FFBE9D"/>
<path d="M420.693 562.89C426.514 564.458 432.893 565.696 438.279 567.735C440.022 568.415 441.765 568.45 442.968 569.931C443.602 570.649 443.96 571.569 443.979 572.526C443.998 573.484 443.677 574.417 443.072 575.16C442.404 575.658 441.634 576 440.817 576.163C440 576.326 439.157 576.305 438.349 576.101C432.167 575.108 426.116 573.425 420.309 571.082" fill="#FFBE9D"/>
<path d="M415.08 551.595C415.08 551.351 419.281 552.78 424.44 554.21C429.599 555.639 433.835 556.563 433.8 556.807C430.532 556.685 427.298 556.098 424.196 555.064C421.014 554.328 417.947 553.161 415.08 551.595Z" fill="#EB996E"/>
<path d="M413.965 560.153C417.559 560.98 421.107 561.993 424.597 563.186C430.453 564.929 435.246 566.132 435.194 566.376C427.852 565.346 420.7 563.25 413.965 560.153V560.153Z" fill="#EB996E"/>
<path d="M417.782 571.169C421.164 571.546 424.506 572.222 427.769 573.191C431.106 573.879 434.377 574.853 437.547 576.101C434.165 575.726 430.822 575.049 427.56 574.079C424.219 573.407 420.946 572.433 417.782 571.169V571.169Z" fill="#EB996E"/>
<path d="M410.235 542.009C410.235 541.748 415.464 543.49 421.965 545.164C428.466 546.837 433.782 547.813 433.747 548.092C432.578 548.136 431.407 548.037 430.261 547.796C427.422 547.359 424.606 546.777 421.826 546.053C419.033 545.347 416.281 544.492 413.581 543.49C412.403 543.152 411.277 542.654 410.235 542.009V542.009Z" fill="#EB996E"/>
<path d="M468.467 530.244C473.314 529.756 478.186 529.569 483.056 529.686C487.898 529.508 492.747 529.63 497.575 530.052C492.751 530.538 487.902 530.718 483.056 530.592C478.191 530.785 473.318 530.669 468.467 530.244V530.244Z" fill="#EB996E"/>
<path d="M424.597 513.999C425.07 514.378 425.645 514.608 426.249 514.66C426.853 514.712 427.459 514.585 427.99 514.293C428.521 514.001 428.954 513.558 429.234 513.021C429.514 512.483 429.628 511.875 429.563 511.272C429.497 510.669 429.255 510.1 428.865 509.635C428.476 509.17 427.958 508.831 427.377 508.66C426.795 508.49 426.176 508.495 425.598 508.676C425.019 508.857 424.507 509.205 424.126 509.677C423.873 509.991 423.683 510.353 423.57 510.74C423.456 511.128 423.42 511.534 423.464 511.936C423.507 512.338 423.63 512.727 423.824 513.081C424.019 513.435 424.281 513.747 424.597 513.999V513.999Z" fill="#EBEBEB"/>
<path d="M634.345 578.855C634.821 578.814 635.301 578.867 635.756 579.012C637.026 579.238 638.278 579.552 639.504 579.953C647.679 582.568 654.885 587.57 660.193 594.315C660.994 595.323 661.727 596.383 662.389 597.487C662.86 598.272 663.086 598.707 663.034 598.742C662.982 598.777 661.796 597.156 659.687 594.716C654.211 588.334 647.19 583.461 639.295 580.563C636.262 579.448 634.31 578.995 634.345 578.855Z" fill="#EB996E"/>
<path d="M556.452 407.052C547.388 406.328 538.963 402.101 532.965 395.267C526.967 388.433 523.87 379.53 524.329 370.449C524.974 357.203 525.671 345.264 525.671 345.264C525.671 345.264 497.261 340.836 496.912 312.461C496.564 284.086 501.496 218.864 501.496 218.864C517.636 211.931 535.334 209.432 552.763 211.626C570.191 213.82 586.718 220.627 600.636 231.344L604.836 234.568L594.082 374.859C593.732 379.446 592.48 383.919 590.398 388.022C588.316 392.124 585.445 395.775 581.949 398.766C578.453 401.756 574.401 404.028 570.026 405.449C565.651 406.871 561.038 407.416 556.452 407.052V407.052Z" fill="#FFBE9D"/>
<path d="M525.619 344.932C538.718 345.197 551.599 341.557 562.622 334.475C562.622 334.475 553.907 354.902 525.549 352.34L525.619 344.932Z" fill="#EB996E"/>
<path d="M508.503 263.379C508.489 264.437 508.89 265.458 509.619 266.224C510.349 266.99 511.35 267.439 512.407 267.475C512.923 267.515 513.443 267.452 513.934 267.289C514.425 267.126 514.879 266.866 515.269 266.525C515.659 266.184 515.976 265.769 516.203 265.304C516.43 264.838 516.562 264.332 516.59 263.815C516.596 262.76 516.192 261.744 515.464 260.98C514.736 260.216 513.74 259.764 512.686 259.719C512.17 259.679 511.651 259.742 511.159 259.905C510.668 260.068 510.214 260.328 509.824 260.669C509.435 261.01 509.117 261.425 508.89 261.891C508.663 262.356 508.532 262.862 508.503 263.379V263.379Z" fill="#263238"/>
<path d="M506.865 258.83C507.37 259.353 510.351 257.087 514.795 257.087C519.24 257.087 522.36 259.283 522.83 258.83C523.057 258.586 522.551 257.628 521.087 256.617C519.197 255.312 516.952 254.618 514.656 254.63C512.39 254.627 510.182 255.34 508.346 256.669C507.074 257.628 506.621 258.586 506.865 258.83Z" fill="#263238"/>
<path d="M549.637 264.408C549.627 265.464 550.029 266.483 550.758 267.248C551.487 268.012 552.485 268.463 553.541 268.504C554.058 268.546 554.578 268.485 555.07 268.323C555.563 268.16 556.018 267.901 556.408 267.559C556.798 267.218 557.116 266.802 557.342 266.335C557.568 265.868 557.698 265.361 557.724 264.843C557.734 263.787 557.332 262.768 556.603 262.003C555.874 261.239 554.876 260.788 553.82 260.747C553.303 260.705 552.783 260.766 552.291 260.928C551.798 261.091 551.343 261.35 550.953 261.692C550.563 262.033 550.245 262.449 550.019 262.916C549.793 263.383 549.663 263.89 549.637 264.408V264.408Z" fill="#263238"/>
<path d="M549.741 259.649C550.247 260.172 553.332 257.906 557.689 257.906C562.047 257.906 565.236 260.103 565.724 259.649C565.951 259.423 565.445 258.464 563.981 257.453C562.095 256.14 559.848 255.446 557.55 255.466C555.278 255.458 553.062 256.172 551.223 257.506C549.951 258.447 549.497 259.405 549.741 259.649Z" fill="#263238"/>
<path d="M533.915 291.999C533.915 291.755 531.214 291.284 526.822 290.726C525.706 290.604 524.66 290.378 524.469 289.628C524.375 288.474 524.637 287.318 525.218 286.317L528.512 277.828C533.079 265.75 536.39 255.832 535.902 255.641C535.414 255.449 531.318 265.105 526.734 277.184C525.642 280.158 524.591 283.005 523.58 285.724C522.887 287.072 522.683 288.618 523.004 290.099C523.164 290.492 523.412 290.842 523.73 291.124C524.047 291.405 524.425 291.609 524.835 291.72C525.454 291.891 526.092 291.978 526.734 291.981C531.162 292.225 533.898 292.243 533.915 291.999Z" fill="#263238"/>
<path d="M546.761 295.014C546.046 295.014 546.029 299.703 541.985 303.067C537.942 306.43 532.887 305.908 532.852 306.552C532.852 306.849 533.968 307.476 536.112 307.529C538.883 307.57 541.581 306.632 543.728 304.879C545.796 303.194 547.122 300.767 547.423 298.117C547.545 296.13 547.075 294.979 546.761 295.014Z" fill="#263238"/>
<path d="M548.626 242.551C549.044 243.736 553.402 243.161 558.526 243.789C563.65 244.416 567.781 245.793 568.461 244.73C568.757 244.224 568.043 243.109 566.369 241.958C564.158 240.524 561.636 239.64 559.014 239.379C556.393 239.068 553.736 239.379 551.258 240.285C549.376 241.052 548.434 241.976 548.626 242.551Z" fill="#263238"/>
<path d="M508.468 246.194C509.235 247.187 512.233 246.194 515.858 246.194C519.484 246.194 522.534 246.874 523.231 245.828C523.545 245.322 523.057 244.329 521.715 243.405C519.923 242.272 517.834 241.702 515.715 241.767C513.597 241.832 511.546 242.53 509.828 243.771C508.555 244.695 508.12 245.723 508.468 246.194Z" fill="#263238"/>
<path d="M601.351 263.989C601.821 263.78 620.854 258.22 620.227 277.637C619.599 297.053 600.252 292.417 600.235 291.859C600.218 291.302 601.351 263.989 601.351 263.989Z" fill="#FFBE9D"/>
<path d="M606.405 284.696C606.492 284.696 606.736 284.94 607.294 285.219C608.085 285.596 608.993 285.646 609.821 285.358C611.896 284.678 613.726 281.471 613.935 277.985C614.04 276.319 613.766 274.65 613.133 273.105C612.972 272.492 612.664 271.927 612.236 271.459C611.808 270.991 611.272 270.635 610.675 270.421C610.29 270.311 609.878 270.338 609.509 270.497C609.141 270.656 608.839 270.937 608.654 271.292C608.375 271.833 608.479 272.216 608.375 272.251C608.27 272.286 607.974 271.902 608.148 271.118C608.284 270.639 608.571 270.217 608.967 269.915C609.515 269.534 610.19 269.377 610.85 269.48C611.65 269.662 612.391 270.046 613.001 270.595C613.611 271.144 614.071 271.84 614.336 272.617C615.106 274.321 615.447 276.188 615.329 278.055C615.085 281.959 612.959 285.567 610.1 286.282C609.573 286.416 609.023 286.431 608.489 286.325C607.955 286.22 607.452 285.996 607.015 285.672C606.423 285.166 606.335 284.731 606.405 284.696Z" fill="#EB996E"/>
<path d="M490.62 194.358C492.693 190.271 495.674 186.713 499.334 183.956C502.994 181.199 507.236 179.316 511.737 178.451C516.237 177.586 520.875 177.763 525.296 178.967C529.718 180.172 533.805 182.372 537.244 185.399C539.4 181.102 542.577 177.399 546.496 174.615C550.416 171.831 554.959 170.051 559.726 169.432C564.494 168.813 569.341 169.372 573.842 171.062C578.343 172.752 582.36 175.521 585.542 179.125C590.98 185.295 593.804 193.678 600.183 198.872C605.691 203.352 613.185 204.851 618.728 209.33C621.803 211.798 624.138 215.065 625.476 218.774C626.814 222.483 627.104 226.489 626.313 230.351C625.522 234.214 623.681 237.783 620.993 240.668C618.305 243.552 614.874 245.639 611.076 246.699C617.177 257.68 611.46 273.419 599.747 277.95L596.923 276.783C591.644 270.761 588.274 263.305 587.241 255.364C586.207 247.422 587.557 239.353 591.119 232.18C590.777 232.198 590.434 232.198 590.091 232.18C585.204 234.897 579.486 235.711 574.036 234.465C568.585 233.22 563.788 230.004 560.565 225.435C556.631 228.178 551.996 229.742 547.205 229.942C542.413 230.143 537.664 228.972 533.515 226.568C532.304 225.665 530.913 225.035 529.436 224.72C527.632 224.744 525.87 225.269 524.347 226.237C520.149 228.513 515.364 229.479 510.612 229.008C508.412 228.742 506.315 227.927 504.512 226.639C502.709 225.351 501.259 223.63 500.294 221.635C500.184 221.644 500.073 221.644 499.963 221.635C497.244 221.016 494.747 219.664 492.744 217.724C490.74 215.785 489.306 213.334 488.598 210.637C487.227 205.148 487.948 199.345 490.62 194.358Z" fill="#263238"/>
</svg>
